<svg width="46" height="50" viewBox="0 0 46 50" fill="none" xmlns="http://www.w3.org/2000/svg">
<path d="M43.001 20.7672V16.3381C43.001 15.2756 42.5869 14.2765 41.8352 13.5245L29.4812 1.16904C28.7273 0.415137 27.7248 0 26.6579 0H8.07363C5.27549 0 2.99902 2.27256 2.99902 5.06592V13.8803C2.99902 14.2849 3.32695 14.6127 3.73145 14.6127C4.13594 14.6127 4.46387 14.2849 4.46387 13.8803V5.06592C4.46387 3.08027 6.0832 1.46484 8.07363 1.46484H26.6579C26.8673 1.46484 27.0752 1.4916 27.2765 1.54277V8.07979C27.2765 8.48438 27.6044 8.81221 28.0089 8.81221C28.4134 8.81221 28.7413 8.48438 28.7413 8.07979V2.50088L40.5004 14.2614H30.9444C29.7297 14.2614 28.7413 13.2729 28.7413 12.0577V11.4979C28.7413 11.0933 28.4134 10.7654 28.0089 10.7654C27.6044 10.7654 27.2765 11.0933 27.2765 11.4979V12.0577C27.2765 14.0806 28.922 15.7263 30.9444 15.7263H41.4614C41.5107 15.924 41.5361 16.1291 41.5361 16.3381V20.1422C41.1968 20.0628 40.8437 20.0195 40.4805 20.0195H37.8646C37.4601 20.0195 37.1321 20.3474 37.1321 20.752C37.1321 21.1565 37.4601 21.4844 37.8646 21.4844H40.4805C42.2305 21.4844 43.6543 22.9081 43.6543 24.6582V38.916C43.6543 40.6661 42.2305 42.0898 40.4805 42.0898H22.4549C22.0504 42.0898 21.7225 42.4177 21.7225 42.8223C21.7225 43.2269 22.0504 43.5547 22.4549 43.5547H40.4805C40.8437 43.5547 41.1968 43.5114 41.5361 43.432V44.9341C41.5361 46.9197 39.9168 48.5352 37.9264 48.5352H8.07363C6.0832 48.5352 4.46387 46.9197 4.46387 44.9341V43.432C4.80322 43.5114 5.15635 43.5547 5.51953 43.5547H19.0369C19.4414 43.5547 19.7693 43.2269 19.7693 42.8223C19.7693 42.4177 19.4414 42.0898 19.0369 42.0898H5.51953C3.76953 42.0898 2.3457 40.6661 2.3457 38.916V24.6582C2.3457 22.9081 3.76953 21.4844 5.51953 21.4844H34.4466C34.8511 21.4844 35.179 21.1565 35.179 20.752C35.179 20.3474 34.8511 20.0195 34.4466 20.0195H5.51953C5.15635 20.0195 4.80322 20.0628 4.46387 20.1422V17.2982C4.46387 16.8937 4.13594 16.5658 3.73145 16.5658C3.32695 16.5658 2.99902 16.8937 2.99902 17.2982V20.7672C1.72549 21.5949 0.880859 23.0294 0.880859 24.6582V38.916C0.880859 40.5448 1.72549 41.9793 2.99902 42.8071V44.9341C2.99902 47.7274 5.27549 50 8.07363 50H37.9264C40.7245 50 43.001 47.7274 43.001 44.9341V42.8071C44.2745 41.9793 45.1191 40.5448 45.1191 38.916V24.6582C45.1191 23.0294 44.2745 21.5949 43.001 20.7672Z" fill="#E85C67"/>
<path d="M35.5203 26.9944C35.9247 26.9944 36.2527 26.6666 36.2527 26.262C36.2527 25.8574 35.9247 25.5295 35.5203 25.5295H31.0414C30.637 25.5295 30.309 25.8574 30.309 26.262V37.3126C30.309 37.7171 30.637 38.045 31.0414 38.045C31.4459 38.045 31.7739 37.7171 31.7739 37.3126V32.4151H35.1645C35.569 32.4151 35.8969 32.0873 35.8969 31.6827C35.8969 31.2781 35.569 30.9502 35.1645 30.9502H31.7739V26.9944H35.5203Z" fill="#E85C67"/>
<path d="M19.4684 37.0133C19.4493 37.4623 19.7328 37.9343 20.2254 37.9212C20.3177 37.9208 22.4951 37.9124 23.3627 37.8974C24.8334 37.8716 26.1431 37.2051 27.0506 36.0206C27.8919 34.9226 28.3553 33.4192 28.3553 31.7873C28.3553 28.1185 26.3078 25.6535 23.2604 25.6535H20.2008C19.803 25.6455 19.4545 25.9996 19.4684 26.3971V37.0133ZM23.2604 27.1183C25.9368 27.1183 26.8904 29.5301 26.8904 31.7873C26.8904 34.4859 25.4292 36.396 23.3371 36.4327C22.792 36.4421 21.6894 36.4491 20.9525 36.4529C20.9484 35.2449 20.941 32.8623 20.941 31.7754C20.941 30.8669 20.9368 28.3692 20.9346 27.1184H23.2604V27.1183Z" fill="#E85C67"/>
<path d="M10.4804 25.4887C10.0867 25.4807 9.74128 25.8282 9.74802 26.2211V37.3531C9.74802 37.7577 10.076 38.0855 10.4804 38.0855C10.8849 38.0855 11.2129 37.7577 11.2129 37.3531V33.2461C11.9387 33.242 13.0369 33.2363 13.5802 33.2363C15.7502 33.2363 17.5156 31.4985 17.5156 29.3625C17.5156 27.2265 15.7502 25.4886 13.5802 25.4886H10.4804V25.4887ZM16.0508 29.3626C16.0508 30.6683 14.9194 31.7716 13.5802 31.7716C13.0403 31.7716 11.9579 31.7771 11.2302 31.7812C11.2261 31.0354 11.2206 29.9131 11.2206 29.3626C11.2206 28.8995 11.2174 27.7283 11.2151 26.9535H13.5802C14.9193 26.9535 16.0508 28.0567 16.0508 29.3626Z" fill="#E85C67"/>
</svg>
