<svg width="473" height="214" viewBox="0 0 473 214" fill="none" xmlns="http://www.w3.org/2000/svg">
<ellipse cx="4.50688" cy="210.482" rx="3.51762" ry="3.5225" transform="rotate(-90 4.50688 210.482)" fill="#CCCCCC"/>
<ellipse cx="4.50688" cy="158.891" rx="3.51762" ry="3.5225" transform="rotate(-90 4.50688 158.891)" fill="#CCCCCC"/>
<ellipse cx="4.50688" cy="107.299" rx="3.51762" ry="3.5225" transform="rotate(-90 4.50688 107.299)" fill="#CCCCCC"/>
<ellipse cx="4.50688" cy="55.707" rx="3.51762" ry="3.5225" transform="rotate(-90 4.50688 55.707)" fill="#CCCCCC"/>
<ellipse cx="4.50688" cy="4.11519" rx="3.51762" ry="3.5225" transform="rotate(-90 4.50688 4.11519)" fill="#CCCCCC"/>
<ellipse cx="56.1702" cy="210.482" rx="3.51762" ry="3.5225" transform="rotate(-90 56.1702 210.482)" fill="#CCCCCC"/>
<ellipse cx="56.1704" cy="158.891" rx="3.51762" ry="3.5225" transform="rotate(-90 56.1704 158.891)" fill="#CCCCCC"/>
<ellipse cx="56.1704" cy="107.299" rx="3.51762" ry="3.5225" transform="rotate(-90 56.1704 107.299)" fill="#CCCCCC"/>
<ellipse cx="56.1704" cy="55.707" rx="3.51762" ry="3.5225" transform="rotate(-90 56.1704 55.707)" fill="#CCCCCC"/>
<ellipse cx="56.1704" cy="4.11519" rx="3.51762" ry="3.5225" transform="rotate(-90 56.1704 4.11519)" fill="#CCCCCC"/>
<ellipse cx="107.834" cy="210.482" rx="3.51762" ry="3.5225" transform="rotate(-90 107.834 210.482)" fill="#CCCCCC"/>
<ellipse cx="107.834" cy="158.891" rx="3.51762" ry="3.5225" transform="rotate(-90 107.834 158.891)" fill="#CCCCCC"/>
<ellipse cx="107.834" cy="107.299" rx="3.51762" ry="3.5225" transform="rotate(-90 107.834 107.299)" fill="#CCCCCC"/>
<ellipse cx="107.834" cy="55.707" rx="3.51762" ry="3.5225" transform="rotate(-90 107.834 55.707)" fill="#CCCCCC"/>
<ellipse cx="107.834" cy="4.11519" rx="3.51762" ry="3.5225" transform="rotate(-90 107.834 4.11519)" fill="#CCCCCC"/>
<ellipse cx="159.497" cy="210.482" rx="3.51762" ry="3.5225" transform="rotate(-90 159.497 210.482)" fill="#CCCCCC"/>
<ellipse cx="159.497" cy="158.891" rx="3.51762" ry="3.5225" transform="rotate(-90 159.497 158.891)" fill="#CCCCCC"/>
<ellipse cx="159.497" cy="107.299" rx="3.51762" ry="3.5225" transform="rotate(-90 159.497 107.299)" fill="#CCCCCC"/>
<ellipse cx="159.497" cy="55.707" rx="3.51762" ry="3.5225" transform="rotate(-90 159.497 55.707)" fill="#CCCCCC"/>
<ellipse cx="159.497" cy="4.11519" rx="3.51762" ry="3.5225" transform="rotate(-90 159.497 4.11519)" fill="#CCCCCC"/>
<ellipse cx="211.16" cy="210.482" rx="3.51762" ry="3.5225" transform="rotate(-90 211.16 210.482)" fill="#CCCCCC"/>
<ellipse cx="211.16" cy="158.891" rx="3.51762" ry="3.5225" transform="rotate(-90 211.16 158.891)" fill="#CCCCCC"/>
<ellipse cx="211.16" cy="107.299" rx="3.51762" ry="3.5225" transform="rotate(-90 211.16 107.299)" fill="#CCCCCC"/>
<ellipse cx="211.16" cy="55.707" rx="3.51762" ry="3.5225" transform="rotate(-90 211.16 55.707)" fill="#CCCCCC"/>
<ellipse cx="211.16" cy="4.11519" rx="3.51762" ry="3.5225" transform="rotate(-90 211.16 4.11519)" fill="#CCCCCC"/>
<ellipse cx="262.824" cy="210.482" rx="3.51762" ry="3.5225" transform="rotate(-90 262.824 210.482)" fill="#CCCCCC"/>
<ellipse cx="262.824" cy="158.891" rx="3.51762" ry="3.5225" transform="rotate(-90 262.824 158.891)" fill="#CCCCCC"/>
<ellipse cx="262.824" cy="107.299" rx="3.51762" ry="3.5225" transform="rotate(-90 262.824 107.299)" fill="#CCCCCC"/>
<ellipse cx="262.824" cy="55.707" rx="3.51762" ry="3.5225" transform="rotate(-90 262.824 55.707)" fill="#CCCCCC"/>
<ellipse cx="262.824" cy="4.11519" rx="3.51762" ry="3.5225" transform="rotate(-90 262.824 4.11519)" fill="#CCCCCC"/>
<ellipse cx="314.487" cy="210.482" rx="3.51762" ry="3.5225" transform="rotate(-90 314.487 210.482)" fill="#CCCCCC"/>
<ellipse cx="314.487" cy="158.891" rx="3.51762" ry="3.5225" transform="rotate(-90 314.487 158.891)" fill="#CCCCCC"/>
<ellipse cx="314.487" cy="107.299" rx="3.51762" ry="3.5225" transform="rotate(-90 314.487 107.299)" fill="#CCCCCC"/>
<ellipse cx="314.487" cy="55.707" rx="3.51762" ry="3.5225" transform="rotate(-90 314.487 55.707)" fill="#CCCCCC"/>
<ellipse cx="314.487" cy="4.11519" rx="3.51762" ry="3.5225" transform="rotate(-90 314.487 4.11519)" fill="#CCCCCC"/>
<ellipse cx="366.15" cy="210.482" rx="3.51762" ry="3.5225" transform="rotate(-90 366.15 210.482)" fill="#CCCCCC"/>
<ellipse cx="366.15" cy="158.891" rx="3.51762" ry="3.5225" transform="rotate(-90 366.15 158.891)" fill="#CCCCCC"/>
<ellipse cx="366.15" cy="107.299" rx="3.51762" ry="3.5225" transform="rotate(-90 366.15 107.299)" fill="#CCCCCC"/>
<ellipse cx="366.15" cy="55.707" rx="3.51762" ry="3.5225" transform="rotate(-90 366.15 55.707)" fill="#CCCCCC"/>
<ellipse cx="366.15" cy="4.11519" rx="3.51762" ry="3.5225" transform="rotate(-90 366.15 4.11519)" fill="#CCCCCC"/>
<ellipse cx="417.814" cy="210.482" rx="3.51762" ry="3.5225" transform="rotate(-90 417.814 210.482)" fill="#CCCCCC"/>
<ellipse cx="417.814" cy="158.891" rx="3.51762" ry="3.5225" transform="rotate(-90 417.814 158.891)" fill="#CCCCCC"/>
<ellipse cx="417.814" cy="107.299" rx="3.51762" ry="3.5225" transform="rotate(-90 417.814 107.299)" fill="#CCCCCC"/>
<ellipse cx="417.814" cy="55.707" rx="3.51762" ry="3.5225" transform="rotate(-90 417.814 55.707)" fill="#CCCCCC"/>
<ellipse cx="417.814" cy="4.11519" rx="3.51762" ry="3.5225" transform="rotate(-90 417.814 4.11519)" fill="#CCCCCC"/>
<ellipse cx="469.477" cy="210.482" rx="3.51762" ry="3.5225" transform="rotate(-90 469.477 210.482)" fill="#CCCCCC"/>
<ellipse cx="469.477" cy="158.891" rx="3.51762" ry="3.5225" transform="rotate(-90 469.477 158.891)" fill="#CCCCCC"/>
<ellipse cx="469.477" cy="107.299" rx="3.51762" ry="3.5225" transform="rotate(-90 469.477 107.299)" fill="#CCCCCC"/>
<ellipse cx="469.477" cy="55.707" rx="3.51762" ry="3.5225" transform="rotate(-90 469.477 55.707)" fill="#CCCCCC"/>
<ellipse cx="469.477" cy="4.11519" rx="3.51762" ry="3.5225" transform="rotate(-90 469.477 4.11519)" fill="#CCCCCC"/>
</svg>
