<svg width="64" height="64" viewBox="0 0 64 64" fill="none" xmlns="http://www.w3.org/2000/svg">
<path fill-rule="evenodd" clip-rule="evenodd" d="M35.3767 28.3628H42.452H63.6777V35.4534H42.452V56.7256H49.5272V49.635V42.5444H56.6028H63.6777V49.635H56.6028V56.7256H63.6777V63.8166H35.3767V63.8162V56.7256V35.4534V28.3628Z" fill="white"/>
<path fill-rule="evenodd" clip-rule="evenodd" d="M63.6777 0V7.09063L0 7.09063L0 0L63.6777 0Z" fill="white"/>
<path fill-rule="evenodd" clip-rule="evenodd" d="M63.6777 14.1814V21.272L35.3766 21.272V14.1814L63.6777 14.1814ZM28.301 21.272L28.301 63.8161H21.2258L21.2258 21.272H14.1505L14.1505 63.8161H7.07526L7.07526 21.272H0L0 14.1814H7.07526H14.1505L21.2258 14.1814H28.301V21.272Z" fill="white"/>
</svg>
