<svg width="12" height="20" viewBox="0 0 12 20" fill="none" xmlns="http://www.w3.org/2000/svg">
<path d="M5.99978 0C3.00988 0 0.57666 2.43249 0.57666 5.4232V15.6905C0.57666 16.057 0.873223 16.3536 1.23981 16.3536C1.60615 16.3536 1.90272 16.057 1.90272 15.6905V5.4232C1.90272 3.16413 3.74027 1.3261 5.99978 1.3261C8.25954 1.3261 10.097 3.16413 10.097 5.4232V16.0085C10.097 17.478 8.90117 18.674 7.43134 18.674C7.42042 18.674 7.41059 18.6798 7.3997 18.6804C7.38805 18.6798 7.37895 18.674 7.36734 18.674C5.89764 18.674 4.70176 17.478 4.70176 16.0085V9.65885C4.70176 8.94271 5.28376 8.36066 5.99978 8.36066C6.71596 8.36066 7.29801 8.94271 7.29801 9.65885V15.6905C7.29801 16.057 7.59509 16.3536 7.96095 16.3536C8.32673 16.3536 8.62406 16.057 8.62406 15.6905V9.65885C8.62406 8.21172 7.44691 7.03461 5.99978 7.03461C4.55285 7.03461 3.3757 8.21176 3.3757 9.65885V16.0085C3.3757 18.2091 5.16596 20 7.3673 20C7.37891 20 7.38801 19.9942 7.39966 19.9935C7.41059 19.9942 7.42042 20 7.4313 20C9.63212 20 11.4229 18.2091 11.4229 16.0085V5.4232C11.4229 2.43249 8.98972 0 5.99978 0Z" fill="#666666"/>
</svg>
