<svg width="38" height="50" viewBox="0 0 38 50" fill="none" xmlns="http://www.w3.org/2000/svg">
<path d="M36.3473 27.4803C35.4779 26.6109 34.3221 26.1321 33.0926 26.1321C31.8631 26.1321 30.7073 26.6105 29.8379 27.4803L26.5103 30.8082C26.489 26.6689 23.1156 23.3077 18.9717 23.3077C14.8274 23.3077 11.4545 26.6689 11.4331 30.8078L8.10518 27.4799C7.23581 26.6109 6.07995 26.1321 4.85048 26.1321C3.621 26.1321 2.46515 26.6105 1.59616 27.4803C-0.198656 29.2747 -0.198656 32.1948 1.59578 33.9897L11.2309 43.6244V48.5351C11.2309 49.3442 11.8867 49.9999 12.6958 49.9999H25.2477C26.0568 49.9999 26.7125 49.3442 26.7125 48.5351V43.6244L36.3477 33.9897C38.1421 32.1948 38.1421 29.2747 36.3473 27.4803ZM18.9717 26.2374C21.5135 26.2374 23.5814 28.3054 23.5814 30.8475C23.5814 33.3892 21.5135 35.4575 18.9717 35.4575C16.4296 35.4575 14.3617 33.3892 14.3617 30.8475C14.3617 28.3054 16.4296 26.2374 18.9717 26.2374ZM34.2759 31.9179L24.212 41.9818C23.9373 42.2569 23.7828 42.6292 23.7828 43.0179V47.0702H14.1606V43.0179C14.1606 42.6292 14.0061 42.2565 13.7315 41.9818L3.66716 31.9179C3.01484 31.2656 3.01523 30.2039 3.66754 29.5516C3.9834 29.2358 4.40378 29.0618 4.85048 29.0618C5.29756 29.0618 5.71756 29.2358 6.0338 29.5516L14.4399 37.9581C14.7145 38.2327 15.0872 38.3872 15.4756 38.3872H22.4675C22.8562 38.3872 23.2289 38.2327 23.5036 37.9581L31.9096 29.5516C32.2259 29.2358 32.6459 29.0618 33.093 29.0618C33.5397 29.0618 33.96 29.2354 34.2759 29.5516C34.9282 30.2039 34.9282 31.2656 34.2759 31.9179Z" fill="#666666"/>
<path d="M12.4951 13.8805L11.4674 19.87C11.3732 20.4197 11.599 20.9751 12.0499 21.3028C12.3051 21.4882 12.6076 21.5828 12.9113 21.5828C13.1443 21.5828 13.3782 21.5271 13.5929 21.4142L18.972 18.5863L24.3511 21.4142C24.5652 21.5271 24.7994 21.5828 25.0325 21.5828C25.034 21.5828 25.0355 21.5828 25.0366 21.5828C25.8446 21.5813 26.4996 20.9259 26.4996 20.118C26.4996 20.0054 26.487 19.8959 26.463 19.7903L25.449 13.8805L29.8008 9.6386C30.2002 9.2495 30.3437 8.66737 30.1716 8.13675C29.9992 7.60651 29.5407 7.22008 28.9891 7.13997L22.9752 6.26602L20.2854 0.816345C20.0386 0.31662 19.5294 0 18.972 0C18.4143 0 17.9051 0.31662 17.6583 0.816345L14.9689 6.26602L8.95503 7.13997C8.40304 7.22008 7.9449 7.60651 7.77247 8.13675C7.60005 8.66737 7.74386 9.2495 8.14326 9.6386L12.4951 13.8805ZM16.1522 9.05457C16.6294 8.98514 17.0414 8.68568 17.255 8.25348L18.972 4.77486L20.6887 8.25348C20.9019 8.68568 21.3143 8.98514 21.7915 9.05457L25.6306 9.61266L22.8527 12.3203C22.5075 12.6568 22.35 13.1416 22.4312 13.6169L23.087 17.44L19.6537 15.6349C19.4401 15.5224 19.2059 15.4663 18.972 15.4663C18.7378 15.4663 18.5036 15.5224 18.2904 15.6349L14.8567 17.44L15.5129 13.6169C15.5945 13.1416 15.437 12.6568 15.0917 12.3203L12.3135 9.61227L16.1522 9.05457Z" fill="#666666"/>
</svg>
