<svg width="400" height="64" viewBox="0 0 400 64" fill="none" xmlns="http://www.w3.org/2000/svg">
<path fill-rule="evenodd" clip-rule="evenodd" d="M35.3767 28.3628H42.452H63.6777V35.4534H42.452V56.7256H49.5272V49.635V42.5444H56.6028H63.6777V49.635H56.6028V56.7256H63.6777V63.8166H35.3767V63.8162V56.7256V35.4534V28.3628Z" fill="white"/>
<path fill-rule="evenodd" clip-rule="evenodd" d="M63.6777 0V7.09063L0 7.09063L0 0L63.6777 0Z" fill="white"/>
<path fill-rule="evenodd" clip-rule="evenodd" d="M63.6777 14.1814V21.272L35.3766 21.272V14.1814L63.6777 14.1814ZM28.301 21.272L28.301 63.8161H21.2258L21.2258 21.272H14.1505L14.1505 63.8161H7.07526L7.07526 21.272H0L0 14.1814H7.07526H14.1505L21.2258 14.1814H28.301V21.272Z" fill="white"/>
<path d="M84.984 24.3256V3.82259L75.2478 3.82259V1.15743L97.5937 1.15743V3.82259L87.8575 3.82259V24.3256H84.984ZM98.8373 24.3256V1.15743L117.023 1.15743V3.82259L101.711 3.82259V10.6137H110.975V13.2789H101.711V21.6607L117.967 21.6607V24.3256L98.8373 24.3256ZM140.691 16.9326L143.007 18.6519C141.949 20.6648 140.491 22.2193 138.647 23.3011C136.81 24.383 134.715 24.9274 132.363 24.9274C128.903 24.9274 126.044 23.7811 123.785 21.4959C121.534 19.2104 120.404 16.3093 120.404 12.7918C120.404 9.26705 121.534 6.35853 123.792 4.07333C126.059 1.78781 128.911 0.641846 132.356 0.641846C134.494 0.641846 136.445 1.10741 138.204 2.04593C139.962 2.98444 141.392 4.32407 142.493 6.05777L140.084 7.77704C139.362 6.39444 138.311 5.30555 136.946 4.52447C135.58 3.74371 134.05 3.34965 132.363 3.34965C129.769 3.34965 127.617 4.24519 125.916 6.02891C124.214 7.81295 123.364 10.0693 123.364 12.7918C123.364 15.5211 124.214 17.7778 125.916 19.5545C127.617 21.3311 129.769 22.2193 132.363 22.2193C134.179 22.2193 135.787 21.7682 137.196 20.8726C138.604 19.9771 139.769 18.666 140.691 16.9326ZM148.154 24.3256V1.15743L151.071 1.15743V10.313H164.71V1.15743L167.583 1.15743V24.3256H164.71V12.9778H151.071V24.3256H148.154ZM174.581 24.3256V1.15743L176.09 1.15743L191.094 18.4726V1.15743H193.968V24.3256H192.502L177.455 7.01039V24.3256H174.581ZM210.988 22.2193C213.583 22.2193 215.735 21.3311 217.443 19.5545C219.144 17.7778 219.995 15.5211 219.995 12.7918C219.995 10.0552 219.144 7.79147 217.45 6.0148C215.756 4.23814 213.597 3.34965 210.988 3.34965C208.393 3.34965 206.241 4.24519 204.533 6.02891C202.832 7.81295 201.981 10.0693 201.981 12.7918C201.981 15.5211 202.832 17.7778 204.533 19.5545C206.241 21.3311 208.393 22.2193 210.988 22.2193ZM210.981 24.9274C207.514 24.9274 204.655 23.7811 202.403 21.4959C200.151 19.2104 199.022 16.3093 199.022 12.7918C199.022 9.26705 200.151 6.35853 202.417 4.07333C204.676 1.78781 207.528 0.641846 210.981 0.641846C214.441 0.641846 217.307 1.78781 219.587 4.08744C221.861 6.38001 222.997 9.28148 222.997 12.7918C222.997 16.3093 221.861 19.2104 219.595 21.4959C217.329 23.7811 214.455 24.9274 210.981 24.9274ZM246.494 16.9326L248.81 18.6519C247.752 20.6648 246.294 22.2193 244.45 23.3011C242.612 24.383 240.518 24.9274 238.166 24.9274C234.706 24.9274 231.847 23.7811 229.588 21.4959C227.336 19.2104 226.207 16.3093 226.207 12.7918C226.207 9.26705 227.336 6.35853 229.595 4.07333C231.861 1.78781 234.714 0.641846 238.159 0.641846C240.296 0.641846 242.248 1.10741 244.007 2.04593C245.765 2.98444 247.195 4.32407 248.295 6.05777L245.886 7.77704C245.164 6.39444 244.114 5.30555 242.748 4.52447C241.383 3.74371 239.853 3.34965 238.166 3.34965C235.571 3.34965 233.42 4.24519 231.718 6.02891C230.017 7.81295 229.166 10.0693 229.166 12.7918C229.166 15.5211 230.017 17.7778 231.718 19.5545C233.42 21.3311 235.571 22.2193 238.166 22.2193C239.982 22.2193 241.59 21.7682 242.999 20.8726C244.407 19.9771 245.572 18.666 246.494 16.9326ZM264.079 22.2193C266.674 22.2193 268.826 21.3311 270.534 19.5545C272.235 17.7778 273.086 15.5211 273.086 12.7918C273.086 10.0552 272.235 7.79147 270.541 6.0148C268.847 4.23814 266.688 3.34965 264.079 3.34965C261.484 3.34965 259.332 4.24519 257.624 6.02891C255.923 7.81295 255.072 10.0693 255.072 12.7918C255.072 15.5211 255.923 17.7778 257.624 19.5545C259.332 21.3311 261.484 22.2193 264.079 22.2193ZM264.072 24.9274C260.605 24.9274 257.746 23.7811 255.494 21.4959C253.242 19.2104 252.113 16.3093 252.113 12.7918C252.113 9.26705 253.242 6.35853 255.508 4.07333C257.767 1.78781 260.619 0.641846 264.072 0.641846C267.532 0.641846 270.398 1.78781 272.678 4.08744C274.952 6.38001 276.088 9.28148 276.088 12.7918C276.088 16.3093 274.952 19.2104 272.686 21.4959C270.42 23.7811 267.546 24.9274 264.072 24.9274ZM283.887 11.4737L294.095 11.4737C295.546 11.4737 296.647 11.1511 297.391 10.5063C298.141 9.86889 298.513 8.92333 298.513 7.67668C298.513 6.46594 298.141 5.51332 297.391 4.83966C296.647 4.15926 295.596 3.82259 294.238 3.82259L283.887 3.82259V11.4737ZM281.014 24.3256V1.15743L294.281 1.15743C296.54 1.15743 298.306 1.73074 299.592 2.86965C300.872 4.00888 301.515 5.58483 301.515 7.5978C301.515 9.27411 301.015 10.707 300.014 11.9034C299.006 13.0997 297.684 13.8448 296.039 14.1385L301.815 24.3256H298.642L292.859 14.1815L283.887 14.1815V24.3256H281.014ZM309.5 11.4737H319.708C321.159 11.4737 322.26 11.1511 323.003 10.5063C323.754 9.86889 324.125 8.92333 324.125 7.67668C324.125 6.46594 323.754 5.51332 323.003 4.83966C322.26 4.15926 321.209 3.82259 319.851 3.82259L309.5 3.82259V11.4737ZM306.626 24.3256V1.15743L319.894 1.15743C322.138 1.15743 323.904 1.71631 325.191 2.83406C326.484 3.95149 327.128 5.48447 327.128 7.42594C327.128 9.43892 326.506 11.0723 325.255 12.3118C324.011 13.5582 322.345 14.1815 320.272 14.1815H309.5V24.3256H306.626Z" fill="white" stroke="white" stroke-width="0.0762" stroke-miterlimit="22.9256"/>
<path d="M81.6016 44.0496H80.3497L78.1251 41.5451L80.3497 38.98H81.6144L79.3313 41.5451L81.6016 44.0496ZM78.7067 44.0496H77.4724L75.2478 41.5451L77.4724 38.98H78.7067L76.4514 41.5451L78.7067 44.0496Z" fill="white"/>
<path d="M91.9271 45.5413H90.543L89.4129 42.5434H84.8873L83.8235 45.5413H82.4343L86.5255 34.8496H87.8206L91.9271 45.5413ZM89.0015 41.4186L87.3279 36.8629C87.2744 36.7125 87.2188 36.4733 87.1653 36.1476H87.1349C87.0866 36.4506 87.0284 36.6872 86.9647 36.8629L85.3039 41.4186H89.0015Z" fill="white"/>
<path d="M100.861 45.5413H99.3376L96.882 41.449C96.8085 41.3243 96.7246 41.146 96.6357 40.9196H96.6053C96.557 41.0341 96.4732 41.2098 96.3538 41.449L93.8243 45.5413H92.2905L95.8611 40.1661L92.575 34.8496H94.1062L96.2853 38.6062C96.43 38.8557 96.557 39.1048 96.6661 39.3517H96.6968C96.8542 39.0234 96.9937 38.7665 97.113 38.578L99.3808 34.8496H100.818L97.4611 40.1511L100.861 45.5413Z" fill="white"/>
<path d="M102.484 45.5413V34.8496H105.519C106.44 34.8496 107.174 35.0763 107.713 35.5268C108.254 35.9795 108.525 36.5702 108.525 37.2954C108.525 37.9011 108.36 38.4279 108.033 38.8759C107.705 39.3238 107.256 39.6419 106.679 39.8304V39.8609C107.398 39.9449 107.974 40.2171 108.406 40.6753C108.838 41.1357 109.054 41.7341 109.054 42.4696C109.054 43.3831 108.726 44.1238 108.071 44.6913C107.416 45.2589 106.59 45.5413 105.592 45.5413H102.484ZM103.733 35.9821V39.4357H105.013C105.696 39.4357 106.235 39.2703 106.628 38.9397C107.02 38.6088 107.215 38.1429 107.215 37.5398C107.215 36.5015 106.535 35.9821 105.168 35.9821H103.733ZM103.733 40.5608V44.4088H105.43C106.164 44.4088 106.733 44.2331 107.136 43.8872C107.543 43.5383 107.743 43.0599 107.743 42.4542C107.743 41.1919 106.885 40.5608 105.168 40.5608H103.733Z" fill="white"/>
<path d="M115.516 45.7192C114.003 45.7192 112.792 45.2203 111.883 44.2202C110.973 43.2224 110.516 41.9219 110.516 40.3213C110.516 38.6007 110.981 37.229 111.908 36.2058C112.835 35.1827 114.099 34.6687 115.697 34.6687C117.17 34.6687 118.356 35.1673 119.255 36.16C120.156 37.1549 120.606 38.4555 120.606 40.0615C120.606 41.8049 120.143 43.1842 119.222 44.1997C118.3 45.2126 117.066 45.7192 115.516 45.7192ZM115.605 35.8038C114.486 35.8038 113.576 36.2084 112.876 37.0177C112.177 37.8296 111.827 38.8935 111.827 40.209C111.827 41.5275 112.167 42.5863 112.85 43.3904C113.531 44.192 114.422 44.5941 115.516 44.5941C116.687 44.5941 117.609 44.2125 118.285 43.4465C118.96 42.6802 119.295 41.6089 119.295 40.2321C119.295 38.8197 118.97 37.7302 118.315 36.959C117.66 36.1879 116.756 35.8038 115.605 35.8038Z" fill="white"/>
<path d="M130.353 45.5413H128.865L127.077 42.5434C126.915 42.266 126.757 42.029 126.602 41.8306C126.447 41.6347 126.29 41.4743 126.13 41.3522C125.967 41.2275 125.794 41.1357 125.609 41.08C125.424 41.0213 125.213 40.9934 124.979 40.9934H123.954V45.5413H122.704V34.8496H125.889C126.353 34.8496 126.785 34.9083 127.179 35.0253C127.572 35.1424 127.915 35.3181 128.205 35.5573C128.497 35.7965 128.723 36.0943 128.885 36.448C129.05 36.8042 129.131 37.2191 129.131 37.6975C129.131 38.0691 129.075 38.4129 128.964 38.7233C128.852 39.0336 128.695 39.311 128.489 39.5528C128.283 39.7971 128.034 40.0058 127.745 40.1764C127.453 40.347 127.128 40.482 126.765 40.5759V40.6041C126.945 40.6856 127.1 40.7744 127.232 40.8764C127.362 40.9806 127.488 41.1002 127.605 41.2403C127.725 41.3778 127.844 41.5356 127.961 41.7135C128.078 41.8893 128.207 42.0929 128.349 42.3269L130.353 45.5413ZM123.954 35.9821V39.8609H125.65C125.962 39.8609 126.252 39.8125 126.516 39.7182C126.782 39.6243 127.011 39.4893 127.204 39.311C127.397 39.1356 127.549 38.9192 127.658 38.662C127.768 38.4077 127.821 38.1201 127.821 37.8021C127.821 37.2294 127.638 36.784 127.268 36.4634C126.899 36.1424 126.363 35.9821 125.665 35.9821H123.954Z" fill="white"/>
<path d="M135.966 45.7192C134.453 45.7192 133.242 45.2203 132.332 44.2202C131.423 43.2224 130.966 41.9219 130.966 40.3213C130.966 38.6007 131.431 37.229 132.358 36.2058C133.285 35.1827 134.549 34.6687 136.147 34.6687C137.62 34.6687 138.806 35.1673 139.705 36.16C140.606 37.1549 141.056 38.4555 141.056 40.0615C141.056 41.8049 140.593 43.1842 139.672 44.1997C138.75 45.2126 137.516 45.7192 135.966 45.7192ZM136.055 35.8038C134.936 35.8038 134.026 36.2084 133.326 37.0177C132.627 37.8296 132.276 38.8935 132.276 40.209C132.276 41.5275 132.617 42.5863 133.3 43.3904C133.98 44.192 134.872 44.5941 135.966 44.5941C137.137 44.5941 138.059 44.2125 138.735 43.4465C139.41 42.6802 139.745 41.6089 139.745 40.2321C139.745 38.8197 139.42 37.7302 138.765 36.959C138.11 36.1879 137.206 35.8038 136.055 35.8038Z" fill="white"/>
<path d="M148.778 35.9821H145.698V45.5413H144.448V35.9821H141.375V34.8496H148.778V35.9821Z" fill="white"/>
<path d="M160.939 35.9821H157.859V45.5413H156.609V35.9821H153.536V34.8496H160.939V35.9821Z" fill="white"/>
<path d="M168.267 45.5413H162.614V34.8496H168.031V35.9821H163.864V39.5402H167.719V40.6651H163.864V44.4088H168.267V45.5413Z" fill="white"/>
<path d="M177.687 45.5413H176.163L173.707 41.449C173.634 41.3243 173.55 41.146 173.461 40.9196H173.431C173.382 41.0341 173.298 41.2098 173.179 41.449L170.65 45.5413H169.116L172.686 40.1661L169.4 34.8496H170.931L173.111 38.6062C173.255 38.8557 173.382 39.1048 173.491 39.3517H173.522C173.679 39.0234 173.819 38.7665 173.938 38.578L176.206 34.8496H177.644L174.286 40.1511L177.687 45.5413Z" fill="white"/>
<path d="M187.91 45.5413H186.376L180.886 37.0181C180.746 36.8042 180.632 36.5804 180.543 36.3486H180.5C180.538 36.5779 180.558 37.0665 180.558 37.8171V45.5413H179.308V34.8496H180.931L186.272 43.2382C186.495 43.5842 186.64 43.8234 186.704 43.9532H186.734C186.683 43.6454 186.658 43.1211 186.658 42.3805V34.8496H187.91V45.5413Z" fill="white"/>
<path d="M195.006 45.7192C193.493 45.7192 192.282 45.2203 191.373 44.2202C190.463 43.2224 190.006 41.9219 190.006 40.3213C190.006 38.6007 190.471 37.229 191.398 36.2058C192.325 35.1827 193.589 34.6687 195.187 34.6687C196.66 34.6687 197.846 35.1673 198.745 36.16C199.646 37.1549 200.096 38.4555 200.096 40.0615C200.096 41.8049 199.634 43.1842 198.712 44.1997C197.79 45.2126 196.556 45.7192 195.006 45.7192ZM195.095 35.8038C193.976 35.8038 193.066 36.2084 192.366 37.0177C191.667 37.8296 191.317 38.8935 191.317 40.209C191.317 41.5275 191.657 42.5863 192.34 43.3904C193.021 44.192 193.912 44.5941 195.006 44.5941C196.177 44.5941 197.099 44.2125 197.775 43.4465C198.45 42.6802 198.785 41.6089 198.785 40.2321C198.785 38.8197 198.46 37.7302 197.805 36.959C197.15 36.1879 196.246 35.8038 195.095 35.8038Z" fill="white"/>
<path d="M207.727 45.5413H202.193V34.8496H203.443V44.4088H207.727V45.5413Z" fill="white"/>
<path d="M213.142 45.7192C211.629 45.7192 210.418 45.2203 209.509 44.2202C208.599 43.2224 208.142 41.9219 208.142 40.3213C208.142 38.6007 208.607 37.229 209.534 36.2058C210.461 35.1827 211.725 34.6687 213.323 34.6687C214.796 34.6687 215.982 35.1673 216.881 36.16C217.782 37.1549 218.232 38.4555 218.232 40.0615C218.232 41.8049 217.769 43.1842 216.848 44.1997C215.926 45.2126 214.692 45.7192 213.142 45.7192ZM213.231 35.8038C212.112 35.8038 211.202 36.2084 210.502 37.0177C209.803 37.8296 209.453 38.8935 209.453 40.209C209.453 41.5275 209.793 42.5863 210.476 43.3904C211.157 44.192 212.048 44.5941 213.142 44.5941C214.313 44.5941 215.235 44.2125 215.911 43.4465C216.586 42.6802 216.921 41.6089 216.921 40.2321C216.921 38.8197 216.596 37.7302 215.941 36.959C215.286 36.1879 214.382 35.8038 213.231 35.8038Z" fill="white"/>
<path d="M228.304 44.8105C227.235 45.4162 226.044 45.7192 224.734 45.7192C223.212 45.7192 221.981 45.228 221.041 44.243C220.099 43.2606 219.629 41.9575 219.629 40.3363C219.629 38.6821 220.153 37.323 221.196 36.2616C222.24 35.2006 223.563 34.6687 225.165 34.6687C226.326 34.6687 227.301 34.8595 228.088 35.2362V36.6233C227.227 36.076 226.204 35.8038 225.023 35.8038C223.83 35.8038 222.849 36.2161 222.085 37.0405C221.321 37.8652 220.94 38.9342 220.94 40.2472C220.94 41.5987 221.295 42.6626 222.004 43.4337C222.712 44.2074 223.675 44.5941 224.891 44.5941C225.724 44.5941 226.445 44.4261 227.055 44.0955V41.0972H224.718V39.9647H228.304V44.8105Z" fill="white"/>
<path d="M232.032 45.5413H230.782V34.8496H232.032V45.5413Z" fill="white"/>
<path d="M241.771 34.8496L238.253 41.5888V45.5413H237.001V41.6196L233.573 34.8496H234.993L237.383 39.68C237.41 39.7413 237.499 39.96 237.641 40.3367H237.664C237.715 40.1687 237.809 39.95 237.946 39.68L240.448 34.8496H241.771Z" fill="white"/>
<path d="M250.329 45.5413H248.945L247.815 42.5434H243.29L242.226 45.5413H240.837L244.928 34.8496H246.223L250.329 45.5413ZM247.404 41.4186L245.73 36.8629C245.677 36.7125 245.621 36.4733 245.568 36.1476H245.537C245.489 36.4506 245.431 36.6872 245.367 36.8629L243.706 41.4186H247.404Z" fill="white"/>
<path d="M257.433 45.5413H251.899V34.8496H253.148V44.4088H257.433V45.5413Z" fill="white"/>
<path d="M267.776 45.5413H266.392L265.262 42.5434H260.736L259.673 45.5413H258.283L262.375 34.8496H263.67L267.776 45.5413ZM264.851 41.4186L263.177 36.8629C263.124 36.7125 263.068 36.4733 263.015 36.1476H262.984C262.936 36.4506 262.878 36.6872 262.814 36.8629L261.153 41.4186H264.851Z" fill="white"/>
<path d="M276.994 45.5413H275.505L273.718 42.5434C273.555 42.266 273.398 42.029 273.243 41.8306C273.088 41.6347 272.93 41.4743 272.77 41.3522C272.608 41.2275 272.435 41.1357 272.25 41.08C272.064 41.0213 271.854 40.9934 271.62 40.9934H270.594V45.5413H269.344V34.8496H272.529C272.994 34.8496 273.426 34.9083 273.819 35.0253C274.213 35.1424 274.556 35.3181 274.845 35.5573C275.137 35.7965 275.363 36.0943 275.526 36.448C275.691 36.8042 275.772 37.2191 275.772 37.6975C275.772 38.0691 275.716 38.4129 275.605 38.7233C275.493 39.0336 275.335 39.311 275.13 39.5528C274.924 39.7971 274.675 40.0058 274.386 40.1764C274.093 40.347 273.768 40.482 273.405 40.5759V40.6041C273.586 40.6856 273.741 40.7744 273.873 40.8764C274.002 40.9806 274.129 41.1002 274.246 41.2403C274.365 41.3778 274.485 41.5356 274.602 41.7135C274.718 41.8893 274.848 42.0929 274.99 42.3269L276.994 45.5413ZM270.594 35.9821V39.8609H272.291C272.603 39.8609 272.892 39.8125 273.156 39.7182C273.423 39.6243 273.652 39.4893 273.845 39.311C274.038 39.1356 274.19 38.9192 274.299 38.662C274.409 38.4077 274.462 38.1201 274.462 37.8021C274.462 37.2294 274.279 36.784 273.908 36.4634C273.54 36.1424 273.004 35.9821 272.306 35.9821H270.594Z" fill="white"/>
<path d="M279.709 45.5413H278.459V34.8496H279.709V45.5413Z" fill="white"/>
<path d="M294.621 34.8496L290.669 45.5413H289.293L285.426 34.8496H286.817L289.77 43.3273C289.864 43.5995 289.936 43.9151 289.986 44.2739H290.014C290.055 43.9763 290.136 43.6553 290.261 43.3119L293.275 34.8496H294.621Z" fill="white"/>
<path d="M303.519 45.5413H302.135L301.005 42.5434H296.479L295.415 45.5413H294.026L298.117 34.8496H299.412L303.519 45.5413ZM300.593 41.4186L298.919 36.8629C298.866 36.7125 298.81 36.4733 298.757 36.1476H298.727C298.678 36.4506 298.62 36.6872 298.556 36.8629L296.895 41.4186H300.593Z" fill="white"/>
<path d="M317.523 45.5413H316.138L315.008 42.5434H310.483L309.419 45.5413H308.03L312.121 34.8496H313.416L317.523 45.5413ZM314.597 41.4186L312.923 36.8629C312.87 36.7125 312.814 36.4733 312.761 36.1476H312.73C312.682 36.4506 312.624 36.6872 312.56 36.8629L310.899 41.4186H314.597Z" fill="white"/>
<path d="M326.456 45.5413H324.932L322.476 41.449C322.402 41.3243 322.319 41.146 322.23 40.9196H322.199C322.151 41.0341 322.067 41.2098 321.948 41.449L319.418 45.5413H317.885L321.455 40.1661L318.169 34.8496H319.7L321.879 38.6062C322.024 38.8557 322.151 39.1048 322.26 39.3517H322.291C322.448 39.0234 322.588 38.7665 322.707 38.578L324.975 34.8496H326.412L323.055 40.1511L326.456 45.5413Z" fill="white"/>
<path d="M328.078 45.5413V34.8496H331.113C332.035 34.8496 332.769 35.0763 333.307 35.5268C333.848 35.9795 334.12 36.5702 334.12 37.2954C334.12 37.9011 333.954 38.4279 333.627 38.8759C333.3 39.3238 332.85 39.6419 332.273 39.8304V39.8609C332.992 39.9449 333.569 40.2171 334 40.6753C334.432 41.1357 334.648 41.7341 334.648 42.4696C334.648 43.3831 334.32 44.1238 333.665 44.6913C333.01 45.2589 332.185 45.5413 331.187 45.5413H328.078ZM329.328 35.9821V39.4357H330.608C331.291 39.4357 331.829 39.2703 332.223 38.9397C332.614 38.6088 332.809 38.1429 332.809 37.5398C332.809 36.5015 332.129 35.9821 330.762 35.9821H329.328ZM329.328 40.5608V44.4088H331.024C331.758 44.4088 332.327 44.2331 332.731 43.8872C333.137 43.5383 333.338 43.0599 333.338 42.4542C333.338 41.1919 332.479 40.5608 330.762 40.5608H329.328Z" fill="white"/>
<path d="M341.11 45.7192C339.597 45.7192 338.386 45.2203 337.477 44.2202C336.567 43.2224 336.11 41.9219 336.11 40.3213C336.11 38.6007 336.575 37.229 337.502 36.2058C338.429 35.1827 339.693 34.6687 341.291 34.6687C342.764 34.6687 343.95 35.1673 344.849 36.16C345.75 37.1549 346.2 38.4555 346.2 40.0615C346.2 41.8049 345.738 43.1842 344.816 44.1997C343.894 45.2126 342.66 45.7192 341.11 45.7192ZM341.199 35.8038C340.08 35.8038 339.17 36.2084 338.47 37.0177C337.771 37.8296 337.421 38.8935 337.421 40.209C337.421 41.5275 337.761 42.5863 338.444 43.3904C339.125 44.192 340.016 44.5941 341.11 44.5941C342.281 44.5941 343.203 44.2125 343.879 43.4465C344.554 42.6802 344.889 41.6089 344.889 40.2321C344.889 38.8197 344.564 37.7302 343.909 36.959C343.254 36.1879 342.35 35.8038 341.199 35.8038Z" fill="white"/>
<path d="M355.947 45.5413H354.459L352.671 42.5434C352.508 42.266 352.351 42.029 352.196 41.8306C352.041 41.6347 351.884 41.4743 351.724 41.3522C351.561 41.2275 351.388 41.1357 351.203 41.08C351.017 41.0213 350.807 40.9934 350.573 40.9934H349.547V45.5413H348.298V34.8496H351.482C351.947 34.8496 352.379 34.9083 352.772 35.0253C353.166 35.1424 353.509 35.3181 353.798 35.5573C354.091 35.7965 354.316 36.0943 354.479 36.448C354.644 36.8042 354.725 37.2191 354.725 37.6975C354.725 38.0691 354.669 38.4129 354.558 38.7233C354.446 39.0336 354.289 39.311 354.083 39.5528C353.877 39.7971 353.628 40.0058 353.339 40.1764C353.047 40.347 352.722 40.482 352.358 40.5759V40.6041C352.539 40.6856 352.694 40.7744 352.826 40.8764C352.955 40.9806 353.082 41.1002 353.199 41.2403C353.319 41.3778 353.438 41.5356 353.555 41.7135C353.671 41.8893 353.801 42.0929 353.943 42.3269L355.947 45.5413ZM349.547 35.9821V39.8609H351.244C351.556 39.8609 351.845 39.8125 352.109 39.7182C352.376 39.6243 352.605 39.4893 352.798 39.311C352.991 39.1356 353.143 38.9192 353.252 38.662C353.362 38.4077 353.415 38.1201 353.415 37.8021C353.415 37.2294 353.232 36.784 352.861 36.4634C352.493 36.1424 351.957 35.9821 351.259 35.9821H349.547Z" fill="white"/>
<path d="M361.562 45.7192C360.049 45.7192 358.837 45.2203 357.928 44.2202C357.019 43.2224 356.562 41.9219 356.562 40.3213C356.562 38.6007 357.026 37.229 357.953 36.2058C358.88 35.1827 360.145 34.6687 361.742 34.6687C363.215 34.6687 364.401 35.1673 365.3 36.16C366.202 37.1549 366.651 38.4555 366.651 40.0615C366.651 41.8049 366.189 43.1842 365.267 44.1997C364.345 45.2126 363.111 45.7192 361.562 45.7192ZM361.651 35.8038C360.531 35.8038 359.622 36.2084 358.921 37.0177C358.223 37.8296 357.872 38.8935 357.872 40.209C357.872 41.5275 358.212 42.5863 358.895 43.3904C359.576 44.192 360.467 44.5941 361.562 44.5941C362.732 44.5941 363.655 44.2125 364.33 43.4465C365.005 42.6802 365.341 41.6089 365.341 40.2321C365.341 38.8197 365.016 37.7302 364.36 36.959C363.705 36.1879 362.801 35.8038 361.651 35.8038Z" fill="white"/>
<path d="M374.374 35.9821H371.294V45.5413H370.044V35.9821H366.971V34.8496H374.374V35.9821Z" fill="white"/>
<path d="M365.193 59.8108L362.956 62.3304H361.727L363.974 59.8108L361.727 57.2607H362.956L365.193 59.8108ZM362.301 59.8108L360.076 62.3304H358.812L361.102 59.8108L358.812 57.2607H360.076L362.301 59.8108Z" fill="white"/>
<path d="M83.6111 63.8218H82.1227L80.3352 60.8237C80.1727 60.5464 80.015 60.3094 79.8601 60.1109C79.7053 59.915 79.5478 59.7547 79.3879 59.6325C79.2253 59.5078 79.0526 59.4161 78.8673 59.3603C78.6818 59.3016 78.4712 59.2737 78.2374 59.2737H77.2116V63.8218H75.9619V53.1299H79.1466C79.6112 53.1299 80.0431 53.1886 80.4366 53.3056C80.8302 53.4226 81.1732 53.5983 81.4627 53.8375C81.7548 54.0767 81.9807 54.3746 82.1432 54.7283C82.3083 55.0845 82.3896 55.4994 82.3896 55.9778C82.3896 56.3495 82.3336 56.6932 82.2219 57.0036C82.1103 57.314 81.9528 57.5913 81.7471 57.8331C81.5414 58.0774 81.2925 58.2862 81.0029 58.4567C80.7108 58.6273 80.3858 58.7623 80.0226 58.8563V58.8845C80.2031 58.9659 80.3579 59.0547 80.4901 59.1567C80.6196 59.2609 80.7463 59.3805 80.8634 59.5206C80.9828 59.6582 81.1021 59.816 81.2189 59.9939C81.3357 60.1696 81.4653 60.3732 81.6073 60.6073L83.6111 63.8218ZM77.2116 54.2624V58.1412H78.908C79.2202 58.1412 79.5098 58.0928 79.7737 57.9985C80.0406 57.9046 80.269 57.7696 80.4619 57.5913C80.6552 57.4159 80.8075 57.1995 80.9166 56.9423C81.026 56.6881 81.0791 56.4005 81.0791 56.0824C81.0791 55.5097 80.8964 55.0643 80.5256 54.7437C80.1573 54.4227 79.6214 54.2624 78.923 54.2624H77.2116Z" fill="white"/>
<path d="M90.729 63.8218H85.0759V53.1299H90.4929V54.2624H86.3256V57.8206H90.1807V58.9454H86.3256V62.6892H90.729V63.8218Z" fill="white"/>
<path d="M92.2827 63.3895V61.9132C92.4529 62.0633 92.6561 62.1957 92.8897 62.3153C93.1258 62.4349 93.3747 62.5369 93.6335 62.6183C93.8952 62.6998 94.157 62.7633 94.4184 62.8091C94.6826 62.8524 94.9264 62.8752 95.1472 62.8752C95.9167 62.8752 96.4906 62.7328 96.8717 62.4452C97.2499 62.1601 97.4406 61.7478 97.4406 61.2133C97.4406 60.9231 97.3769 60.674 97.2499 60.4601C97.1229 60.2462 96.9478 60.0503 96.7268 59.8746C96.5034 59.6967 96.2392 59.5286 95.9346 59.3657C95.6271 59.2054 95.2995 59.0348 94.9466 58.8566C94.5758 58.6684 94.228 58.475 93.9055 58.2813C93.583 58.088 93.3037 57.8741 93.065 57.6401C92.826 57.406 92.6407 57.1415 92.5035 56.8461C92.3665 56.5508 92.2978 56.2049 92.2978 55.8076C92.2978 55.3189 92.4046 54.8966 92.618 54.5353C92.8311 54.1739 93.113 53.8786 93.4585 53.6445C93.8063 53.4101 94.2024 53.2373 94.6468 53.1225C95.089 53.0081 95.5433 52.9497 96.003 52.9497C97.0544 52.9497 97.8213 53.077 98.3038 53.3313V54.7415C97.6741 54.3035 96.864 54.0848 95.8786 54.0848C95.6044 54.0848 95.3328 54.1127 95.0582 54.1688C94.7866 54.2271 94.5428 54.3214 94.3294 54.4487C94.1163 54.5786 93.9436 54.7463 93.8089 54.9499C93.6742 55.1535 93.6082 55.4004 93.6082 55.6957C93.6082 55.9679 93.6591 56.2049 93.7605 56.4033C93.8623 56.6018 94.012 56.7823 94.2101 56.9478C94.4081 57.1107 94.6519 57.271 94.9363 57.4239C95.2208 57.5791 95.551 57.7471 95.9218 57.9302C96.3054 58.121 96.666 58.3195 97.0086 58.5282C97.3516 58.737 97.6511 58.9688 97.9077 59.2205C98.1668 59.4751 98.37 59.755 98.5223 60.0631C98.6746 60.371 98.7482 60.7246 98.7482 61.1216C98.7482 61.6487 98.6468 62.0963 98.441 62.4606C98.2353 62.8271 97.956 63.1246 97.6079 63.3513C97.2575 63.5803 96.8538 63.7457 96.3991 63.8474C95.9422 63.9493 95.462 64.0003 94.9543 64.0003C94.7866 64.0003 94.5783 63.9875 94.3294 63.9596C94.083 63.9314 93.8293 63.8932 93.5702 63.84C93.3136 63.789 93.0698 63.7226 92.8388 63.6463C92.6078 63.57 92.4222 63.4834 92.2827 63.3895Z" fill="white"/>
<path d="M108.684 59.4975C108.684 62.4984 107.332 64 104.628 64C102.04 64 100.745 62.5568 100.745 59.6681V53.1299H101.994V59.5867C101.994 61.7779 102.919 62.8748 104.763 62.8748C106.543 62.8748 107.434 61.8161 107.434 59.6989V53.1299H108.684V59.4975Z" fill="white"/>
<path d="M118.995 63.8218H117.507L115.72 60.8237C115.557 60.5464 115.399 60.3094 115.244 60.1109C115.09 59.915 114.932 59.7547 114.772 59.6325C114.61 59.5078 114.437 59.4161 114.252 59.3603C114.066 59.3016 113.856 59.2737 113.622 59.2737H112.596V63.8218H111.346V53.1299H114.531C114.995 53.1299 115.427 53.1886 115.821 53.3056C116.214 53.4226 116.557 53.5983 116.847 53.8375C117.139 54.0767 117.365 54.3746 117.528 54.7283C117.693 55.0845 117.774 55.4994 117.774 55.9778C117.774 56.3495 117.718 56.6932 117.606 57.0036C117.495 57.314 117.337 57.5913 117.131 57.8331C116.926 58.0774 116.677 58.2862 116.387 58.4567C116.095 58.6273 115.77 58.7623 115.407 58.8563V58.8845C115.587 58.9659 115.742 59.0547 115.874 59.1567C116.004 59.2609 116.131 59.3805 116.248 59.5206C116.367 59.6582 116.486 59.816 116.603 59.9939C116.72 60.1696 116.85 60.3732 116.992 60.6073L118.995 63.8218ZM112.596 54.2624V58.1412H114.292C114.605 58.1412 114.894 58.0928 115.158 57.9985C115.425 57.9046 115.653 57.7696 115.846 57.5913C116.039 57.4159 116.192 57.1995 116.301 56.9423C116.41 56.6881 116.463 56.4005 116.463 56.0824C116.463 55.5097 116.281 55.0643 115.91 54.7437C115.542 54.4227 115.006 54.2624 114.307 54.2624H112.596Z" fill="white"/>
<path d="M119.961 63.3895V61.9132C120.131 62.0633 120.334 62.1957 120.568 62.3153C120.804 62.4349 121.053 62.5369 121.312 62.6183C121.573 62.6998 121.835 62.7633 122.097 62.8091C122.361 62.8524 122.605 62.8752 122.825 62.8752C123.595 62.8752 124.169 62.7328 124.55 62.4452C124.928 62.1601 125.119 61.7478 125.119 61.2133C125.119 60.9231 125.055 60.674 124.928 60.4601C124.801 60.2462 124.626 60.0503 124.405 59.8746C124.182 59.6967 123.917 59.5286 123.613 59.3657C123.305 59.2054 122.978 59.0348 122.625 58.8566C122.254 58.6684 121.906 58.475 121.584 58.2813C121.261 58.088 120.982 57.8741 120.743 57.6401C120.504 57.406 120.319 57.1415 120.182 56.8461C120.045 56.5508 119.976 56.2049 119.976 55.8076C119.976 55.3189 120.083 54.8966 120.296 54.5353C120.509 54.1739 120.791 53.8786 121.137 53.6445C121.485 53.4101 121.881 53.2373 122.325 53.1225C122.767 53.0081 123.221 52.9497 123.681 52.9497C124.733 52.9497 125.499 53.077 125.982 53.3313V54.7415C125.352 54.3035 124.542 54.0848 123.557 54.0848C123.283 54.0848 123.011 54.1127 122.736 54.1688C122.465 54.2271 122.221 54.3214 122.008 54.4487C121.795 54.5786 121.622 54.7463 121.487 54.9499C121.352 55.1535 121.286 55.4004 121.286 55.6957C121.286 55.9679 121.337 56.2049 121.439 56.4033C121.54 56.6018 121.69 56.7823 121.888 56.9478C122.086 57.1107 122.33 57.271 122.615 57.4239C122.899 57.5791 123.229 57.7471 123.6 57.9302C123.984 58.121 124.344 58.3195 124.687 58.5282C125.03 58.737 125.329 58.9688 125.586 59.2205C125.845 59.4751 126.048 59.755 126.2 60.0631C126.353 60.371 126.426 60.7246 126.426 61.1216C126.426 61.6487 126.325 62.0963 126.119 62.4606C125.913 62.8271 125.634 63.1246 125.286 63.3513C124.936 63.5803 124.532 63.7457 124.077 63.8474C123.62 63.9493 123.14 64.0003 122.632 64.0003C122.465 64.0003 122.257 63.9875 122.008 63.9596C121.761 63.9314 121.508 63.8932 121.248 63.84C120.992 63.789 120.748 63.7226 120.517 63.6463C120.286 63.57 120.1 63.4834 119.961 63.3895Z" fill="white"/>
<path d="M134.091 63.8218H128.557V53.1299H129.807V62.6892H134.091V63.8218Z" fill="white"/>
<path d="M144.434 63.8218H143.05L141.92 60.8237H137.394L136.33 63.8218H134.941L139.032 53.1299H140.327L144.434 63.8218ZM141.508 59.6989L139.834 55.1432C139.781 54.9928 139.725 54.7536 139.672 54.4278H139.642C139.593 54.7309 139.535 54.9675 139.471 55.1432L137.811 59.6989H141.508Z" fill="white"/>
<path d="M153.652 63.8218H152.164L150.376 60.8237C150.214 60.5464 150.056 60.3094 149.901 60.1109C149.747 59.915 149.589 59.7547 149.429 59.6325C149.267 59.5078 149.094 59.4161 148.909 59.3603C148.723 59.3016 148.512 59.2737 148.279 59.2737H147.253V63.8218H146.003V53.1299H149.188C149.652 53.1299 150.084 53.1886 150.478 53.3056C150.871 53.4226 151.214 53.5983 151.504 53.8375C151.796 54.0767 152.022 54.3746 152.184 54.7283C152.35 55.0845 152.431 55.4994 152.431 55.9778C152.431 56.3495 152.375 56.6932 152.263 57.0036C152.152 57.314 151.994 57.5913 151.788 57.8331C151.583 58.0774 151.334 58.2862 151.044 58.4567C150.752 58.6273 150.427 58.7623 150.064 58.8563V58.8845C150.244 58.9659 150.399 59.0547 150.531 59.1567C150.661 59.2609 150.788 59.3805 150.905 59.5206C151.024 59.6582 151.143 59.816 151.26 59.9939C151.377 60.1696 151.507 60.3732 151.649 60.6073L153.652 63.8218ZM147.253 54.2624V58.1412H148.949C149.261 58.1412 149.551 58.0928 149.815 57.9985C150.082 57.9046 150.31 57.7696 150.503 57.5913C150.696 57.4159 150.849 57.1995 150.958 56.9423C151.067 56.6881 151.12 56.4005 151.12 56.0824C151.12 55.5097 150.938 55.0643 150.567 54.7437C150.199 54.4227 149.663 54.2624 148.964 54.2624H147.253Z" fill="white"/>
<path d="M156.367 63.8218H155.117V53.1299H156.367V63.8218Z" fill="white"/>
<path d="M167.774 63.8218H166.24L160.75 55.2984C160.61 55.0845 160.496 54.8607 160.407 54.6289H160.364C160.402 54.8582 160.422 55.3468 160.422 56.0974V63.8218H159.173V53.1299H160.795L166.136 61.5186C166.36 61.8645 166.504 62.1037 166.568 62.2336H166.598C166.547 61.9258 166.522 61.4015 166.522 60.6608V53.1299H167.774V63.8218Z" fill="white"/>
<path d="M171.82 63.8218H170.571V53.1299H171.82V63.8218Z" fill="white"/>
<path d="M186.45 63.8218H184.961L183.174 60.8237C183.011 60.5464 182.854 60.3094 182.699 60.1109C182.544 59.915 182.386 59.7547 182.226 59.6325C182.064 59.5078 181.891 59.4161 181.706 59.3603C181.52 59.3016 181.31 59.2737 181.076 59.2737H180.05V63.8218H178.801V53.1299H181.985C182.45 53.1299 182.882 53.1886 183.275 53.3056C183.669 53.4226 184.012 53.5983 184.301 53.8375C184.593 54.0767 184.819 54.3746 184.982 54.7283C185.147 55.0845 185.228 55.4994 185.228 55.9778C185.228 56.3495 185.172 56.6932 185.061 57.0036C184.949 57.314 184.792 57.5913 184.586 57.8331C184.38 58.0774 184.131 58.2862 183.842 58.4567C183.549 58.6273 183.224 58.7623 182.861 58.8563V58.8845C183.042 58.9659 183.197 59.0547 183.329 59.1567C183.458 59.2609 183.585 59.3805 183.702 59.5206C183.821 59.6582 183.941 59.816 184.058 59.9939C184.174 60.1696 184.304 60.3732 184.446 60.6073L186.45 63.8218ZM180.05 54.2624V58.1412H181.747C182.059 58.1412 182.348 58.0928 182.612 57.9985C182.879 57.9046 183.108 57.7696 183.301 57.5913C183.494 57.4159 183.646 57.1995 183.755 56.9423C183.865 56.6881 183.918 56.4005 183.918 56.0824C183.918 55.5097 183.735 55.0643 183.364 54.7437C182.996 54.4227 182.46 54.2624 181.762 54.2624H180.05Z" fill="white"/>
<path d="M189.166 63.8218H187.917V53.1299H189.166V63.8218Z" fill="white"/>
<path d="M199.902 53.1299L195.95 63.8218H194.574L190.706 53.1299H192.097L195.051 61.6077C195.145 61.8799 195.216 62.1955 195.267 62.5543H195.295C195.335 62.2567 195.417 61.9357 195.541 61.5923L198.556 53.1299H199.902Z" fill="white"/>
<path d="M205.362 64.0003C203.849 64.0003 202.638 63.5014 201.728 62.5013C200.819 61.5035 200.362 60.2029 200.362 58.6023C200.362 56.8817 200.827 55.51 201.754 54.4869C202.681 53.4637 203.945 52.9497 205.543 52.9497C207.016 52.9497 208.202 53.4483 209.101 54.441C210.002 55.436 210.452 56.7365 210.452 58.3426C210.452 60.0859 209.989 61.4653 209.068 62.4808C208.146 63.4937 206.912 64.0003 205.362 64.0003ZM205.451 54.0848C204.332 54.0848 203.422 54.4894 202.722 55.2987C202.023 56.1106 201.672 57.1745 201.672 58.4901C201.672 59.8085 202.013 60.8673 202.696 61.6715C203.377 62.4731 204.268 62.8752 205.362 62.8752C206.533 62.8752 207.455 62.4936 208.131 61.7276C208.806 60.9613 209.141 59.89 209.141 58.5132C209.141 57.1007 208.816 56.0112 208.161 55.2401C207.506 54.4689 206.602 54.0848 205.451 54.0848Z" fill="white"/>
<path d="M215.206 59.9887C215.206 61.2562 214.939 62.2412 214.403 62.9463C213.867 63.6485 213.149 64 212.252 64C211.836 64 211.493 63.9413 211.226 63.8217V62.5847C211.493 62.7783 211.841 62.8748 212.267 62.8748C213.392 62.8748 213.956 61.918 213.956 60.0041V53.1299H215.206V59.9887Z" fill="white"/>
<path d="M223.448 63.8218H217.914V53.1299H219.164V62.6892H223.448V63.8218Z" fill="white"/>
<path d="M233.791 63.8218H232.407L231.277 60.8237H226.752L225.688 63.8218H224.299L228.39 53.1299H229.685L233.791 63.8218ZM230.866 59.6989L229.192 55.1432C229.139 54.9928 229.083 54.7536 229.03 54.4278H228.999C228.951 54.7309 228.893 54.9675 228.829 55.1432L227.168 59.6989H230.866Z" fill="white"/>
<path d="M243.962 63.8218H242.429L236.938 55.2984C236.799 55.0845 236.684 54.8607 236.595 54.6289H236.552C236.59 54.8582 236.611 55.3468 236.611 56.0974V63.8218H235.361V53.1299H236.984L242.325 61.5186C242.548 61.8645 242.693 62.1037 242.756 62.2336H242.787C242.736 61.9258 242.71 61.4015 242.71 60.6608V53.1299H243.962V63.8218Z" fill="white"/>
<path d="M253.067 54.2624H249.986V63.8218H248.737V54.2624H245.664V53.1299H253.067V54.2624Z" fill="white"/>
<path d="M255.992 63.8218H254.742V53.1299H255.992V63.8218Z" fill="white"/>
<path d="M266.447 63.8218H264.959L263.171 60.8237C263.009 60.5464 262.851 60.3094 262.696 60.1109C262.541 59.915 262.384 59.7547 262.224 59.6325C262.061 59.5078 261.889 59.4161 261.703 59.3603C261.518 59.3016 261.307 59.2737 261.073 59.2737H260.048V63.8218H258.798V53.1299H261.983C262.447 53.1299 262.879 53.1886 263.273 53.3056C263.666 53.4226 264.009 53.5983 264.299 53.8375C264.591 54.0767 264.817 54.3746 264.979 54.7283C265.144 55.0845 265.226 55.4994 265.226 55.9778C265.226 56.3495 265.17 56.6932 265.058 57.0036C264.946 57.314 264.789 57.5913 264.583 57.8331C264.377 58.0774 264.128 58.2862 263.839 58.4567C263.547 58.6273 263.222 58.7623 262.859 58.8563V58.8845C263.039 58.9659 263.194 59.0547 263.326 59.1567C263.456 59.2609 263.582 59.3805 263.699 59.5206C263.819 59.6582 263.938 59.816 264.055 59.9939C264.172 60.1696 264.301 60.3732 264.443 60.6073L266.447 63.8218ZM260.048 54.2624V58.1412H261.744C262.056 58.1412 262.346 58.0928 262.61 57.9985C262.877 57.9046 263.105 57.7696 263.298 57.5913C263.491 57.4159 263.643 57.1995 263.753 56.9423C263.862 56.6881 263.915 56.4005 263.915 56.0824C263.915 55.5097 263.732 55.0643 263.362 54.7437C262.993 54.4227 262.457 54.2624 261.759 54.2624H260.048Z" fill="white"/>
<path d="M269.162 63.8218H267.913V53.1299H269.162V63.8218Z" fill="white"/>
<path d="M271.469 63.3895V61.9132C271.639 62.0633 271.842 62.1957 272.075 62.3153C272.312 62.4349 272.56 62.5369 272.819 62.6183C273.081 62.6998 273.343 62.7633 273.604 62.8091C273.868 62.8524 274.112 62.8752 274.333 62.8752C275.102 62.8752 275.676 62.7328 276.057 62.4452C276.436 62.1601 276.626 61.7478 276.626 61.2133C276.626 60.9231 276.563 60.674 276.436 60.4601C276.309 60.2462 276.134 60.0503 275.913 59.8746C275.689 59.6967 275.425 59.5286 275.12 59.3657C274.813 59.2054 274.485 59.0348 274.132 58.8566C273.762 58.6684 273.414 58.475 273.091 58.2813C272.769 58.088 272.489 57.8741 272.251 57.6401C272.012 57.406 271.827 57.1415 271.689 56.8461C271.552 56.5508 271.484 56.2049 271.484 55.8076C271.484 55.3189 271.59 54.8966 271.804 54.5353C272.017 54.1739 272.299 53.8786 272.644 53.6445C272.992 53.4101 273.388 53.2373 273.833 53.1225C274.275 53.0081 274.729 52.9497 275.189 52.9497C276.24 52.9497 277.007 53.077 277.49 53.3313V54.7415C276.86 54.3035 276.05 54.0848 275.064 54.0848C274.79 54.0848 274.519 54.1127 274.244 54.1688C273.972 54.2271 273.729 54.3214 273.515 54.4487C273.302 54.5786 273.129 54.7463 272.995 54.9499C272.86 55.1535 272.794 55.4004 272.794 55.6957C272.794 55.9679 272.845 56.2049 272.946 56.4033C273.048 56.6018 273.198 56.7823 273.396 56.9478C273.594 57.1107 273.838 57.271 274.122 57.4239C274.407 57.5791 274.737 57.7471 275.108 57.9302C275.491 58.121 275.852 58.3195 276.194 58.5282C276.537 58.737 276.837 58.9688 277.093 59.2205C277.353 59.4751 277.556 59.755 277.708 60.0631C277.86 60.371 277.934 60.7246 277.934 61.1216C277.934 61.6487 277.833 62.0963 277.627 62.4606C277.421 62.8271 277.142 63.1246 276.794 63.3513C276.443 63.5803 276.04 63.7457 275.585 63.8474C275.128 63.9493 274.648 64.0003 274.14 64.0003C273.972 64.0003 273.764 63.9875 273.515 63.9596C273.269 63.9314 273.015 63.8932 272.756 63.84C272.499 63.789 272.256 63.7226 272.025 63.6463C271.794 63.57 271.608 63.4834 271.469 63.3895Z" fill="white"/>
<path d="M288.084 63.8218H286.835V58.9454H281.314V63.8218H280.064V53.1299H281.314V57.8206H286.835V53.1299H288.084V63.8218Z" fill="white"/>
<path d="M305.934 63.8218H304.692V56.6499C304.692 56.0824 304.725 55.3901 304.796 54.568H304.766C304.647 55.0515 304.54 55.3949 304.446 55.6037L300.802 63.8218H300.19L296.553 55.6649C296.449 55.4257 296.342 55.0618 296.233 54.568H296.203C296.243 54.9954 296.261 55.6954 296.261 56.6624V63.8218H295.057V53.1299H296.708L299.981 60.5845C300.235 61.1572 300.398 61.5846 300.474 61.8671H300.517C300.73 61.2819 300.903 60.8439 301.03 60.5563L304.372 53.1299H305.934V63.8218Z" fill="white"/>
<path d="M316.999 63.8218H315.615L314.485 60.8237H309.959L308.895 63.8218H307.506L311.597 53.1299H312.892L316.999 63.8218ZM314.073 59.6989L312.4 55.1432C312.346 54.9928 312.291 54.7536 312.237 54.4278H312.207C312.158 54.7309 312.1 54.9675 312.037 55.1432L310.376 59.6989H314.073Z" fill="white"/>
<path d="M326.217 63.8218H324.729L322.941 60.8237C322.779 60.5464 322.621 60.3094 322.466 60.1109C322.311 59.915 322.154 59.7547 321.994 59.6325C321.831 59.5078 321.659 59.4161 321.473 59.3603C321.288 59.3016 321.077 59.2737 320.843 59.2737H319.818V63.8218H318.568V53.1299H321.753C322.217 53.1299 322.649 53.1886 323.043 53.3056C323.436 53.4226 323.779 53.5983 324.069 53.8375C324.361 54.0767 324.587 54.3746 324.749 54.7283C324.914 55.0845 324.996 55.4994 324.996 55.9778C324.996 56.3495 324.94 56.6932 324.828 57.0036C324.716 57.314 324.559 57.5913 324.353 57.8331C324.147 58.0774 323.898 58.2862 323.609 58.4567C323.317 58.6273 322.992 58.7623 322.629 58.8563V58.8845C322.809 58.9659 322.964 59.0547 323.096 59.1567C323.226 59.2609 323.352 59.3805 323.469 59.5206C323.589 59.6582 323.708 59.816 323.825 59.9939C323.942 60.1696 324.071 60.3732 324.213 60.6073L326.217 63.8218ZM319.818 54.2624V58.1412H321.514C321.826 58.1412 322.116 58.0928 322.38 57.9985C322.647 57.9046 322.875 57.7696 323.068 57.5913C323.261 57.4159 323.413 57.1995 323.523 56.9423C323.632 56.6881 323.685 56.4005 323.685 56.0824C323.685 55.5097 323.502 55.0643 323.132 54.7437C322.763 54.4227 322.227 54.2624 321.529 54.2624H319.818Z" fill="white"/>
<path d="M335.108 63.8218H333.366L329.245 58.93C329.092 58.7469 328.996 58.6222 328.963 58.5587H328.932V63.8218H327.683V53.1299H328.932V58.1541H328.963C329.031 58.0444 329.125 57.9248 329.245 57.7901L333.232 53.1299H334.788L330.212 58.2583L335.108 63.8218Z" fill="white"/>
<path d="M344.779 63.8218H343.395L342.265 60.8237H337.739L336.675 63.8218H335.286L339.377 53.1299H340.672L344.779 63.8218ZM341.853 59.6989L340.179 55.1432C340.126 54.9928 340.07 54.7536 340.017 54.4278H339.987C339.938 54.7309 339.88 54.9675 339.816 55.1432L338.155 59.6989H341.853Z" fill="white"/>
<path d="M353.758 53.4278L347.509 62.6892H353.608V63.8218H345.642V63.4707L351.838 54.2624H346.14V53.1299H353.758V53.4278Z" fill="white"/>
<path d="M356.734 63.8218H355.484V53.1299H356.734V63.8218Z" fill="white"/>
<path d="M371.423 63.8218V53.1299H374.369C378.128 53.1299 380.01 54.8659 380.01 58.3423C380.01 59.9913 379.487 61.3175 378.443 62.3202C377.399 63.3203 376.002 63.8218 374.25 63.8218H371.423ZM372.673 54.2624V62.6892H374.265C375.665 62.6892 376.751 62.3125 377.531 61.5619C378.311 60.8109 378.699 59.747 378.699 58.3702C378.699 55.6319 377.247 54.2624 374.339 54.2624H372.673Z" fill="white"/>
<path d="M389.91 59.4975C389.91 62.4984 388.559 64 385.855 64C383.267 64 381.972 62.5568 381.972 59.6681V53.1299H383.221V59.5867C383.221 61.7779 384.146 62.8748 385.99 62.8748C387.77 62.8748 388.661 61.8161 388.661 59.6989V53.1299H389.91V59.4975Z" fill="white"/>
<path d="M400 63.8218H398.258L394.136 58.93C393.984 58.7469 393.888 58.6222 393.855 58.5587H393.824V63.8218H392.574V53.1299H393.824V58.1541H393.855C393.923 58.0444 394.017 57.9248 394.136 57.7901L398.124 53.1299H399.68L395.104 58.2583L400 63.8218Z" fill="white"/>
</svg>
