<svg width="40" height="40" viewBox="0 0 40 40" fill="none" xmlns="http://www.w3.org/2000/svg">
<path fill-rule="evenodd" clip-rule="evenodd" d="M22.1104 17.7268H26.5324H39.7985V22.1584H26.5324V35.4536H30.9544V31.0219V26.5903H35.3766H39.7985V31.0219H35.3766V35.4536H39.7985V39.8854H22.1104V39.8852V35.4536V22.1584V17.7268Z" fill="#0A7F2E"/>
<path fill-rule="evenodd" clip-rule="evenodd" d="M39.7985 0V4.43164L0 4.43164L0 0L39.7985 0Z" fill="#0A7F2E"/>
<path fill-rule="evenodd" clip-rule="evenodd" d="M39.7985 8.86353V13.2952L22.1104 13.2952V8.86353H39.7985ZM17.6881 13.2952V39.8852H13.2661L13.2661 13.2952H8.84407L8.84407 39.8852H4.42204L4.42204 13.2952H0L0 8.86353H4.42204H8.84407H13.2661H17.6881V13.2952Z" fill="#0A7F2E"/>
</svg>
