<svg width="63" height="67" viewBox="0 0 63 67" fill="none" xmlns="http://www.w3.org/2000/svg">
<path d="M4.0055 36.6616C4.54752 36.6616 4.98695 36.2221 4.98695 35.6801V10.7632C4.98695 10.5758 5.13927 10.4233 5.32666 10.4229H5.32692H52.9151H52.9158C53.1033 10.4231 53.2557 10.5757 53.2557 10.7632V22.5942C53.2557 23.1362 53.6952 23.5756 54.2372 23.5756C54.7792 23.5756 55.2186 23.1362 55.2186 22.5942V10.7632C55.2186 9.84442 54.6765 9.0518 53.8964 8.68252V6.53342C53.8964 5.61465 53.3544 4.82217 52.5745 4.45275V2.30339C52.5746 1.03327 51.5414 0 50.2712 0H7.97067C6.70055 0 5.66729 1.03327 5.66729 2.30339V4.45275C4.88736 4.82217 4.34534 5.61465 4.34534 6.53342V8.68291C3.56568 9.05233 3.02393 9.84468 3.02393 10.7632V35.6801C3.02406 36.2221 3.46348 36.6616 4.0055 36.6616ZM6.30837 6.53342C6.30837 6.34563 6.46108 6.19292 6.64886 6.19292H51.5933C51.7811 6.19292 51.9338 6.34563 51.9338 6.53342V8.46006H6.30837V6.53342ZM7.63031 2.30339C7.63031 2.1156 7.78302 1.96289 7.9708 1.96289H50.2714C50.4591 1.96289 50.6119 2.1156 50.6119 2.30339V4.23016H7.63031V2.30339Z" fill="#0A7F2E"/>
<path d="M40.8925 33.041C38.5099 30.6584 35.3423 29.3464 31.9729 29.3464C28.6036 29.3464 25.4359 30.6586 23.0534 33.041C20.671 35.4234 19.3589 38.5911 19.3589 41.9605C19.3589 45.3299 20.671 48.4976 23.0534 50.88C25.4359 53.2624 28.6036 54.5746 31.9729 54.5746C35.3423 54.5746 38.51 53.2624 40.8925 50.88C43.2749 48.4976 44.587 45.3299 44.587 41.9605C44.587 38.5911 43.2749 35.4234 40.8925 33.041ZM39.5044 49.4921C37.4926 51.5038 34.818 52.6118 31.9728 52.6118C29.1277 52.6118 26.453 51.5038 24.4412 49.4921C22.4295 47.4803 21.3215 44.8056 21.3215 41.9605C21.3215 39.1154 22.4295 36.4407 24.4412 34.4289C26.453 32.4172 29.1277 31.3092 31.9728 31.3092C34.818 31.3092 37.4926 32.4172 39.5044 34.4289C41.5161 36.4407 42.6241 39.1154 42.6241 41.9605C42.6241 44.8056 41.5161 47.4803 39.5044 49.4921Z" fill="#0A7F2E"/>
<path d="M62.3335 65.3246L57.862 60.8531V48.8341C57.862 48.292 57.4226 47.8526 56.8806 47.8526H55.2187V27.1742C55.2187 26.6322 54.7792 26.1928 54.2372 26.1928C53.6952 26.1928 53.2558 26.6322 53.2558 27.1742V47.8526H47.7516C49.9776 41.8642 48.6888 34.8548 43.8838 30.0497C38.0584 24.2244 28.9931 23.567 22.4355 28.0756V13.6716C22.4355 13.1296 21.9961 12.6902 21.4541 12.6902H8.23518C7.69316 12.6902 7.25373 13.1296 7.25373 13.6716V30.0631C7.25373 30.6051 7.69316 31.0445 8.23518 31.0445H19.1448C15.1011 35.7897 14.118 42.2654 16.1948 47.8526H4.98699V40.2602C4.98699 39.7181 4.54756 39.2787 4.00554 39.2787C3.46352 39.2787 3.0241 39.7181 3.0241 40.2602V47.8526H1.36088C1.09916 47.8526 0.848299 47.9572 0.663918 48.143C0.479537 48.3288 0.377205 48.5807 0.37943 48.8424L0.525993 66.0269C0.530573 66.5656 0.968559 67 1.50744 67H7.33853C7.88055 67 8.31998 66.5605 8.31998 66.0185C8.31998 65.4765 7.88055 65.0371 7.33853 65.0371H2.48064L2.35083 49.8155H17.0712C17.8395 51.2751 18.8365 52.6448 20.0625 53.871C23.3463 57.1548 27.6597 58.7967 31.9732 58.7967C34.6881 58.7967 37.403 58.1456 39.8611 56.8446L42.6827 59.6662C42.8667 59.8503 43.1164 59.9537 43.3767 59.9537C43.637 59.9537 43.8866 59.8503 44.0706 59.6662L44.4983 59.2384L46.4753 61.2155L46.0476 61.6431C45.6644 62.0264 45.6644 62.6479 46.0476 63.031L48.0536 65.0371H11.9186C11.3766 65.0371 10.9372 65.4765 10.9372 66.0185C10.9372 66.5605 11.3766 67 11.9186 67H50.4227C50.4235 67 50.424 66.9998 50.4249 66.9998C50.6754 66.9993 50.9258 66.9037 51.1169 66.7125C51.5002 66.3292 51.5002 65.7077 51.1169 65.3246L48.1296 62.3373L52.35 58.117L60.9456 66.7126C61.1372 66.9042 61.3884 67.0001 61.6395 67.0001C61.8907 67.0001 62.1419 66.9043 62.3335 66.7126C62.7169 66.3293 62.7169 65.7077 62.3335 65.3246ZM9.21663 14.6531H20.4726V29.0816H9.21663V14.6531ZM21.4504 52.4831C15.6482 46.6809 15.6482 37.2399 21.4504 31.4378C24.3516 28.5367 28.1623 27.0862 31.9731 27.0862C35.7838 27.0862 39.5946 28.5366 42.4957 31.4378C48.2979 37.2399 48.2979 46.6809 42.4957 52.4831C36.6934 58.2851 27.2526 58.2851 21.4504 52.4831ZM41.5864 55.794C42.3944 55.2319 43.1639 54.591 43.8838 53.871C44.6036 53.151 45.2446 52.3817 45.8067 51.5736L47.5972 53.3639L43.3768 57.5842L41.5864 55.794ZM45.8863 57.8507L47.8633 55.8736L49.8403 57.8507L47.8633 59.8277L45.8863 57.8507ZM51.656 56.035L51.2284 56.4626L49.2514 54.4856L49.679 54.0578C49.8631 53.8739 49.9665 53.6242 49.9665 53.3639C49.9665 53.1036 49.8631 52.8539 49.679 52.67L46.8574 49.8484C46.8632 49.8374 46.8693 49.8265 46.8752 49.8155H55.8993V58.8902L53.044 56.035C52.6608 55.6517 52.0393 55.6517 51.656 56.035Z" fill="#0A7F2E"/>
<path d="M50.0067 12.6902H25.9482C25.4062 12.6902 24.9668 13.1296 24.9668 13.6716C24.9668 14.2137 25.4062 14.6531 25.9482 14.6531H50.0067C50.5488 14.6531 50.9882 14.2137 50.9882 13.6716C50.9882 13.1296 50.5488 12.6902 50.0067 12.6902Z" fill="#0A7F2E"/>
<path d="M50.9882 17.9016C50.9882 17.3596 50.5488 16.9202 50.0067 16.9202H25.9482C25.4062 16.9202 24.9668 17.3596 24.9668 17.9016C24.9668 18.4436 25.4062 18.8831 25.9482 18.8831H50.0067C50.5488 18.8831 50.9882 18.4436 50.9882 17.9016Z" fill="#0A7F2E"/>
<path d="M25.9487 21.1504C25.4067 21.1504 24.9673 21.5898 24.9673 22.1318C24.9673 22.6739 25.4067 23.1133 25.9487 23.1133H42.0759C42.6179 23.1133 43.0573 22.6739 43.0573 22.1318C43.0573 21.5898 42.6179 21.1504 42.0759 21.1504H25.9487Z" fill="#0A7F2E"/>
</svg>
