<svg width="370" height="278" viewBox="0 0 370 278" fill="none" xmlns="http://www.w3.org/2000/svg">
<path d="M370 277.278H0V-6.10352e-05H370V277.278Z" fill="white"/>
<path d="M55.7281 269.112C30.5335 241.7 -3.90042 213.397 9.60194 170.644C18.4831 142.522 40.2583 134.684 58.3587 117.344C67.2914 108.786 61.6731 96.3293 61.5073 83.9669C61.1287 52.306 96.4899 27.7379 129 28.2508C164.213 28.8068 179.456 64.1804 208.995 66.077C220.594 66.2544 230.979 59.4528 241.243 54.0501C271.65 38.0415 319.901 48.2495 322.339 86.9657C322.969 107.875 299.153 141.513 323.015 152.51C342.032 161.275 361.245 164.502 364.672 195.85C369.158 236.88 345.443 259.399 314.54 269.958L55.7281 269.112Z" fill="#7FE19D"/>
<path d="M286.763 68.9997H248.529C243.796 68.9997 239.96 72.833 239.96 77.562V95.3716C239.96 100.101 243.796 103.934 248.529 103.934H248.814L245.744 114.206C245.61 114.658 246.132 115.018 246.508 114.733L260.672 103.934H286.763C291.496 103.934 295.332 100.101 295.332 95.3716V77.562C295.332 72.833 291.496 68.9997 286.763 68.9997Z" fill="white"/>
<path d="M286.439 84.0525H247.942C246.033 84.0525 244.486 82.5053 244.486 80.5976V79.7339C244.486 77.8263 246.033 76.2805 247.942 76.2805H286.439C288.348 76.2805 289.895 77.8263 289.895 79.7339V80.5976C289.895 82.5053 288.348 84.0525 286.439 84.0525Z" fill="#E3EAFF"/>
<path d="M267.648 95.8035H249.622C247.474 95.8035 245.732 94.0636 245.732 91.9175C245.732 89.7714 247.474 88.0315 249.622 88.0315H267.648C269.796 88.0315 271.537 89.7714 271.537 91.9175C271.537 94.0636 269.796 95.8035 267.648 95.8035Z" fill="#E3EAFF"/>
<path d="M358.083 206.956H317.871C317.159 206.956 316.583 206.38 316.583 205.669V171.083C316.583 170.372 317.159 169.797 317.871 169.797C318.581 169.797 319.158 170.372 319.158 171.083V204.384H358.083C358.795 204.384 359.371 204.959 359.371 205.669C359.371 206.38 358.795 206.956 358.083 206.956Z" fill="white"/>
<path d="M320.914 198.502C320.592 198.502 320.269 198.381 320.019 198.14C319.508 197.647 319.495 196.833 319.989 196.321L332.986 182.889C333.413 182.446 334.094 182.369 334.612 182.703L340.757 186.686L347.238 179.162C347.702 178.624 348.515 178.563 349.055 179.026C349.593 179.489 349.654 180.302 349.19 180.84L341.975 189.216C341.556 189.704 340.839 189.807 340.299 189.456L334.1 185.438L321.84 198.11C321.587 198.37 321.25 198.502 320.914 198.502Z" fill="white"/>
<path d="M349.219 184.677L347.384 180.964L343.437 179.705L352.225 175.345L349.219 184.677Z" fill="white"/>
<path d="M87.9217 68.1077C84.8094 68.1077 82.2773 70.6365 82.2773 73.7462C82.2773 76.8559 84.8094 79.386 87.9217 79.386C91.0338 79.386 93.5657 76.8559 93.5657 73.7462C93.5657 70.6365 91.0338 68.1077 87.9217 68.1077ZM87.9217 81.5308C83.6264 81.5308 80.1318 78.0384 80.1318 73.7462C80.1318 69.4553 83.6264 65.963 87.9217 65.963C92.2169 65.963 95.7113 69.4553 95.7113 73.7462C95.7113 78.0384 92.2169 81.5308 87.9217 81.5308Z" fill="white"/>
<path d="M325.573 133.647C323.293 133.647 321.44 135.501 321.44 137.779C321.44 140.056 323.293 141.91 325.573 141.91C327.853 141.91 329.708 140.056 329.708 137.779C329.708 135.501 327.853 133.647 325.573 133.647ZM325.573 143.479C322.428 143.479 319.868 140.922 319.868 137.779C319.868 134.634 322.428 132.078 325.573 132.078C328.72 132.078 331.28 134.634 331.28 137.779C331.28 140.922 328.72 143.479 325.573 143.479Z" fill="#7FE19D"/>
<path d="M26.0352 165.904C23.9883 165.904 22.3232 167.568 22.3232 169.613C22.3232 171.659 23.9883 173.323 26.0352 173.323C28.082 173.323 29.7473 171.659 29.7473 169.613C29.7473 167.568 28.082 165.904 26.0352 165.904ZM26.0352 174.733C23.2102 174.733 20.9121 172.435 20.9121 169.613C20.9121 166.792 23.2102 164.495 26.0352 164.495C28.86 164.495 31.1583 166.792 31.1583 169.613C31.1583 172.435 28.86 174.733 26.0352 174.733Z" fill="white"/>
<path d="M300.661 58.8268C300.661 60.3643 299.414 61.6121 297.873 61.6121C296.335 61.6121 295.086 60.3643 295.086 58.8268C295.086 57.2879 296.335 56.0416 297.873 56.0416C299.414 56.0416 300.661 57.2879 300.661 58.8268Z" fill="white"/>
<path d="M56.3581 110.39C56.3581 113.415 53.9045 115.866 50.8778 115.866C47.851 115.866 45.3975 113.415 45.3975 110.39C45.3975 107.366 47.851 104.914 50.8778 104.914C53.9045 104.914 56.3581 107.366 56.3581 110.39Z" fill="#7FE19D"/>
<path d="M317.316 48.0288C317.316 50.3025 315.472 52.1464 313.196 52.1464C310.921 52.1464 309.077 50.3025 309.077 48.0288C309.077 45.7565 310.921 43.9126 313.196 43.9126C315.472 43.9126 317.316 45.7565 317.316 48.0288Z" fill="#7FE19D"/>
<path d="M337.477 146.88C337.477 148.821 335.902 150.394 333.961 150.394C332.019 150.394 330.444 148.821 330.444 146.88C330.444 144.939 332.019 143.367 333.961 143.367C335.902 143.367 337.477 144.939 337.477 146.88Z" fill="#7FE19D"/>
<path d="M307.035 69.3165C307.035 71.7358 305.072 73.6975 302.651 73.6975C300.229 73.6975 298.267 71.7358 298.267 69.3165C298.267 66.8973 300.229 64.9356 302.651 64.9356C305.072 64.9356 307.035 66.8973 307.035 69.3165Z" fill="white"/>
<path d="M105.386 61.3601C105.386 63.814 103.395 65.8035 100.938 65.8035C98.4823 65.8035 96.4912 63.814 96.4912 61.3601C96.4912 58.9062 98.4823 56.9168 100.938 56.9168C103.395 56.9168 105.386 58.9062 105.386 61.3601Z" fill="white"/>
<path d="M315.705 271.512H52.4609C51.602 271.512 50.9058 270.816 50.9058 269.957C50.9058 269.099 51.602 268.403 52.4609 268.403H315.705C316.564 268.403 317.261 269.099 317.261 269.957C317.261 270.816 316.564 271.512 315.705 271.512Z" fill="#201D40"/>
<path d="M139.539 135.444H139.543L143.583 135.459L144.499 144.995L139.781 147.483L134.752 145.022L135.565 135.459L139.539 135.444Z" fill="#F37A50"/>
<path d="M128.439 131.234C130.926 137.443 136.898 140.895 141.779 138.943C146.659 136.991 148.6 130.375 146.114 124.167C143.626 117.958 137.654 114.505 132.773 116.457C127.892 118.409 125.952 125.025 128.439 131.234Z" fill="#F37A50"/>
<path d="M143.991 126.204C144.279 126.619 144.848 126.721 145.263 126.433C145.678 126.145 145.78 125.576 145.492 125.162C145.203 124.747 144.633 124.646 144.219 124.933C143.805 125.221 143.702 125.791 143.991 126.204Z" fill="black"/>
<path d="M137.142 128.998C137.454 129.446 138.071 129.557 138.52 129.245C138.969 128.933 139.08 128.318 138.768 127.868C138.455 127.421 137.838 127.31 137.389 127.622C136.941 127.934 136.83 128.55 137.142 128.998Z" fill="black"/>
<path d="M142.602 127.663C143.838 128.638 145.384 129.812 145.384 129.812C145.384 129.812 145.399 131.301 143.658 131.946C144.289 131.375 144.841 130.615 144.186 129.737C143.53 128.861 142.602 127.663 142.602 127.663Z" fill="#DE623C"/>
<path d="M135.341 128.403C135.305 128.403 135.27 128.398 135.234 128.39C134.989 128.332 134.838 128.085 134.896 127.841C135.056 127.172 135.726 125.906 137.117 125.899C137.371 125.902 137.574 126.101 137.575 126.354C137.576 126.604 137.373 126.81 137.121 126.811C136.091 126.817 135.787 128.039 135.784 128.052C135.734 128.261 135.547 128.403 135.341 128.403Z" fill="#201D40"/>
<path d="M143.034 124.273C142.969 124.273 142.902 124.257 142.842 124.221C142.661 124.115 142.6 123.882 142.706 123.701C142.723 123.673 143.123 123.005 143.878 122.865C144.394 122.769 144.927 122.938 145.462 123.367C145.626 123.497 145.652 123.737 145.522 123.9C145.39 124.064 145.151 124.09 144.988 123.96C144.631 123.676 144.305 123.558 144.016 123.612C143.606 123.688 143.364 124.082 143.361 124.085C143.291 124.205 143.164 124.273 143.034 124.273Z" fill="#201D40"/>
<path d="M125.042 126.596C122.939 120.613 128.062 117.173 128.062 117.173C128.062 117.173 126.688 117.05 126.523 115.121C127.552 115.441 128.706 115.419 129.719 115.052C136.549 112.581 141.251 112.615 141.251 115.534C141.251 116.574 145.762 115.861 145.383 122.853C145.41 122.359 143.799 119.485 142.275 119.198C140.746 118.911 142.127 120.945 138.945 121.382C135.733 121.823 133.372 121.044 131.41 122.853C129.875 124.431 129.495 132.463 129.728 132.946C129.193 131.838 125.966 129.226 125.042 126.596Z" fill="#201D40"/>
<path d="M147.053 127.663C147.053 127.663 147.344 131.307 146.818 132.434C146.27 130.973 145.097 132.521 143.994 132.667C141.327 133.019 136.516 132.132 136.039 136.127C132.781 137.157 129.729 130.188 129.729 130.188C129.541 137.974 135.244 142.395 143.45 141.1C148.855 140.247 149.358 132.725 147.053 127.663Z" fill="#201D40"/>
<path d="M141.434 135.128C140.907 135.002 140.357 134.787 139.787 134.483C139.64 134.404 139.583 134.22 139.662 134.072C139.741 133.923 139.926 133.868 140.074 133.947C141.337 134.621 142.468 134.813 143.438 134.517C144.636 134.152 145.184 133.143 145.189 133.133C145.268 132.985 145.451 132.928 145.599 133.005C145.748 133.084 145.806 133.266 145.728 133.414C145.702 133.466 145.068 134.651 143.626 135.095C142.949 135.304 142.217 135.314 141.434 135.128Z" fill="#DE623C"/>
<path d="M129.652 130.238C131.024 131.009 131.626 132.542 130.995 133.665C130.364 134.787 128.74 135.072 127.368 134.302C125.995 133.532 125.394 131.997 126.025 130.876C126.656 129.753 128.28 129.469 129.652 130.238Z" fill="#F37A50"/>
<path d="M129.442 133.6C129.484 133.57 129.52 133.531 129.547 133.483C129.924 132.784 129.862 132.073 129.381 131.579C128.889 131.075 128.095 130.929 127.492 131.234C127.322 131.32 127.255 131.526 127.34 131.696C127.426 131.865 127.633 131.933 127.803 131.847C128.133 131.68 128.61 131.773 128.888 132.059C129.156 132.333 129.175 132.723 128.941 133.155C128.851 133.322 128.913 133.531 129.08 133.621C129.199 133.685 129.338 133.672 129.442 133.6Z" fill="#DE623C"/>
<path d="M144.214 262.792C145.073 260.459 146.912 260.2 146.912 260.2C150.484 265.126 159.258 262.103 158.968 268.765C145.625 268.679 140.08 268.765 140.08 268.765C140.098 267.235 140.361 263.603 140.669 262.181L141.364 262.308L144.214 262.792Z" fill="black"/>
<path d="M124.252 262.921C125.112 260.588 126.949 260.329 126.949 260.329C130.522 265.255 139.296 262.232 139.006 268.894C125.663 268.808 120.118 268.894 120.118 268.894C120.136 267.363 120.4 263.732 120.707 262.31L121.403 262.438L124.252 262.921Z" fill="black"/>
<path d="M153.088 185.004C153.088 185.004 155.256 216.573 154.375 223.591C153.495 230.61 150.379 239.608 150.732 262.823C146.383 263.91 140.08 262.823 140.08 262.823C140.08 262.823 139.147 236.573 143.745 224.849C141.875 213.459 135.875 187.375 135.875 187.375L153.088 185.004Z" fill="#201D40"/>
<path d="M144.857 185.867C144.857 185.867 140.483 221.307 138.342 228.03C136.201 234.753 132.025 240.437 128.149 263.306C123.679 263.529 119.517 263.306 119.517 263.306C119.517 263.306 120.12 234.297 127.081 227.7C127.317 216.151 125.956 186.094 125.956 186.094L144.857 185.867Z" fill="#2C2858"/>
<path d="M124.693 145.644C124.693 145.644 132.29 142.987 134.823 144.205C142.694 147.991 144.501 144.205 144.501 144.205C147.016 144.422 154.609 145.644 154.609 145.644C154.609 154.116 155.175 162.619 155.021 169.031C154.913 174.615 155.977 189.81 155.977 189.81C155.977 189.81 147.602 192.004 139.678 192.061C131.754 192.01 123.69 189.898 123.69 189.898C123.69 189.898 124.113 174.508 124.465 168.788C124.351 162.376 124.693 154.094 124.693 145.644Z" fill="#E62552"/>
<path d="M168.113 158.237C164.978 150.761 155.673 146.006 154.609 145.644L152.451 155.241C156.922 157.882 160.166 160.739 160.166 160.739C159.616 163.412 159.708 166.032 158.159 169.412C158.159 169.412 159.504 167.559 161.163 168.655C162.776 169.721 165.741 167.545 165.741 167.545C165.741 167.545 170.51 163.947 168.113 158.237Z" fill="#C4204A"/>
<path d="M166.366 177.129C166.42 177.145 166.474 177.155 166.528 177.161H166.707C167.034 177.126 167.324 176.903 167.428 176.57L175.788 149.639C175.805 149.585 175.816 149.531 175.821 149.476C175.825 149.44 175.823 149.405 175.823 149.37C175.821 149.348 175.824 149.327 175.823 149.305C175.82 149.287 175.814 149.269 175.812 149.251C175.762 148.945 175.547 148.677 175.23 148.579C175.179 148.562 175.126 148.549 175.071 148.544C175.01 148.537 174.949 148.538 174.89 148.544H153.845L145.413 177.161H166.379L166.366 177.129Z" fill="#95A6DB"/>
<path d="M154.037 148.578C153.59 148.439 153.114 148.689 152.974 149.136L144.667 175.999L144.649 176.063C144.51 176.508 144.76 176.981 145.204 177.121L145.206 177.124C145.654 177.262 146.128 177.013 146.268 176.565L154.596 149.64C154.736 149.192 154.485 148.716 154.037 148.578Z" fill="#768FDB"/>
<path d="M169.936 165.663C170.015 165.61 170.101 165.578 170.188 165.553C170.179 165.54 170.169 165.527 170.161 165.515C169.636 164.726 169.672 163.782 170.238 163.406C170.331 163.345 170.434 163.305 170.541 163.28C170.394 162.696 170.526 162.139 170.929 161.87C171.09 161.764 171.278 161.717 171.473 161.719C171.289 161.145 171.436 160.542 171.888 160.242C172.454 159.868 173.277 160.109 173.724 160.783C174.171 161.457 174.074 162.306 173.506 162.681C173.363 162.776 173.204 162.832 173.037 162.85C173.415 163.585 173.338 164.389 172.826 164.727C172.733 164.79 172.631 164.83 172.524 164.855C172.671 165.438 172.539 165.996 172.134 166.265C171.985 166.363 171.813 166.412 171.633 166.416C171.82 166.918 171.701 167.46 171.303 167.723C170.824 168.039 170.13 167.835 169.753 167.266C169.375 166.697 169.457 165.979 169.936 165.663Z" fill="#F37A50"/>
<path d="M144.065 163.961L145.982 162.851C145.982 162.851 146.514 160.132 149.594 160.067C149.242 161.208 148.734 162.851 148.734 162.851C148.734 162.851 150.25 164.026 153.845 162.013C157.361 161.224 155.86 163.785 157.025 163.969C158.744 164.241 155.771 167.617 152.262 168.133C147.72 168.801 147.181 167.872 147.181 167.872L144.61 168.769L144.065 163.961Z" fill="#F37A50"/>
<path d="M126.311 166.866C132.723 166.418 143.661 163.254 143.661 163.254C145.412 165.937 144.928 169.5 144.928 169.5C134.97 178.223 119.984 181.043 115.386 178.943C111.188 177.027 114.152 151.492 124.691 145.644C128.305 151.753 126.311 166.866 126.311 166.866Z" fill="#8A284C"/>
<path d="M229.651 260.425C226.078 265.185 217.304 262.264 217.595 268.704C230.937 268.622 236.482 268.704 236.482 268.704C236.464 267.225 236.2 263.715 235.894 262.339L229.651 260.425Z" fill="black"/>
<path d="M249.614 260.55C246.042 265.311 237.268 262.39 237.558 268.829C250.901 268.747 256.447 268.829 256.447 268.829C256.429 267.35 256.165 263.84 255.857 262.464L249.614 260.55Z" fill="black"/>
<path d="M223.475 187.728C223.475 187.728 221.309 218.248 222.189 225.033C223.07 231.818 226.185 240.516 225.832 262.959C230.182 264.011 236.483 262.959 236.483 262.959C236.483 262.959 237.418 237.582 232.82 226.249C234.689 215.238 240.689 190.021 240.689 190.021L223.475 187.728Z" fill="#201D40"/>
<path d="M231.708 188.563C231.708 188.563 236.082 222.826 238.223 229.324C240.365 235.823 244.54 241.319 248.417 263.426C252.886 263.643 258.212 262.543 258.212 262.543C258.212 262.543 256.446 235.384 249.483 229.005C249.249 217.841 250.61 188.783 250.61 188.783L231.708 188.563Z" fill="#2C2858"/>
<path d="M249.521 132.508C247.149 138.428 241.457 141.718 236.803 139.857C232.15 137.997 230.3 131.69 232.672 125.77C235.041 119.85 240.735 116.559 245.389 118.419C250.042 120.281 251.892 126.588 249.521 132.508Z" fill="#F37A50"/>
<path d="M234.696 127.713C234.422 128.108 233.878 128.205 233.482 127.93C233.088 127.656 232.99 127.114 233.266 126.719C233.54 126.324 234.083 126.227 234.478 126.501C234.874 126.776 234.971 127.318 234.696 127.713Z" fill="black"/>
<path d="M241.224 130.376C240.927 130.803 240.339 130.908 239.912 130.612C239.483 130.314 239.378 129.726 239.676 129.299C239.973 128.872 240.561 128.766 240.988 129.063C241.417 129.361 241.523 129.948 241.224 130.376Z" fill="black"/>
<path d="M236.019 129.103C234.841 130.03 233.367 131.151 233.367 131.151C233.367 131.151 233.352 132.57 235.011 133.186C234.411 132.641 233.883 131.917 234.509 131.08C235.134 130.244 236.019 129.103 236.019 129.103Z" fill="#DE623C"/>
<path d="M242.943 129.809C242.745 129.809 242.568 129.674 242.519 129.475C242.508 129.428 242.217 128.296 241.245 128.291C241.004 128.29 240.811 128.094 240.813 127.854C240.813 127.614 241.011 127.42 241.25 127.422C242.576 127.429 243.215 128.636 243.366 129.272C243.421 129.507 243.278 129.741 243.044 129.796C243.011 129.805 242.976 129.809 242.943 129.809Z" fill="black"/>
<path d="M235.609 125.87C235.485 125.87 235.365 125.808 235.297 125.694C235.29 125.683 235.055 125.309 234.667 125.239C234.394 125.191 234.083 125.303 233.747 125.572C233.59 125.697 233.363 125.672 233.238 125.515C233.112 125.359 233.138 125.131 233.293 125.006C233.804 124.597 234.313 124.437 234.804 124.528C235.524 124.661 235.904 125.298 235.921 125.325C236.022 125.499 235.964 125.719 235.792 125.82C235.734 125.855 235.671 125.87 235.609 125.87Z" fill="black"/>
<path d="M247.868 133.125C246.153 127.618 248.321 124.691 248.321 124.691C246.849 124.396 246.278 124.905 246.278 124.905C245.474 123.258 246.096 122.076 246.096 122.076C243.053 120.892 241.538 122.86 238.794 123.524C235.035 124.432 230.391 122.933 229.957 118.348C229.893 117.684 230.624 117.254 231.179 117.626C231.692 117.97 232.376 118.249 233.225 118.224C233.225 118.224 232.439 117.336 232.399 116.108C232.376 115.431 233.17 115.065 233.692 115.499C234.473 116.148 235.923 116.762 238.508 116.278C240.228 115.957 244.167 113.203 246.62 113.741C248.627 114.181 250.218 115.886 250.904 118.328C250.904 118.328 255.833 118.838 256.327 124.26C256.813 129.587 250.639 133.674 250.639 133.674L247.868 133.125Z" fill="black"/>
<path d="M247.197 132.208C245.891 132.947 245.324 134.412 245.929 135.48C246.534 136.546 248.084 136.812 249.389 136.073C250.695 135.334 251.263 133.87 250.656 132.803C250.051 131.734 248.503 131.468 247.197 132.208Z" fill="#F37A50"/>
<path d="M247.408 135.411C247.368 135.382 247.333 135.344 247.307 135.298C246.945 134.634 247.002 133.957 247.458 133.484C247.926 133.001 248.683 132.859 249.257 133.147C249.42 133.229 249.485 133.426 249.404 133.588C249.323 133.749 249.126 133.815 248.963 133.733C248.648 133.575 248.195 133.665 247.93 133.94C247.676 134.202 247.659 134.573 247.884 134.985C247.97 135.143 247.912 135.343 247.752 135.43C247.64 135.491 247.507 135.479 247.408 135.411Z" fill="#DE623C"/>
<path d="M233.637 135.078C233.509 134.869 233.691 134.61 233.931 134.661C234.54 134.789 235.549 134.98 236.52 135.066C237.491 135.153 238.518 135.144 239.141 135.126C239.385 135.117 239.518 135.406 239.356 135.589C238.855 136.15 237.85 136.982 236.36 136.849C234.872 136.716 234.029 135.72 233.637 135.078Z" fill="white"/>
<path d="M227.376 142.834C227.376 142.834 227.598 142.232 208.397 142.386L203.249 148.466C208.577 152.734 226.421 153.493 226.421 153.493L227.376 142.834Z" fill="#201D40"/>
<path d="M234.352 142.341L240.408 141.776L246.268 143.409L239.666 150.196L234.352 142.341Z" fill="#95A6DB"/>
<path d="M236.453 145.456C238.92 147.48 239.425 148.879 244.667 146.173L245.454 138.119L236.919 137.446L236.453 145.456Z" fill="#F37A50"/>
<path d="M247.821 146.65L246.027 145.941L246.267 143.408L241.288 147.402L239.883 147.626L238.538 147.156L234.351 142.341L234.137 144.875L232.552 145.192L226.843 146.117L226.163 177.788L223.91 188.563C231.487 191.082 239.962 191.71 248.292 190.563L248.012 179.745L253.93 148.793L247.821 146.65Z" fill="#95A6DB"/>
<path d="M238.788 150.825L235.21 175.006L237.191 177.756L239.773 175.774L240.653 151.026L238.788 150.825Z" fill="#2C2858"/>
<path d="M238.574 147.97L239.883 147.625L241.214 148.206L240.65 151.075L238.775 150.905L238.574 147.97Z" fill="#2C2858"/>
<path d="M234.268 142.543L233.372 171.753L229.502 190.564C229.502 190.564 223.383 189.947 219.623 186.371L224.441 172.212L226.088 142.621L234.268 142.543Z" fill="#2C2858"/>
<path d="M234.267 142.543L233.376 171.362L228.921 149.275L234.267 142.543Z" fill="#494C7F"/>
<path d="M246.724 144.412L238.778 191.767C238.778 191.767 249.321 193.062 253.657 190.213L251.304 174.645L254.18 148.216L246.724 144.412Z" fill="#2C2858"/>
<path d="M246.725 144.412L242.081 172.167L250.396 151.226L246.725 144.412Z" fill="#494C7F"/>
<path d="M194.218 116.562C194.641 118.039 194.768 119.633 196.643 120.429C196.643 120.429 196.366 125.332 196.573 129.354C196.573 129.354 201.112 124.24 201.111 124.237C200.85 122.615 200.641 119.55 200.89 117.809C200.956 117.357 201.044 116.907 201.115 116.454C201.309 115.355 201.634 114.229 200.962 112.902C198.374 107.775 199.245 106.088 198.888 105.838C198.308 105.582 196.944 106.615 197.716 109.134C198.461 111.571 198.278 112.768 198.278 112.768C198.278 112.768 196.32 112.399 195.625 113.084C195.31 113.394 193.724 114.835 194.218 116.562Z" fill="#F37A50"/>
<path d="M195.271 123.473C197.915 122.592 199.308 122.195 201.364 122.195C206.227 136.676 209.695 142.133 208.249 146.29C207.043 149.756 203.229 149.479 201.364 146.882C198.904 143.455 196.727 130.44 195.271 123.473Z" fill="#201D40"/>
<path d="M254.182 148.216L269.504 172.167L287.701 182.433L282.093 188.013L263.836 180.017L251.306 162.353L254.182 148.216Z" fill="#201D40"/>
<path d="M239.884 147.626C239.884 147.626 237.63 149.901 235.558 150.482L233.14 144.075L234.352 142.341L239.884 147.626Z" fill="white"/>
<path d="M239.884 147.625C239.884 147.625 241.167 149.831 243.633 151.205L247.152 145.329L246.268 143.408L239.884 147.625Z" fill="white"/>
<path d="M256.559 215.811H122.779C119.635 215.811 117.086 214.097 117.086 211.983C117.086 209.869 119.635 208.155 122.779 208.155H256.559C259.703 208.155 262.252 209.869 262.252 211.983C262.252 214.097 259.703 215.811 256.559 215.811Z" fill="white"/>
<path d="M172.919 269.751C171.485 269.751 170.623 268.161 171.407 266.962L206.73 212.874L209.753 214.846L174.43 268.933C174.097 269.443 173.528 269.751 172.919 269.751Z" fill="white"/>
<path d="M206.42 269.751C207.854 269.751 208.716 268.161 207.932 266.962L172.609 212.874L169.585 214.846L204.909 268.933C205.242 269.443 205.811 269.751 206.42 269.751Z" fill="white"/>
<path d="M261.885 268.894C260.93 268.894 260.156 268.12 260.156 267.166V236.551H263.614V267.166C263.614 268.12 262.84 268.894 261.885 268.894Z" fill="white"/>
<path d="M274.02 268.894C273.064 268.894 272.29 268.12 272.29 267.166V236.551H275.748V267.166C275.748 268.12 274.974 268.894 274.02 268.894Z" fill="white"/>
<path d="M289.942 268.894C288.987 268.894 288.213 268.12 288.213 267.166V236.551H291.672V267.166C291.672 268.12 290.898 268.894 289.942 268.894Z" fill="white"/>
<path d="M302.076 268.894C301.121 268.894 300.347 268.12 300.347 267.166V236.551H303.805V267.166C303.805 268.12 303.031 268.894 302.076 268.894Z" fill="white"/>
<path d="M282.943 191.115V227.547C282.943 227.962 282.606 228.297 282.191 228.297H259.585C257.304 228.297 255.456 230.146 255.456 232.425C255.456 234.704 257.304 236.551 259.585 236.551H282.943H287.073C289.354 236.551 291.203 234.704 291.203 232.425V228.297V191.115C291.203 188.837 289.354 186.989 287.073 186.989C284.792 186.989 282.943 188.837 282.943 191.115Z" fill="#F3F3F3"/>
<path d="M304.945 228.968H287.071V186.989H304.945V228.968Z" fill="#F3F3F3"/>
<path d="M300.816 191.115V227.547C300.816 227.962 300.479 228.297 300.064 228.297H277.457C275.176 228.297 273.328 230.146 273.328 232.425C273.328 234.704 275.176 236.551 277.457 236.551H300.816H304.945C307.226 236.551 309.076 234.704 309.076 232.425V228.297V191.115C309.076 188.837 307.226 186.989 304.945 186.989C302.664 186.989 300.816 188.837 300.816 191.115Z" fill="white"/>
<path d="M115.762 268.894C116.717 268.894 117.492 268.12 117.492 267.166V236.551H114.033V267.166C114.033 268.12 114.808 268.894 115.762 268.894Z" fill="white"/>
<path d="M103.626 268.894C104.581 268.894 105.355 268.12 105.355 267.166V236.551H101.896V267.166C101.896 268.12 102.671 268.894 103.626 268.894Z" fill="white"/>
<path d="M87.7037 268.894C88.6589 268.894 89.4331 268.12 89.4331 267.166V236.551H85.9746V267.166C85.9746 268.12 86.7488 268.894 87.7037 268.894Z" fill="white"/>
<path d="M75.5701 268.894C76.5253 268.894 77.2996 268.12 77.2996 267.166V236.551H73.8408V267.166C73.8408 268.12 74.6151 268.894 75.5701 268.894Z" fill="white"/>
<path d="M94.7037 191.115V227.547C94.7037 227.962 95.04 228.297 95.4549 228.297H118.062C120.342 228.297 122.191 230.146 122.191 232.425C122.191 234.704 120.342 236.551 118.062 236.551H94.7037H90.5738C88.293 236.551 86.4438 234.704 86.4438 232.425V228.297V191.115C86.4438 188.837 88.293 186.989 90.5738 186.989C92.8547 186.989 94.7037 188.837 94.7037 191.115Z" fill="#95A6DB"/>
<path d="M72.7012 228.968H90.5747V186.989H72.7012V228.968Z" fill="#95A6DB"/>
<path d="M76.8304 191.115V227.547C76.8304 227.962 77.1667 228.297 77.5817 228.297H100.188C102.469 228.297 104.318 230.146 104.318 232.425C104.318 234.704 102.469 236.551 100.188 236.551H76.8304H72.7007C70.4198 236.551 68.5708 234.704 68.5708 232.425V228.297V191.115C68.5708 188.837 70.4198 186.989 72.7007 186.989C74.9814 186.989 76.8304 188.837 76.8304 191.115Z" fill="white"/>
<path d="M273.745 177.193C269.931 175.818 264.038 172.812 267.954 167.319C271.871 161.825 271.77 164.223 270.361 157.551C268.952 150.878 273.7 145.629 278.226 146.958C282.753 148.287 283.907 151.947 289.456 151.019C295.005 150.093 299.617 155.278 297.528 159.776C295.44 164.272 294.548 166.437 296.5 168.926C298.454 171.415 307.253 174.096 303.583 180.059C299.912 186.022 298.231 185.656 299.506 188.711C300.781 191.768 297.839 195.248 292.739 194.773C287.637 194.298 283.019 192.37 281.148 186.679C279.277 180.988 273.745 177.193 273.745 177.193Z" fill="#2C2858"/>
<path d="M260.248 263.864L257.235 264.764L254.965 262.444C255.074 262.284 254.969 260.731 254.619 259.076L260.248 258.143C260.473 259.856 260.248 262.133 260.248 263.864Z" fill="#F37A50"/>
<path d="M257.256 264.222C256.54 262.342 255.008 262.132 255.008 262.132C252.031 266.1 244.719 263.666 244.961 269.034C256.08 268.965 260.701 269.034 260.701 269.034C260.686 267.8 260.467 264.875 260.21 263.73L259.632 263.832L257.256 264.222Z" fill="#E62552"/>
<path d="M240.203 264.424L237.066 264.639L235.261 262.717C235.402 262.584 235.744 260.207 235.766 258.515L241.055 258.75C240.897 260.471 240.585 262.734 240.203 264.424Z" fill="#F37A50"/>
<path d="M237.406 264.222C236.69 262.342 235.158 262.132 235.158 262.132C232.181 266.1 224.868 263.666 225.11 269.034C236.229 268.965 240.851 269.034 240.851 269.034C240.836 267.8 240.617 264.875 240.36 263.73L239.781 263.832L237.406 264.222Z" fill="#E62552"/>
<path d="M271.94 211.992C263.373 213.144 239.239 222.079 237.894 223.697C235.116 227.037 236.58 245.207 235.261 260.2L242.276 260.615C245.635 248.404 245.367 243.134 246.887 229.129C246.887 229.129 274.46 231.192 284.422 224.472C294.694 217.544 278.868 210.35 271.94 211.992Z" fill="#0E6A41"/>
<path d="M260.775 194.19C262.8 194.535 263.58 196.159 264.068 199.148C256.355 203.688 244.896 204.011 244.896 204.011L241.244 202.206C241.244 202.206 250.432 198.899 260.775 194.19Z" fill="#DE623C"/>
<path d="M281.866 185.647C278.49 190.548 265.561 201.087 263.42 201.419L260.827 194.168C260.827 194.168 273.451 180.514 275.75 178.101C279.72 173.913 287.392 177.656 281.866 185.647Z" fill="#DE623C"/>
<path d="M267.645 184.863C270.352 181.949 273.877 175.372 278.464 175.839C283.052 176.306 283.383 181.171 282 183.79C280.618 186.409 275.843 192.864 275.843 192.864L267.645 184.863Z" fill="#FF4F78"/>
<path d="M268.477 197.191C270.421 197.861 271.531 203.98 270.986 204.449C262.649 207.747 245.306 204.18 245.306 204.18L244.384 201.041C244.384 201.041 257.517 200.238 268.477 197.191Z" fill="#F37A50"/>
<path d="M295.907 217.137C294 207.31 293.179 203.827 292.386 199.202C290.43 187.772 296.183 179.739 286.319 174.261L279.129 175.419C273.315 181.53 269.737 187.077 269.43 190.909C269.008 195.851 273.916 198.534 273.916 198.534L271.941 211.992C271.941 211.992 271.477 213.09 279.584 214.62C287.691 216.151 295.907 217.137 295.907 217.137Z" fill="#E62552"/>
<path d="M289.995 187.042C286.62 191.998 272.196 204.597 270.029 204.71L268.478 197.191C268.478 197.191 281.581 181.849 283.879 179.409C287.848 175.172 295.521 178.958 289.995 187.042Z" fill="#F37A50"/>
<path d="M276.205 187.076C278.725 183.413 283.806 176.658 288.392 177.125C292.979 177.592 293.311 182.457 291.928 185.075C290.546 187.695 285.77 194.149 285.77 194.149L276.205 187.076Z" fill="#FF4F78"/>
<path d="M244.384 201.041C241.732 200.39 235.967 198.455 233.644 204.521C234.227 205.636 236.361 202.887 237.278 202.632C238.734 202.227 239.982 202.991 241.084 204.043C242.665 205.551 245.305 204.18 245.305 204.18L244.384 201.041Z" fill="#F37A50"/>
<path d="M242.321 208.092H217.411V204.749H245.666C245.666 206.596 244.168 208.092 242.321 208.092Z" fill="#FF4F78"/>
<path d="M204.602 187.096L217.411 208.092L220.372 206.536L206.006 182.583C204.371 183.441 203.743 185.463 204.602 187.096Z" fill="#FF4F78"/>
<path d="M289.607 164.897C288.396 169.952 284.193 173.28 280.221 172.33C276.247 171.379 274.008 166.511 275.221 161.456C276.432 156.4 280.635 153.074 284.607 154.023C288.581 154.975 290.82 159.842 289.607 164.897Z" fill="#F37A50"/>
<path d="M287.683 167.56L281.081 171.65C281.081 171.65 280.495 174.566 280.202 175.511C279.6 177.463 281.912 178.317 283.866 177.101C285.82 175.887 286.318 174.261 286.318 174.261L287.683 167.56Z" fill="#F37A50"/>
<path d="M274.765 159.524C276.641 159.687 280.706 159.361 282.188 157.604C283.245 161.17 287.738 164.565 291.454 166.157C291.603 162.498 291.576 155.766 285.011 152.969C279.854 150.772 274.765 159.524 274.765 159.524Z" fill="#2C2858"/>
<path d="M277.082 162.783C276.905 163.133 276.479 163.276 276.128 163.101C275.777 162.927 275.634 162.501 275.809 162.15C275.984 161.798 276.41 161.655 276.761 161.831C277.114 162.006 277.257 162.432 277.082 162.783Z" fill="black"/>
<path d="M282.662 164.158C282.472 164.539 282.01 164.693 281.63 164.504C281.249 164.314 281.095 163.853 281.284 163.473C281.474 163.093 281.935 162.939 282.315 163.128C282.696 163.318 282.85 163.778 282.662 164.158Z" fill="black"/>
<path d="M283.511 163.522C283.459 163.497 283.415 163.452 283.389 163.396C283.003 162.565 281.961 162.403 281.951 162.402C281.806 162.38 281.703 162.245 281.725 162.098C281.746 161.953 281.881 161.852 282.026 161.872C282.08 161.881 283.364 162.073 283.873 163.171C283.935 163.304 283.877 163.463 283.744 163.526C283.666 163.56 283.581 163.558 283.511 163.522Z" fill="#2C2858"/>
<path d="M275.532 161.754C275.505 161.742 275.482 161.724 275.459 161.703C275.357 161.598 275.357 161.429 275.462 161.325C276.278 160.519 277.284 160.853 277.325 160.868C277.465 160.916 277.54 161.068 277.492 161.208C277.443 161.347 277.292 161.422 277.153 161.375C277.12 161.363 276.412 161.139 275.838 161.706C275.755 161.788 275.63 161.804 275.532 161.754Z" fill="#2C2858"/>
<path d="M277.539 164.327C277.149 164.728 276.806 165.141 276.434 165.375C276.309 165.454 276.269 165.621 276.341 165.75C276.642 166.282 277.521 166.721 278.059 166.95C278.137 166.983 278.202 166.881 278.137 166.824C277.594 166.348 277.361 165.998 277.263 165.805C277.214 165.709 277.215 165.597 277.264 165.501C277.375 165.281 277.597 164.832 277.747 164.462C277.798 164.333 277.634 164.227 277.539 164.327Z" fill="#DE623C"/>
<path d="M287.698 164.93C286.732 165.68 286.448 166.928 287.062 167.718C287.677 168.507 288.957 168.539 289.923 167.789C290.889 167.039 291.173 165.789 290.559 165C289.944 164.21 288.662 164.178 287.698 164.93Z" fill="#F37A50"/>
<path d="M288.246 167.49C288.21 167.472 288.176 167.445 288.151 167.411C287.779 166.917 287.745 166.364 288.057 165.93C288.377 165.484 288.971 165.281 289.47 165.445C289.61 165.492 289.686 165.643 289.64 165.783C289.593 165.923 289.442 166 289.302 165.952C289.028 165.862 288.673 165.99 288.493 166.241C288.318 166.483 288.348 166.784 288.579 167.089C288.667 167.207 288.644 167.375 288.526 167.463C288.441 167.527 288.333 167.533 288.246 167.49Z" fill="#DE623C"/>
<path d="M281.525 213.554C272.959 214.706 248.79 222.532 247.444 224.149C244.666 227.488 250.852 241.789 252.83 260.2H261.098C261.012 247.082 262.061 235.015 258.021 230.738C258.021 230.738 281.188 229.194 292.737 229.194C298.625 229.194 301.882 209.316 281.525 213.554Z" fill="#0A7F2E"/>
<path d="M277.177 168.581C277.063 168.427 277.187 168.21 277.378 168.234C277.862 168.292 278.663 168.373 279.429 168.373C280.193 168.374 280.995 168.295 281.48 168.238C281.67 168.216 281.793 168.431 281.679 168.585C281.327 169.059 280.6 169.777 279.428 169.776C278.255 169.774 277.528 169.055 277.177 168.581Z" fill="white"/>
<path d="M112.67 199.417C111.034 200.505 111.487 206.433 112.105 206.734C120.612 207.772 134.979 200.731 134.979 200.731L135.542 197.581C135.542 197.581 123.542 199.588 112.67 199.417Z" fill="#F37A50"/>
<path d="M93.9792 189.14C97.0202 193.999 110.331 206.562 112.396 206.75L114.156 199.626C114.156 199.626 102.208 184.49 100.102 182.075C96.467 177.882 88.9994 181.215 93.9792 189.14Z" fill="#F37A50"/>
<path d="M101.254 163.175C101.619 158.199 100.18 153.804 96.2097 151.567C92.1857 149.297 87.1449 151.522 87.1449 151.522C87.1445 151.522 82.8779 150.006 79.0113 154.262C75.1443 158.518 78.0693 162.263 76.4874 165.367C75.5506 167.205 70.7872 167.585 72.0176 173.572C72.3724 175.299 74.451 176.461 76.2113 176.577C79.3045 176.78 82.1848 175.585 83.4385 176.78C87.5702 180.717 96.7261 179.293 98.0075 175.691C98.4049 174.575 106.641 176.735 105.819 169.13C105.403 165.275 100.927 167.62 101.254 163.175Z" fill="#2C2858"/>
<path d="M93.7064 179.258L87.1674 178.052L84.7153 181.311L89.9266 191.988L97.5916 185.487L93.7064 179.258Z" fill="#F37A50"/>
<path d="M102.182 204.997C102.071 202.966 105.356 194.624 103.627 190.426C102.367 187.048 100.263 181.378 97.6864 180.433C96.4706 179.986 95.2211 179.676 93.7061 179.257C93.7061 179.257 94.5608 183.513 92.7802 183.656C89.3523 183.93 87.1673 178.051 87.1673 178.051C85.3191 177.875 76.8415 180.657 76.8457 181.353C76.8658 186.802 81.2957 194.75 82.7442 200.641C83.3142 207.001 81.093 214.614 81.0848 215.339C81.0848 215.339 94.7225 219.17 102.806 214.722C102.976 214.102 102.337 207.801 102.182 204.997Z" fill="#0A7F2E"/>
<path d="M83.1364 208.803C83.1364 208.803 80.1255 216.392 79.3914 221.169C78.6573 225.947 82.8007 229.012 82.8007 229.012H117.257C117.257 229.012 120.946 223.035 119.883 218.908C118.821 214.779 116.377 214.124 116.377 214.124L83.1364 208.803Z" fill="#0A7F2E"/>
<path d="M117.718 213.911C113.319 213.291 100.551 218.247 95.1074 229.012H110.338L117.718 213.911Z" fill="#DE623C"/>
<path d="M112.895 217.875C113.464 217.252 113.98 216.486 114.434 215.686C115.718 213.426 118.813 213.045 120.56 214.969C126.91 221.965 140.448 237.914 143.466 239.898C144.319 240.459 149.295 243.321 154.025 242.755C154.025 242.755 156.359 243.644 154.803 245.496C154.003 246.448 141.983 247.434 141.983 247.434L141.046 243.907C134.049 238.733 125.338 239.105 117.953 229.645C113.885 224.435 112.895 217.875 112.895 217.875Z" fill="#DE623C"/>
<path d="M144.417 249.469L149.254 252.605L149.919 251.814L145.995 248.158C148.224 246.401 153.386 247.867 153.386 247.867C155.077 246.776 158.372 243.236 158.712 241.34C157.63 239.992 154.024 242.765 154.024 242.765C154.157 243.365 153.018 245.446 152.112 245.802C148.173 246.651 144.248 245.532 141.046 243.907C141.046 243.907 138.369 247.96 144.417 249.469Z" fill="#E62552"/>
<path d="M112.825 218.824C111.944 219.061 111.287 219.799 111.159 220.702C110.815 223.143 109.036 228.087 111.443 233.265C117.352 245.978 120.841 254.355 121.46 257.635C119.917 260.524 126.072 268.414 126.163 268.931L130.593 267.545C130.593 267.545 128.051 263.767 127.136 262.287C124.957 258.765 124.6 254.442 124.246 251.091C122.734 236.785 125.334 227.753 114.975 219.361C114.362 218.865 113.586 218.619 112.825 218.824Z" fill="#F37A50"/>
<path d="M119.252 263.687L119.689 269.432L120.722 269.481L121.253 264.146C124.003 264.851 125.966 269.842 125.966 269.842C127.86 270.525 132.675 270.996 134.391 270.117C134.807 268.439 130.414 267.255 130.414 267.255C130.016 267.725 127.669 268.082 126.837 267.577C123.773 264.962 122.108 261.166 121.459 257.635C121.459 257.635 116.786 257.966 119.252 263.687Z" fill="#E62552"/>
<path d="M92.0553 173.921L86.7456 173.127L87.1685 178.051C87.1685 178.051 88.1849 180.282 89.3637 180.433L93.7076 179.257L92.0553 173.921Z" fill="#F37A50"/>
<path d="M81.8302 166.801C83.201 172.521 87.9571 176.287 92.4532 175.211C96.9492 174.135 99.4828 168.625 98.1121 162.905C96.7414 157.186 91.9854 153.421 87.4892 154.496C82.9932 155.572 80.4595 161.08 81.8302 166.801Z" fill="#F37A50"/>
<path d="M96.0063 164.408C96.2043 164.805 96.687 164.966 97.0846 164.768C97.4819 164.571 97.6437 164.089 97.4457 163.692C97.2479 163.294 96.765 163.132 96.3676 163.33C95.9701 163.529 95.8085 164.011 96.0063 164.408Z" fill="black"/>
<path d="M89.6916 165.964C89.906 166.394 90.4283 166.569 90.8586 166.355C91.2888 166.14 91.4639 165.619 91.2496 165.189C91.0352 164.76 90.5128 164.584 90.0826 164.798C89.6523 165.012 89.4772 165.535 89.6916 165.964Z" fill="black"/>
<path d="M88.7283 165.245C88.7877 165.214 88.8378 165.166 88.8679 165.101C89.304 164.161 90.4825 163.978 90.4945 163.975C90.6593 163.951 90.7742 163.797 90.7503 163.632C90.7266 163.467 90.5741 163.354 90.409 163.376C90.3473 163.385 88.8949 163.603 88.3187 164.847C88.2483 164.998 88.3144 165.178 88.466 165.248C88.5529 165.288 88.6489 165.284 88.7283 165.245Z" fill="#2C2858"/>
<path d="M97.7597 163.243C97.7888 163.229 97.816 163.21 97.84 163.185C97.9575 163.067 97.9564 162.876 97.8375 162.758C96.9142 161.846 95.7763 162.224 95.7284 162.241C95.5708 162.295 95.4865 162.467 95.541 162.625C95.5954 162.783 95.7667 162.866 95.9245 162.813C95.9617 162.801 96.7628 162.547 97.4121 163.188C97.5066 163.281 97.6471 163.3 97.7597 163.243Z" fill="#2C2858"/>
<path d="M95.4889 166.155C95.93 166.608 96.3169 167.075 96.7381 167.341C96.8799 167.43 96.9254 167.619 96.843 167.765C96.5027 168.367 95.5095 168.863 94.9006 169.123C94.8116 169.16 94.7388 169.044 94.8113 168.981C95.4261 168.442 95.6901 168.045 95.8011 167.828C95.8562 167.72 95.8547 167.592 95.7997 167.483C95.6739 167.235 95.4228 166.727 95.2531 166.307C95.1944 166.162 95.3799 166.044 95.4889 166.155Z" fill="#DE623C"/>
<path d="M83.9949 166.836C85.0873 167.686 85.4091 169.099 84.7137 169.992C84.018 170.886 82.5685 170.922 81.476 170.072C80.3836 169.222 80.0617 167.81 80.7574 166.917C81.4529 166.024 82.9024 165.988 83.9949 166.836Z" fill="#F37A50"/>
<path d="M83.3729 169.732C83.4137 169.712 83.4505 169.682 83.4796 169.643C83.8992 169.086 83.9386 168.459 83.5852 167.967C83.2234 167.464 82.5514 167.234 81.9874 167.42C81.8289 167.472 81.7427 167.643 81.7951 167.802C81.8476 167.96 82.0187 168.046 82.1774 167.993C82.4864 167.892 82.8887 168.035 83.0935 168.321C83.2902 168.594 83.2556 168.935 82.9958 169.28C82.8954 169.413 82.9224 169.603 83.0559 169.702C83.1507 169.775 83.2737 169.782 83.3729 169.732Z" fill="#DE623C"/>
<path d="M90.518 170.715C90.3912 170.545 90.5281 170.306 90.7393 170.331C91.2763 170.395 92.1641 170.482 93.0114 170.482C93.8588 170.482 94.7466 170.395 95.2834 170.331C95.4947 170.306 95.6315 170.545 95.5048 170.715C95.1152 171.24 94.3102 172.037 93.0114 172.037C91.7126 172.037 90.9075 171.24 90.518 170.715Z" fill="white"/>
<path d="M81.7205 166.295C87.0871 165.576 94.596 160.114 95.212 157.309C94.1739 153.942 88.6433 152.249 85.5203 153.81C82.3974 155.37 79.4475 162.056 81.7205 166.295Z" fill="#2C2858"/>
<path d="M131.926 206.845C131.211 206.611 130.821 205.844 131.054 205.13L139.339 179.774C139.572 179.062 140.339 178.671 141.054 178.905C141.768 179.138 142.158 179.905 141.925 180.619L133.641 205.974C133.408 206.687 132.64 207.078 131.926 206.845Z" fill="white"/>
<path d="M136.324 197.758L138.012 192.592C138.012 192.592 139.475 195.564 138.012 198.384C136.549 201.206 135.157 201.332 135.157 201.332L136.324 197.758Z" fill="#F37A50"/>
<path d="M133.913 196.375C133.486 195.373 132.481 192.863 133.486 192.874C134.491 192.885 134.654 194.104 134.654 194.104L133.913 196.375Z" fill="#F37A50"/>
<path d="M50.9312 181.276C53.2093 178.98 51.7148 176.624 51.7148 176.624C52.9648 176.357 59.56 186.339 62.4037 192.683C67.3639 187.688 76.1043 180.942 78.4676 180.548C78.4676 180.548 81.6561 179.692 82.8018 183.544C83.8244 186.982 79.8361 189.418 79.8361 189.418C79.8361 189.418 62.7759 201.453 60.253 200.383C56.3267 198.718 52.7735 184.394 50.9312 181.276Z" fill="#F37A50"/>
<path d="M47.37 180.991C48.762 181.077 50.4837 180.389 51.02 181.636L53.7675 180.298L53.9339 178.641C51.5729 174.862 45.8181 173.788 45.2482 173.739C43.7679 173.61 43.0806 173.457 42.965 173.654C42.8494 173.852 42.4867 175.169 44.6346 175.427C47.3302 175.75 45.5407 177.903 40.0722 175.854C38.7028 175.341 36.1258 176.007 37.0579 177.006C38.085 178.109 41.0356 180.606 47.37 180.991Z" fill="#F37A50"/>
<path d="M215.268 67.5791C215.268 92.828 194.784 113.297 169.514 113.297C144.245 113.297 123.76 92.828 123.76 67.5791C123.76 42.3302 144.245 21.8616 169.514 21.8616C194.784 21.8616 215.268 42.3302 215.268 67.5791Z" fill="#95A6DB"/>
<path d="M196.648 84.876C195.166 70.5393 144.916 70.6128 142.084 84.3242C141.92 86.6644 143.075 88.4501 145.769 90.1997C152.478 95.26 160.625 96.7504 169.321 96.9015C176.56 96.8252 182.559 95.974 188.648 93.0459C192.05 91.3795 196.544 88.3918 196.648 84.876Z" fill="#3F93E8"/>
<path d="M197.414 84.4102C195.144 96.3734 164.74 95.9797 155.434 93.5895C146.359 92.0104 137.483 86.268 143.282 80.6046C144.604 79.3124 146.691 78.0245 149.713 76.792C160.356 72.7063 179.004 72.7687 189.571 76.8835C191.339 77.6044 193.006 78.3517 194.343 79.2847C196.134 80.5352 197.339 82.1171 197.414 84.4102Z" fill="white"/>
<path d="M194.343 79.2847C194.053 79.7492 192.838 81.697 191.51 83.7946C184.044 92.9226 172.63 91.7761 169.536 91.9244C166.932 92.9046 161.567 93.9694 161.567 93.9694L160.181 93.2249L147.919 89.2751C147.919 89.2751 151.983 82.2142 151.255 82.1573C150.053 82.0631 147.561 82.1185 146.825 81.7262C145.567 80.4133 145.097 80.2469 144.106 79.8767C145.43 78.5846 146.691 78.0245 149.713 76.792C160.357 72.7063 179.005 72.7687 189.572 76.8835C191.339 77.6044 193.006 78.3517 194.343 79.2847Z" fill="#90C1F5"/>
<path d="M200.625 70.5947C201.641 68.425 201.982 66.6282 201.652 65.2016C201.245 63.1345 200.112 61.8022 198.207 61.1145C196.123 60.2854 193.868 60.7776 191.511 62.6173C189.692 64.0356 188.039 66.0515 186.605 68.5303C186.388 68.9144 186.402 69.3026 186.483 69.7171C186.565 70.1302 186.856 70.3895 187.171 70.5794C187.555 70.7957 187.92 70.8498 188.266 70.7444C188.679 70.6626 188.914 70.4408 189.129 70.0568C190.373 67.8926 191.741 66.2358 193.259 65.0158C194.728 63.9317 196.019 63.5518 197.244 63.9941C198.128 64.3143 198.661 64.9673 198.842 65.9544C198.98 66.85 198.698 68.0548 198.021 69.5008C197.227 71.0591 195.981 72.3776 194.259 73.5228C192.353 74.7553 190.637 75.6731 189.18 76.2997C187.722 76.9264 186.265 77.553 184.697 78.0632C184.325 78.2365 184.092 78.4597 183.876 78.8424C183.661 79.2264 183.698 79.5466 183.78 79.9612C183.953 80.3313 184.152 80.6336 184.535 80.8485C184.919 81.0634 185.24 81.0259 185.678 80.8776C187.272 80.2995 188.797 79.6978 190.279 79.0032C191.829 78.3322 193.593 77.2785 195.686 75.9587C198.038 74.3491 199.66 72.6285 200.625 70.5947Z" fill="white"/>
<path d="M188.203 63.1625C188.232 66.067 179.872 68.5084 169.531 68.6138C159.189 68.7192 150.782 66.4496 150.752 63.5437C150.722 60.6378 159.082 58.1978 169.423 58.0924C179.765 57.987 188.172 60.2566 188.203 63.1625Z" fill="#3F93E8"/>
<path d="M150.62 65.7701C150.623 66.0835 150.732 66.2928 150.843 66.6062C151.394 67.9635 153.126 69.0976 156.254 70.1138C159.921 71.3352 164.335 71.9189 169.602 71.8648C174.762 71.8122 179.27 71.137 182.912 69.8421C186.447 68.6539 188.261 67.273 188.352 65.6994C188.351 65.5941 188.35 65.4901 188.35 65.4901C188.333 63.8125 186.49 62.3637 182.823 61.1436C179.156 60.029 174.636 59.4453 169.476 59.498C164.209 59.552 159.808 60.2258 156.166 61.4154C152.415 62.6077 150.603 64.0926 150.62 65.7701Z" fill="#783C38"/>
<path d="M190.408 63.2569V63.2832C190.408 63.2832 190.408 63.2832 190.408 63.2846C190.408 63.2846 190.408 63.2846 190.408 63.286C190.527 75.0203 190.671 90.7752 169.759 90.9887C149.814 91.1911 148.667 75.2616 148.547 63.7144V63.6839L150.758 63.6603C151.007 66.5107 159.328 68.7178 169.53 68.6139C179.732 68.5099 188.006 66.1336 188.197 63.2791L190.408 63.2569Z" fill="white"/>
<path d="M169.53 68.6136C159.328 68.7175 151.007 66.5104 150.758 63.66C150.753 63.6212 150.751 63.5824 150.751 63.5436C150.722 60.6377 159.081 58.1977 169.422 58.0924C179.764 57.987 188.171 60.2565 188.202 63.1609C188.202 63.2011 188.2 63.24 188.198 63.2788C188.006 66.1333 179.733 68.5096 169.53 68.6136ZM190.406 63.2566C190.323 59.5217 180.94 56.5937 169.408 56.7115C157.877 56.8294 148.556 59.9473 148.547 63.6822C148.547 63.6919 148.547 63.7002 148.547 63.7086V63.7141C148.59 67.4601 157.991 70.402 169.547 70.2828C181.105 70.1649 190.444 67.0317 190.408 63.2857C190.408 63.2843 190.408 63.2843 190.408 63.2843C190.408 63.2829 190.408 63.2829 190.408 63.2829C190.408 63.2732 190.408 63.2649 190.406 63.2566Z" fill="#90C1F5"/>
<path d="M163.213 66.6242C148.968 64.0885 161.926 59.0447 175.377 61.0272C184.541 62.3776 181.562 66.9403 171.517 66.8572C159.031 66.7532 159.683 61.6386 171.079 61.6636C174.784 61.6719 178.492 64.765 173.883 65.0437C165.675 65.5428 167.037 62.7797 170.992 63.1457C167.784 62.8504 167.813 65.0493 171.896 64.4586C176.457 63.8001 171.714 61.378 166.971 62.3332C160.043 63.728 167.791 66.1237 172.938 65.8492C181.312 65.4056 180.613 62.3291 173.375 61.3419C163.869 60.0456 154.135 64.1079 163.213 66.6242Z" fill="#9B6564"/>
<path d="M168.527 85.3057L166.135 84.4433L166.252 78.3085L160.879 76.1846L155.111 78.0964L155.061 80.6959L154.81 80.6141L149.18 82.8989L149.457 88.9131L154.888 90.6877L157.573 89.6645L157.673 91.8328L163.105 93.6074L168.809 91.4335L168.527 85.3057Z" fill="#90C1F5"/>
<path d="M172.43 36.681C170.801 32.9419 162.628 32.2819 162.628 32.2819C162.628 32.2819 166.568 33.9622 167.121 37.1287C167.904 41.6206 161.786 43.6254 163.204 49.6062C164.292 54.1979 169.544 55.6897 169.544 55.6897C169.544 55.6897 166.946 53.667 168.165 48.2088C169.048 44.2534 174.171 40.6724 172.43 36.681Z" fill="#DEE6FF"/>
<path d="M179.696 43.9996C179.476 41.5693 175.492 39.6963 175.492 39.6963C175.492 39.6963 176.447 41.4404 175.825 43.3342C174.988 45.8782 171.968 46.1097 171.767 49.1085C171.574 51.9755 174.597 54.697 174.597 54.697C174.597 54.697 173.487 52.0643 175.87 49.096C177.596 46.9443 179.932 46.5936 179.696 43.9996Z" fill="#DEE6FF"/>
<path d="M153.35 91.0496L147.918 89.275L147.64 83.2609L153.272 80.9762L158.772 82.7479L159.054 88.8757L153.35 91.0496Z" fill="#E8B475"/>
<path d="M147.64 83.2607L153.272 80.9758L158.772 82.7477L153.067 84.9203L147.64 83.2607Z" fill="#E4ECF9"/>
<path d="M153.351 91.0497L153.068 84.9203L158.773 82.7478L159.055 88.8758L153.351 91.0497Z" fill="#C3D0E5"/>
<path d="M153.067 84.9203L153.35 91.0497L147.918 89.2751L147.64 83.2607L153.067 84.9203Z" fill="#D6E1F2"/>
<path d="M161.566 93.9695L156.135 92.1949L155.857 86.1794L161.488 83.8961L166.988 85.6679L167.271 91.7956L161.566 93.9695Z" fill="#E8B475"/>
<path d="M155.857 86.1794L161.488 83.8958L166.988 85.6678L161.284 87.8405L155.857 86.1794Z" fill="#E4ECF9"/>
<path d="M161.566 93.9695L161.284 87.8403L166.988 85.6678L167.271 91.7956L161.566 93.9695Z" fill="#C3D0E5"/>
<path d="M161.284 87.8402L161.566 93.9694L156.135 92.1948L155.857 86.1794L161.284 87.8402Z" fill="#D6E1F2"/>
<path d="M158.764 86.6025L153.46 84.4786L153.575 78.4589L159.343 76.5456L164.715 78.671L164.599 84.8058L158.764 86.6025Z" fill="#E8B475"/>
<path d="M153.574 78.4585L159.342 76.5452L164.714 78.6706L158.88 80.4689L153.574 78.4585Z" fill="#E4ECF9"/>
<path d="M158.764 86.6024L158.88 80.4687L164.714 78.6705L164.598 84.8056L158.764 86.6024Z" fill="#C3D0E5"/>
<path d="M158.881 80.4687L158.764 86.6024L153.46 84.4784L153.575 78.4584L158.881 80.4687Z" fill="#D6E1F2"/>
<path d="M166.524 93.2012C166.524 93.5741 166.221 93.8763 165.848 93.8763C165.475 93.8763 165.172 93.5741 165.172 93.2012C165.172 92.8282 165.475 92.526 165.848 92.526C166.221 92.526 166.524 92.8282 166.524 93.2012Z" fill="#C3D0E5"/>
<path d="M153.147 83.122C153.147 83.4936 152.845 83.7959 152.471 83.7959C152.098 83.7959 151.795 83.4936 151.795 83.122C151.795 82.7491 152.098 82.4468 152.471 82.4468C152.845 82.4468 153.147 82.7491 153.147 83.122Z" fill="#C3D0E5"/>
<path d="M167.725 94.1508C167.54 94.3352 167.24 94.3352 167.057 94.1508C166.873 93.9664 166.873 93.6684 167.057 93.484C167.24 93.2996 167.54 93.2996 167.725 93.484C167.909 93.6684 167.909 93.9664 167.725 94.1508Z" fill="#C3D0E5"/>
<path d="M146.468 88.5392C146.285 88.7236 145.985 88.7236 145.801 88.5392C145.616 88.3547 145.616 88.0566 145.801 87.8722C145.985 87.6878 146.285 87.6878 146.468 87.8722C146.652 88.0566 146.652 88.3547 146.468 88.5392Z" fill="#C3D0E5"/>
<path d="M147.022 89.5077C146.891 89.6379 146.68 89.6379 146.551 89.5077C146.421 89.3788 146.421 89.1682 146.551 89.0379C146.68 88.9091 146.891 88.9091 147.022 89.0379C147.151 89.1682 147.151 89.3788 147.022 89.5077Z" fill="#C3D0E5"/>
<path d="M155.023 92.6546C154.838 92.8389 154.538 92.8389 154.355 92.6546C154.171 92.4716 154.171 92.1721 154.355 91.9878C154.538 91.8034 154.838 91.8034 155.023 91.9878C155.207 92.1721 155.207 92.4716 155.023 92.6546Z" fill="#C3D0E5"/>
<path d="M153.679 51.8358C153.679 52.2129 153.372 52.5193 152.995 52.5193C152.617 52.5193 152.311 52.2129 152.311 51.8358C152.311 51.4588 152.617 51.1524 152.995 51.1524C153.372 51.1524 153.679 51.4588 153.679 51.8358Z" fill="white"/>
<path d="M158.625 53.7324C158.625 53.9528 158.446 54.1331 158.225 54.1331C158.005 54.1331 157.824 53.9528 157.824 53.7324C157.824 53.512 158.005 53.3332 158.225 53.3332C158.446 53.3332 158.625 53.512 158.625 53.7324Z" fill="white"/>
<path d="M157.661 58.9145C157.883 58.9255 158.052 59.1127 158.041 59.3345C158.03 59.5549 157.841 59.7241 157.621 59.713C157.4 59.7019 157.231 59.5134 157.242 59.2929C157.253 59.0725 157.44 58.9034 157.661 58.9145Z" fill="white"/>
<path d="M157.749 50.4132C157.749 50.6337 157.57 50.8125 157.348 50.8125C157.127 50.8125 156.948 50.6337 156.948 50.4132C156.948 50.1928 157.127 50.0126 157.348 50.0126C157.57 50.0126 157.749 50.1928 157.749 50.4132Z" fill="white"/>
<path d="M173.878 203.868H171.328V196.907H173.878V203.868ZM174.706 195.251H171.328V192.647H158.657V208.127H171.328V205.525H174.706C175.164 205.525 175.534 205.154 175.534 204.696V196.078C175.534 195.621 175.164 195.251 174.706 195.251Z" fill="#8BA3F0"/>
<path d="M164.095 190.027C162.355 188.19 160.307 186.602 162.568 183.77C164.153 181.783 164.834 179.731 163.926 178.314C166.057 179.576 167.024 183.18 165.342 184.582C163.257 186.321 164.095 190.027 164.095 190.027Z" fill="white"/>
<path d="M167.707 189.744C166.397 188.362 164.857 187.167 166.558 185.036C167.751 183.542 168.265 181.997 167.579 180.931C169.183 181.881 169.912 184.593 168.646 185.648C167.077 186.956 167.707 189.744 167.707 189.744Z" fill="white"/>
<path d="M189.818 197.307H192.368V204.268H189.818V197.307ZM188.16 196.479V205.097C188.16 205.554 188.532 205.924 188.99 205.924H192.368V208.528H205.037V193.048H192.368V195.65H188.99C188.532 195.65 188.16 196.021 188.16 196.479Z" fill="#8BA3F0"/>
<path d="M199.602 190.427C201.342 188.589 203.391 187.002 201.129 184.169C199.544 182.183 198.861 180.131 199.772 178.714C197.64 179.977 196.673 183.58 198.354 184.982C200.441 186.722 199.602 190.427 199.602 190.427Z" fill="white"/>
<path d="M195.987 190.144C197.297 188.76 198.839 187.566 197.138 185.434C195.944 183.94 195.431 182.397 196.115 181.331C194.512 182.28 193.784 184.992 195.049 186.046C196.619 187.354 195.987 190.144 195.987 190.144Z" fill="white"/>
<path d="M295.813 140.732C295.813 141.132 295.743 141.518 295.616 141.885C294.973 143.729 292.827 145.083 290.279 145.083C287.731 145.083 285.586 143.729 284.943 141.885C284.814 141.518 284.746 141.132 284.746 140.732H295.813Z" fill="#95A6DB"/>
<path d="M295.813 140.733C295.813 141.133 295.743 141.519 295.616 141.886H284.943C284.814 141.519 284.746 141.133 284.746 140.733H295.813Z" fill="#768FDB"/>
<path d="M301.867 122.083C301.867 115.694 296.687 110.513 290.296 110.505C283.992 110.497 278.808 115.572 278.694 121.871C278.646 124.624 279.559 127.164 281.121 129.175C283.098 131.719 284.196 134.836 284.196 138.058V138.115H296.362V138.058C296.362 134.832 297.468 131.715 299.445 129.164C300.963 127.207 301.867 124.75 301.867 122.083Z" fill="white"/>
<path d="M290.405 122.181C290.071 122.749 289.792 123.388 289.596 124.051C289.255 125.209 289.208 126.316 289.472 127.017C289.663 127.521 289.986 127.785 290.461 127.821C290.952 127.857 291.26 127.656 291.432 127.188C291.825 126.122 291.349 123.944 290.405 122.181ZM292.031 136.805C291.999 136.805 291.966 136.799 291.934 136.788C291.78 136.734 291.698 136.566 291.753 136.411C291.765 136.372 293.132 132.439 294.125 128.433C295.884 121.334 294.978 120.18 294.508 120.012C293.123 119.523 292.02 120.248 291.339 120.943C291.139 121.145 290.946 121.377 290.766 121.628C291.062 122.138 291.329 122.703 291.553 123.3C292.166 124.938 292.328 126.468 291.988 127.392C291.726 128.105 291.167 128.467 290.416 128.411C289.709 128.357 289.19 127.948 288.918 127.226C288.606 126.397 288.646 125.18 289.028 123.883C289.269 123.067 289.631 122.279 290.068 121.601C289.66 120.955 289.187 120.399 288.674 120.025C287.911 119.47 287.195 119.445 286.545 119.954C285.204 121.001 285.152 124.154 286.397 129.07C287.356 132.859 288.764 136.364 288.778 136.398C288.839 136.549 288.767 136.721 288.614 136.782C288.463 136.845 288.289 136.771 288.228 136.619C288.215 136.584 286.794 133.047 285.824 129.22C284.498 123.983 284.617 120.708 286.181 119.487C287.039 118.816 288.048 118.838 289.022 119.547C289.51 119.903 289.993 120.435 290.43 121.088C290.586 120.886 290.748 120.699 290.916 120.527C292.049 119.372 293.395 118.991 294.705 119.455C295.521 119.743 295.855 120.84 295.729 122.809C295.635 124.26 295.288 126.201 294.698 128.579C293.699 132.611 292.326 136.566 292.312 136.606C292.269 136.728 292.155 136.805 292.031 136.805Z" fill="#7FE19D"/>
<path d="M295.291 141.112H285.269C284.038 141.112 283.039 140.114 283.039 138.884C283.039 137.654 284.038 136.658 285.269 136.658H295.291C296.523 136.658 297.521 137.654 297.521 138.884C297.521 140.114 296.523 141.112 295.291 141.112Z" fill="#95A6DB"/>
<path d="M309.966 122.557H306.176C305.638 122.557 305.2 122.121 305.2 121.581C305.2 121.044 305.638 120.607 306.176 120.607H309.966C310.504 120.607 310.941 121.044 310.941 121.581C310.941 122.121 310.504 122.557 309.966 122.557Z" fill="white"/>
<path d="M274.384 122.557H270.596C270.056 122.557 269.619 122.121 269.619 121.581C269.619 121.044 270.056 120.607 270.596 120.607H274.384C274.924 120.607 275.361 121.044 275.361 121.581C275.361 122.121 274.924 122.557 274.384 122.557Z" fill="white"/>
<path d="M276.791 114.549L273.776 112.257C273.345 111.93 273.262 111.318 273.59 110.89C273.916 110.46 274.529 110.377 274.958 110.704L277.973 112.996C278.401 113.322 278.485 113.935 278.159 114.363C277.831 114.792 277.219 114.875 276.791 114.549Z" fill="white"/>
<path d="M303.575 114.549L306.59 112.257C307.019 111.93 307.102 111.318 306.776 110.89C306.449 110.46 305.837 110.377 305.407 110.704L302.393 112.996C301.963 113.322 301.88 113.935 302.207 114.363C302.533 114.792 303.145 114.875 303.575 114.549Z" fill="white"/>
<path d="M276.791 129.825L273.776 132.119C273.345 132.444 273.262 133.057 273.59 133.486C273.916 133.914 274.529 133.997 274.958 133.671L277.973 131.378C278.401 131.052 278.485 130.441 278.159 130.011C277.831 129.583 277.219 129.5 276.791 129.825Z" fill="white"/>
<path d="M303.575 129.825L306.59 132.119C307.019 132.444 307.102 133.057 306.776 133.486C306.449 133.914 305.837 133.997 305.407 133.671L302.393 131.378C301.963 131.052 301.88 130.441 302.207 130.011C302.533 129.583 303.145 129.5 303.575 129.825Z" fill="white"/>
<path d="M103.123 140.765C103.123 141.164 103.055 141.551 102.926 141.917C102.284 143.761 100.138 145.115 97.5902 145.115C95.0424 145.115 92.8969 143.761 92.2545 141.917C92.1259 141.551 92.0576 141.164 92.0576 140.765H103.123Z" fill="#95A6DB"/>
<path d="M103.123 140.764C103.123 141.163 103.055 141.55 102.926 141.915H92.2545C92.1259 141.55 92.0576 141.163 92.0576 140.764H103.123Z" fill="#768FDB"/>
<path d="M109.177 122.113C109.177 115.724 103.999 110.545 97.6069 110.535C91.303 110.527 86.1183 115.602 86.0053 121.901C85.9559 124.655 86.8697 127.194 88.4322 129.206C90.4096 131.75 91.5071 134.868 91.5071 138.088V138.145H103.674V138.088C103.674 134.862 104.779 131.745 106.757 129.196C108.274 127.237 109.177 124.78 109.177 122.113Z" fill="white"/>
<path d="M97.7186 122.212C97.3838 122.78 97.1052 123.419 96.9094 124.082C96.568 125.24 96.5213 126.349 96.7851 127.048C96.9755 127.554 97.299 127.816 97.7742 127.852C98.2646 127.889 98.5733 127.688 98.7458 127.219C99.1383 126.153 98.6617 123.975 97.7186 122.212ZM99.3448 136.835C99.3124 136.835 99.2795 136.83 99.2474 136.819C99.0929 136.765 99.0112 136.597 99.0649 136.442C99.0786 136.403 100.445 132.47 101.438 128.464C103.198 121.365 102.292 120.211 101.821 120.044C100.436 119.554 99.3334 120.279 98.6523 120.974C98.452 121.178 98.2601 121.408 98.0795 121.659C98.375 122.17 98.642 122.735 98.8654 123.331C99.4791 124.969 99.6421 126.499 99.3017 127.423C99.0391 128.137 98.4809 128.499 97.7297 128.442C97.0212 128.388 96.5029 127.979 96.2308 127.257C95.9186 126.428 95.959 125.211 96.3414 123.916C96.5828 123.098 96.944 122.31 97.3816 121.632C96.9728 120.986 96.4998 120.43 95.9865 120.057C95.224 119.502 94.5079 119.477 93.8579 119.985C92.516 121.033 92.4647 124.185 93.7094 129.101C94.669 132.89 96.0771 136.394 96.0912 136.429C96.1524 136.58 96.079 136.752 95.9272 136.814C95.7756 136.875 95.6029 136.802 95.5418 136.651C95.5275 136.615 94.1062 133.08 93.1365 129.25C91.8097 124.014 91.9298 120.74 93.4931 119.518C94.352 118.847 95.3612 118.869 96.3354 119.579C96.8235 119.934 97.3061 120.468 97.7434 121.119C97.899 120.917 98.0615 120.73 98.2292 120.559C99.3627 119.403 100.708 119.023 102.019 119.486C102.834 119.775 103.169 120.871 103.042 122.84C102.948 124.291 102.601 126.232 102.012 128.61C101.012 132.641 99.6382 136.597 99.6245 136.637C99.5819 136.759 99.4673 136.835 99.3448 136.835Z" fill="#7FE19D"/>
<path d="M102.603 141.142H92.5805C91.3495 141.142 90.3516 140.146 90.3516 138.914C90.3516 137.685 91.3495 136.688 92.5805 136.688H102.603C103.834 136.688 104.832 137.685 104.832 138.914C104.832 140.146 103.834 141.142 102.603 141.142Z" fill="#95A6DB"/>
<path d="M117.275 122.589H113.487C112.948 122.589 112.511 122.152 112.511 121.614C112.511 121.075 112.948 120.638 113.487 120.638H117.275C117.815 120.638 118.252 121.075 118.252 121.614C118.252 122.152 117.815 122.589 117.275 122.589Z" fill="white"/>
<path d="M81.6956 122.589H77.907C77.3677 122.589 76.9307 122.152 76.9307 121.614C76.9307 121.075 77.3677 120.638 77.907 120.638H81.6956C82.2348 120.638 82.6719 121.075 82.6719 121.614C82.6719 122.152 82.2348 122.589 81.6956 122.589Z" fill="white"/>
<path d="M84.1026 114.579L81.0879 112.287C80.6587 111.96 80.5755 111.349 80.9021 110.92C81.2287 110.49 81.8413 110.407 82.2703 110.734L85.2851 113.026C85.7143 113.353 85.7974 113.965 85.4709 114.393C85.1443 114.823 84.5317 114.906 84.1026 114.579Z" fill="white"/>
<path d="M110.886 114.579L113.901 112.287C114.33 111.96 114.413 111.349 114.087 110.92C113.76 110.49 113.147 110.407 112.718 110.734L109.704 113.026C109.274 113.353 109.191 113.965 109.518 114.393C109.844 114.823 110.457 114.906 110.886 114.579Z" fill="white"/>
<path d="M84.1026 129.858L81.0879 132.15C80.6587 132.475 80.5755 133.088 80.9021 133.516C81.2287 133.945 81.8413 134.028 82.2703 133.702L85.2851 131.411C85.7143 131.084 85.7974 130.472 85.4709 130.042C85.1443 129.614 84.5317 129.531 84.1026 129.858Z" fill="white"/>
<path d="M110.886 129.858L113.901 132.15C114.33 132.475 114.413 133.088 114.087 133.516C113.76 133.945 113.147 134.028 112.718 133.702L109.704 131.411C109.274 131.084 109.191 130.472 109.518 130.042C109.844 129.614 110.457 129.531 110.886 129.858Z" fill="white"/>
</svg>
