<svg width="64" height="39" viewBox="0 0 64 39" fill="none" xmlns="http://www.w3.org/2000/svg">
<path d="M62.8601 0.771105C62.1973 0.186032 61.3152 -0.0865476 60.4385 0.0236359L52.0471 1.0726C50.3813 1.2808 49.1635 2.84444 49.3719 4.51198C49.5825 6.19706 51.1241 7.39795 52.8114 7.18727L53.4961 7.10182C43.1968 19.0435 30.9527 25.2151 22.3005 28.3167C11.5124 32.1843 3.1155 32.5151 3.03372 32.5178C1.33739 32.5708 -0.00104211 33.9942 0.0502548 35.6908C0.101028 37.3663 1.4532 38.6787 3.12885 38.6787C3.16 38.6787 3.19127 38.6783 3.22333 38.6773C3.59667 38.666 12.4979 38.3517 24.2248 34.1731C30.8173 31.8239 37.0205 28.7054 42.662 24.9043C43.1124 24.601 43.2315 23.9896 42.9279 23.5393C42.6246 23.0888 42.0135 22.9698 41.5629 23.2733C36.0579 26.9826 30.0024 30.0265 23.5646 32.3205C12.1258 36.3964 3.52418 36.7005 3.16445 36.7114L3.12885 36.7119C2.52324 36.7119 2.03434 36.2373 2.01602 35.6313C1.99744 35.0175 2.48162 34.5027 3.09561 34.4835C3.18146 34.4807 11.8179 34.1638 22.9643 30.168C32.3022 26.8205 45.7198 19.9853 56.6116 6.433C57.1539 5.75829 56.5806 4.73379 55.7233 4.84122L52.5681 5.23563C52.0211 5.30329 51.4898 4.94486 51.3509 4.4107C51.1839 3.76791 51.6331 3.10629 52.2913 3.02385L60.6829 1.97488C61.3381 1.89205 61.9354 2.42163 61.9354 3.08077V11.4721C61.9354 12.0866 61.4355 12.5867 60.8208 12.5867C60.2062 12.5867 59.7063 12.0868 59.7063 11.4721V8.92822C59.7063 8.52635 59.4464 8.15053 59.0706 8.00854C58.6823 7.86185 58.2235 7.98499 57.961 8.30638C54.2882 12.8068 50.1062 16.8791 45.531 20.4102C45.1011 20.7421 45.0214 21.3596 45.3532 21.7896C45.6851 22.2196 46.3029 22.299 46.7326 21.9673C50.718 18.8915 54.4121 15.4157 57.7428 11.611C57.8155 13.2458 59.1683 14.5536 60.821 14.5536C62.5199 14.5536 63.9022 13.1713 63.9022 11.4724V3.08103C63.902 2.19773 63.5223 1.35565 62.8601 0.771105Z" fill="#0A7F2E"/>
</svg>
