<svg width="67" height="67" viewBox="0 0 67 67" fill="none" xmlns="http://www.w3.org/2000/svg">
<g clip-path="url(#clip0)">
<path d="M66.0166 65.0333H59.6575V26.1576C59.6575 25.6145 59.2173 25.1742 58.6741 25.1742H48.1849C47.6417 25.1742 47.2015 25.6145 47.2015 26.1576V65.0333H39.728V37.6957C39.728 37.1527 39.2878 36.7123 38.7446 36.7123H28.2554C27.7122 36.7123 27.272 37.1527 27.272 37.6957V65.0333H19.7985V42.9403C19.7985 42.3972 19.3583 41.9569 18.8151 41.9569H8.32593C7.78273 41.9569 7.34252 42.3972 7.34252 42.9403V65.0332H0.983408C0.440211 65.0332 0 65.4735 0 66.0166C0 66.5596 0.440211 67 0.983408 67H66.0166C66.5598 67 67 66.5596 67 66.0166C66.9999 65.4735 66.5598 65.0333 66.0166 65.0333ZM17.8317 65.0333H9.30921V43.9237H17.8317V65.0333ZM37.7613 65.0333H29.2388V38.6791H37.7613V65.0333ZM57.6908 65.0333H49.1683V27.141H57.6908V65.0333Z" fill="#0A7F2E"/>
<path d="M63.8601 0.771105C63.1973 0.186032 62.3152 -0.0865476 61.4385 0.0236359L53.0471 1.0726C51.3813 1.2808 50.1635 2.84444 50.3719 4.51198C50.5825 6.19706 52.1241 7.39795 53.8114 7.18727L54.4961 7.10182C44.1968 19.0435 31.9527 25.2151 23.3005 28.3167C12.5124 32.1843 4.1155 32.5151 4.03372 32.5178C2.33739 32.5708 0.998958 33.9942 1.05025 35.6908C1.10103 37.3663 2.4532 38.6787 4.12885 38.6787C4.16 38.6787 4.19127 38.6783 4.22333 38.6773C4.59667 38.666 13.4979 38.3517 25.2248 34.1731C31.8173 31.8239 38.0205 28.7054 43.662 24.9043C44.1124 24.601 44.2315 23.9896 43.9279 23.5393C43.6246 23.0888 43.0135 22.9698 42.5629 23.2733C37.0579 26.9826 31.0024 30.0265 24.5646 32.3205C13.1258 36.3964 4.52418 36.7005 4.16445 36.7114L4.12885 36.7119C3.52324 36.7119 3.03434 36.2373 3.01602 35.6313C2.99744 35.0175 3.48162 34.5027 4.09561 34.4835C4.18146 34.4807 12.8179 34.1638 23.9643 30.168C33.3022 26.8205 46.7198 19.9853 57.6116 6.433C58.1539 5.75829 57.5806 4.73379 56.7233 4.84122L53.5681 5.23563C53.0211 5.30329 52.4898 4.94486 52.3509 4.4107C52.1839 3.76791 52.6331 3.10629 53.2913 3.02385L61.6829 1.97488C62.3381 1.89205 62.9354 2.42163 62.9354 3.08077V11.4721C62.9354 12.0866 62.4355 12.5867 61.8208 12.5867C61.2062 12.5867 60.7063 12.0868 60.7063 11.4721V8.92822C60.7063 8.52635 60.4464 8.15053 60.0706 8.00854C59.6823 7.86185 59.2235 7.98499 58.961 8.30638C55.2882 12.8068 51.1062 16.8791 46.531 20.4102C46.1011 20.7421 46.0214 21.3596 46.3532 21.7896C46.6851 22.2196 47.3029 22.299 47.7326 21.9673C51.718 18.8915 55.4121 15.4157 58.7428 11.611C58.8155 13.2458 60.1683 14.5536 61.821 14.5536C63.5199 14.5536 64.9022 13.1713 64.9022 11.4724V3.08103C64.902 2.19773 64.5223 1.35565 63.8601 0.771105Z" fill="#0A7F2E"/>
</g>
<defs>
<clipPath id="clip0">
<rect width="67" height="67" fill="white"/>
</clipPath>
</defs>
</svg>
