<svg width="67" height="67" viewBox="0 0 67 67" fill="none" xmlns="http://www.w3.org/2000/svg">
<path d="M66.3931 31.5199C66.0256 31.3676 65.6027 31.4517 65.3213 31.7329L62.3761 34.6782V14.6526C62.3761 14.1094 61.9357 13.6692 61.3927 13.6692H53.8367L56.5795 10.9264C56.5799 10.926 56.5803 10.9255 56.5807 10.9251L59.2235 8.28222C59.7898 7.71599 60.1016 6.96277 60.1016 6.1619C60.1016 5.36104 59.7898 4.60808 59.2235 4.04159L56.1674 0.98549C55.6012 0.41926 54.848 0.107422 54.0471 0.107422C53.2463 0.107422 52.4932 0.41926 51.9268 0.98549L49.2827 3.62964L46.0876 6.82471L39.2432 13.6691H8.71787V3.9403C8.71787 3.3971 8.27753 2.95689 7.73446 2.95689C3.46974 2.95715 0 6.42663 0 10.6916V52.4602C0 52.5328 0.00837502 52.6035 0.023293 52.6715C0.159125 54.4812 0.942059 56.1626 2.25052 57.439C3.64915 58.8031 5.49545 59.5543 7.44945 59.5543H37.4998L31.8402 65.2139C31.559 65.4952 31.4749 65.918 31.6271 66.2856C31.7793 66.6531 32.138 66.8927 32.5356 66.8927H66.0167C66.5598 66.8927 67.0001 66.4525 67.0001 65.9093V32.4284C67.0001 32.0308 66.7604 31.6721 66.3931 31.5199ZM53.3178 2.3764C53.7198 1.97413 54.3748 1.97413 54.7768 2.3764L57.833 5.43262C58.2353 5.83476 58.2353 6.48945 57.833 6.89171L55.8844 8.84047L51.3689 4.32516L53.3178 2.3764ZM49.9782 5.71593L54.4935 10.2311L52.6891 12.0355L48.174 7.52036L49.9782 5.71593ZM65.0336 43.4785H63.2192C62.676 43.4785 62.2358 43.9187 62.2358 44.4619C62.2358 45.0051 62.676 45.4453 63.2192 45.4453H65.0336V48.4088H63.2192C62.676 48.4088 62.2358 48.849 62.2358 49.3922C62.2358 49.9354 62.676 50.3756 63.2192 50.3756H65.0336V53.3389H63.2192C62.676 53.3389 62.2358 53.7791 62.2358 54.3223C62.2358 54.8655 62.676 55.3057 63.2192 55.3057H65.0336V58.2692H63.2192C62.676 58.2692 62.2358 58.7095 62.2358 59.2526C62.2358 59.7958 62.676 60.236 63.2192 60.236H65.0336V64.9263H34.9097L44.843 54.9931C45.2271 54.6089 45.2271 53.9864 44.843 53.6023C44.7989 53.5582 44.7515 53.52 44.7019 53.486C44.319 53.2237 43.7922 53.2623 43.4521 53.6023L39.4666 57.5878H7.44958C4.46702 57.5878 2.06601 55.2593 1.97153 52.2821C1.97716 52.0952 1.99168 51.9099 2.01498 51.7267C2.01511 51.7257 2.01524 51.7246 2.01537 51.7236C2.02636 51.6365 2.03958 51.5499 2.05463 51.4638C2.05633 51.454 2.05816 51.4442 2.05986 51.4344C2.0736 51.3575 2.08904 51.2811 2.10592 51.205C2.11064 51.1838 2.11561 51.1626 2.12058 51.1415C2.1355 51.0771 2.15159 51.0131 2.16887 50.9494C2.17829 50.9148 2.1881 50.8807 2.19818 50.8463C2.21257 50.7963 2.22749 50.7464 2.24333 50.6971C2.25916 50.6478 2.27604 50.599 2.29318 50.5501C2.30509 50.516 2.31687 50.4818 2.32969 50.4479C2.35364 50.3836 2.37903 50.3198 2.4052 50.2566C2.41266 50.2384 2.41999 50.22 2.42771 50.2018C2.46134 50.1233 2.49628 50.0457 2.53318 49.969C2.53475 49.9657 2.53619 49.9625 2.53776 49.9592C3.30695 48.3674 4.78632 47.1806 6.5617 46.8124C6.56667 46.8114 6.57164 46.8102 6.57661 46.8091C6.65801 46.7925 6.74019 46.7782 6.82289 46.765C6.83663 46.7628 6.85037 46.7601 6.86437 46.758C6.93909 46.7466 7.0146 46.7377 7.09011 46.7292C7.11131 46.7268 7.13237 46.7235 7.1537 46.7215C7.22659 46.7141 7.30014 46.7093 7.37368 46.7047C7.39697 46.7033 7.42027 46.7008 7.44356 46.6996C7.53987 46.6948 7.63697 46.6923 7.73446 46.6923C8.27753 46.6923 8.71787 46.2521 8.71787 45.7089V38.5785C8.71787 38.0353 8.27753 37.595 7.73446 37.595C7.19139 37.595 6.75105 38.0353 6.75105 38.5785V44.7873C5.09044 44.9974 3.54904 45.738 2.33362 46.9249C2.20577 47.0498 2.08459 47.1796 1.96656 47.3115V10.6916C1.96656 7.84659 4.03754 5.47581 6.75092 5.00759V14.6526V34.6449V34.6451C6.75092 35.1881 7.19126 35.6285 7.73433 35.6285C8.2774 35.6285 8.71774 35.1881 8.71774 34.6451V34.6449V15.636H37.2765L31.8401 21.0724C31.456 21.4566 31.456 22.0791 31.8401 22.4632C32.2242 22.8472 32.8468 22.8472 33.2308 22.4632L40.346 15.348C40.3463 15.3477 40.3464 15.3475 40.3466 15.3473L46.783 8.911L51.298 13.4263L50.7683 13.956C50.7679 13.9564 50.7674 13.9568 50.767 13.9572L30.9381 33.7864L26.4229 29.2712L30.3314 25.3627C30.7155 24.9785 30.7155 24.356 30.3314 23.9719C29.9474 23.588 29.3247 23.588 28.9408 23.9719L24.3368 28.5758C24.3122 28.6004 24.2891 28.6264 24.2675 28.6531C24.2603 28.662 24.2539 28.6716 24.2471 28.6809C24.2332 28.6993 24.2196 28.7179 24.2069 28.7373C24.1997 28.7485 24.1932 28.7601 24.1864 28.7717C24.1755 28.79 24.1651 28.8086 24.1555 28.8276C24.1492 28.8399 24.1436 28.8523 24.1378 28.8651C24.1291 28.8844 24.121 28.904 24.1135 28.9236C24.1109 28.9306 24.1075 28.9371 24.105 28.944L22.1891 34.3714L20.8828 38.072C20.8656 38.1212 20.8531 38.1712 20.8438 38.2216H17.5734C17.0303 38.2216 16.59 38.6618 16.59 39.205C16.59 39.7482 17.0303 40.1884 17.5734 40.1884H44.8071C45.3503 40.1884 45.7905 39.7482 45.7905 39.205C45.7905 38.6618 45.3503 38.2216 44.8071 38.2216H25.2681L31.2654 36.1045C31.2704 36.1027 31.2751 36.1002 31.28 36.0984C31.3033 36.0898 31.3262 36.0801 31.3489 36.0697C31.3579 36.0656 31.3669 36.0616 31.3757 36.0573C31.3992 36.0455 31.4224 36.0326 31.4452 36.0187C31.4525 36.0143 31.4601 36.0102 31.4673 36.0056C31.491 35.9904 31.514 35.9738 31.5367 35.9563C31.5423 35.952 31.5482 35.9482 31.5537 35.9437C31.581 35.9217 31.6078 35.8981 31.6332 35.8727L51.8699 15.6361H60.4091V36.6451L46.3422 50.7121C45.9582 51.0964 45.9582 51.7188 46.3422 52.1029C46.3662 52.1269 46.3912 52.1494 46.417 52.1704C46.5973 52.3174 46.8175 52.3909 47.0376 52.3909C47.2577 52.3909 47.4781 52.3174 47.6583 52.1704C47.6841 52.1495 47.7091 52.1269 47.733 52.1029C47.7334 52.1025 47.733 52.1029 47.7334 52.1025L65.0336 34.8022V43.4785ZM29.1394 34.769L26.3225 35.7634L24.4458 33.8866L25.4402 31.0697L29.1394 34.769Z" fill="#0A7F2E"/>
</svg>
