<svg width="67" height="67" viewBox="0 0 67 67" fill="none" xmlns="http://www.w3.org/2000/svg">
<path d="M55.8564 0C49.7119 0 44.7129 4.99896 44.7129 11.1435C44.7129 13.883 45.7162 16.5164 47.5381 18.5587C47.8989 18.9632 48.5195 18.9988 48.9238 18.6378C49.3283 18.277 49.3638 17.6566 49.0029 17.2521C47.5022 15.5698 46.6758 13.4004 46.6758 11.1435C46.6758 6.0813 50.7942 1.96289 55.8564 1.96289C60.9185 1.96289 65.0369 6.08117 65.0369 11.1433C65.0369 16.2055 60.9186 20.3239 55.8564 20.3239C55.4856 20.3239 55.1124 20.3017 54.7468 20.2577C54.2112 20.1932 53.7199 20.5767 53.6552 21.1149C53.5904 21.6532 53.9743 22.1418 54.5124 22.2066C54.9555 22.2598 55.4076 22.2869 55.8564 22.2869C62.0009 22.2869 66.9998 17.2881 66.9998 11.1435C66.9998 4.99896 62.0009 0 55.8564 0Z" fill="#0A7F2E"/>
<path d="M54.3055 17.005C54.8009 17.1362 55.3205 17.2061 55.8565 17.2061C59.1995 17.2061 61.919 14.4864 61.919 11.1436C61.919 7.80083 59.1995 5.08118 55.8565 5.08118C52.5136 5.08118 49.7941 7.80083 49.7941 11.1436C49.7941 13.2515 50.8751 15.1114 52.5123 16.1981L42.3299 35.6372C42.1035 35.5914 41.8691 35.5674 41.6295 35.5674C40.6706 35.5674 39.7998 35.9526 39.1641 36.5764L24.735 28.46C24.7955 28.2019 24.8274 27.933 24.8274 27.6569C24.8274 25.715 23.2474 24.135 21.3055 24.135C19.3635 24.135 17.7835 25.715 17.7835 27.6569C17.7835 28.6773 18.2198 29.5979 18.9157 30.2418L4.03963 59.9941C3.87069 59.9691 3.69769 59.9561 3.52195 59.9561C1.58 59.9561 0 61.5361 0 63.4781C0 65.42 1.58 67 3.52195 67C5.4639 67 7.0439 65.42 7.0439 63.4781C7.0439 62.4152 6.57071 61.4609 5.8239 60.8146L20.6705 31.1214C20.8767 31.1591 21.0888 31.1787 21.3056 31.1787C22.2644 31.1787 23.1353 30.7935 23.771 30.1697L38.2001 38.2861C38.1396 38.544 38.1077 38.8131 38.1077 39.0892C38.1077 41.0311 39.6876 42.6111 41.6296 42.6111C43.5717 42.6111 45.1516 41.0311 45.1516 39.0892C45.1516 38.0925 44.7356 37.1912 44.0678 36.5498L54.3055 17.005ZM51.757 11.1435C51.757 8.88303 53.5961 7.04394 55.8565 7.04394C58.117 7.04394 59.9561 8.88303 59.9561 11.1435C59.9561 13.404 58.117 15.2431 55.8565 15.2431C53.5959 15.2431 51.757 13.404 51.757 11.1435ZM3.52195 65.0371C2.66233 65.0371 1.96289 64.3377 1.96289 63.4781C1.96289 62.6185 2.66233 61.919 3.52195 61.919C4.38156 61.919 5.08101 62.6185 5.08101 63.4781C5.08101 64.3377 4.38156 65.0371 3.52195 65.0371ZM21.3056 29.216C20.446 29.216 19.7465 28.5165 19.7465 27.6569C19.7465 26.7973 20.446 26.0978 21.3056 26.0978C22.1652 26.0978 22.8647 26.7973 22.8647 27.6569C22.8647 28.5165 22.1652 29.216 21.3056 29.216ZM41.6296 40.6482C40.77 40.6482 40.0706 39.9488 40.0706 39.0892C40.0706 38.2296 40.77 37.5301 41.6296 37.5301C42.4893 37.5301 43.1887 38.2296 43.1887 39.0892C43.1887 39.9488 42.4893 40.6482 41.6296 40.6482Z" fill="#0A7F2E"/>
</svg>
