<svg width="67" height="67" viewBox="0 0 67 67" fill="none" xmlns="http://www.w3.org/2000/svg">
<path d="M48.8298 2.63323L10.1687 0.0473158C8.90838 -0.0361725 7.81531 0.919493 7.73091 2.17941L7.42849 6.70151H2.29004C1.02738 6.70151 0 7.72889 0 8.99155V64.6678C0 65.9304 1.02738 66.9578 2.29004 66.9578H31.8827C32.1392 66.9578 32.3933 66.853 32.5752 66.6719L37.0425 62.2244C37.0879 62.234 37.1342 62.2418 37.1819 62.2449L44.8086 62.755C46.0259 62.8353 47.1647 61.8453 47.2464 60.6229L50.9619 5.07114C51.0455 3.82431 50.0765 2.71658 48.8298 2.63323ZM32.8642 63.6009V56.7831C32.8642 56.6028 33.011 56.4559 33.1913 56.4559H39.9829L32.8642 63.6009ZM45.2878 60.492C45.2559 60.6896 45.1398 60.7912 44.9397 60.7966L38.8836 60.3914L43.0386 56.2548C43.2236 56.0707 43.3277 55.8204 43.3277 55.5593V8.99168C43.3277 7.72902 42.3003 6.70164 41.0376 6.70164H30.8315C29.5626 6.70164 29.5626 8.66454 30.8315 8.66454H41.0376C41.2181 8.66454 41.3648 8.81136 41.3648 8.99168V54.4931H33.1913C31.9286 54.4931 30.9013 55.5204 30.9013 56.7831V64.9949H2.29004C2.10971 64.9949 1.96289 64.8481 1.96289 64.6678V8.99168C1.96289 8.81136 2.10971 8.66454 2.29004 8.66454H25.605C26.8739 8.66454 26.8739 6.70164 25.605 6.70164H9.3957L9.68935 2.31053C9.72128 2.1128 9.83735 2.01138 10.0376 2.00602L48.6987 4.5918C48.8964 4.62373 48.9979 4.7398 49.0033 4.94002L45.2878 60.492Z" fill="#0A7F2E"/>
<path d="M35.048 31.0199H8.28027C7.73825 31.0199 7.29883 31.4593 7.29883 32.0013C7.29883 32.5434 7.73825 32.9828 8.28027 32.9828H35.048C35.5901 32.9828 36.0294 32.5434 36.0294 32.0013C36.0294 31.4593 35.5901 31.0199 35.048 31.0199Z" fill="#0A7F2E"/>
<path d="M35.048 37.8618H8.28027C7.73825 37.8618 7.29883 38.3012 7.29883 38.8433C7.29883 39.3853 7.73825 39.8247 8.28027 39.8247H35.048C35.5901 39.8247 36.0294 39.3853 36.0294 38.8433C36.0294 38.3012 35.5901 37.8618 35.048 37.8618Z" fill="#0A7F2E"/>
<path d="M7.29883 25.1593C7.29883 25.7013 7.73825 26.1407 8.28027 26.1407H35.048C35.5901 26.1407 36.0294 25.7013 36.0294 25.1593C36.0294 24.6173 35.5901 24.1779 35.048 24.1779H8.28027C7.73825 24.1779 7.29883 24.6173 7.29883 25.1593Z" fill="#0A7F2E"/>
<path d="M12.0137 18.3174C12.0137 18.8594 12.4531 19.2988 12.9951 19.2988H30.3323C30.8743 19.2988 31.3137 18.8594 31.3137 18.3174C31.3137 17.7754 30.8743 17.3359 30.3323 17.3359H12.9951C12.4531 17.3359 12.0137 17.7754 12.0137 18.3174Z" fill="#0A7F2E"/>
<path d="M25.4856 57.4196C23.7205 57.4243 21.9553 57.4281 20.1902 57.4308C19.5968 57.4318 19.0037 57.4325 18.4105 57.4329C17.3355 57.4337 16.6112 57.2179 16.3704 56.0355C16.1668 55.0357 14.7524 55.1701 14.4776 56.0355C13.7985 58.1733 12.6752 57.3357 12.046 55.8977C11.4183 54.4631 11.2573 52.8574 10.9832 51.3307C10.7816 50.2088 9.08491 50.5233 9.05533 51.5916C9.01634 52.9985 8.88495 54.383 8.52784 55.7475C8.15947 57.1552 7.60737 58.5082 7.05933 59.8533C6.58157 61.0259 8.48138 61.5304 8.95208 60.3752C9.4377 59.1833 9.92398 57.9849 10.2859 56.7485C10.9586 58.366 12.3501 60.1954 14.333 59.1172C14.7019 58.9166 15.0465 58.6315 15.3489 58.299C16.3801 59.4906 17.9149 59.3966 19.3511 59.3949C21.396 59.3923 23.441 59.3878 25.4859 59.3825C26.7486 59.3792 26.7509 57.4163 25.4856 57.4196Z" fill="#0A7F2E"/>
<path d="M66.2062 32.2489C65.6963 31.7414 64.9951 31.4811 64.2832 31.4619L63.5415 31.4655V30.0629C63.5415 29.2085 63.034 28.3058 62.3071 27.8563V25.8806C62.3071 21.8149 55.9772 21.8326 55.9772 25.8997V27.8757C55.2367 28.3334 54.7399 29.1504 54.7399 30.0809V31.518C51.4729 31.7405 51.4636 36.719 54.7436 36.9136C54.7645 41.3072 54.7635 45.6288 54.7399 50.096C54.7335 51.3279 56.6961 51.4001 56.7028 50.1063C56.7264 45.6354 56.7274 41.31 56.7066 36.9127L61.576 36.8885C61.576 36.8885 61.5697 51.394 61.5697 57.9286C61.5697 61.1134 56.6993 61.1346 56.6993 57.8955L56.701 56.1057C56.7775 54.839 54.8183 54.7208 54.7416 55.9874V57.6668C54.7416 59.1063 55.1868 60.3254 56.0486 61.1829C56.1253 63.2365 56.9906 65.2236 58.4524 66.6732C58.8718 67.0894 59.4524 66.9622 59.8584 66.6494C61.3456 65.1596 62.1836 63.1955 62.2359 61.0992C62.8838 60.4539 63.5325 59.8042 63.5325 57.5796L63.5333 48.6352C65.2305 49.1179 67.0003 47.8045 67.0003 46.0251V34.1598C67.0003 33.4371 66.7183 32.7584 66.2062 32.2489ZM56.7028 31.4994V30.0808C56.7028 29.7904 56.9021 29.5469 57.1704 29.4745L61.0994 29.455C61.2093 29.4822 61.3108 29.5342 61.3929 29.6161C61.5127 29.7353 61.5786 29.8939 61.5786 30.0629V31.4753L56.7028 31.4994ZM59.1461 24.6947C59.7486 24.6947 60.3441 25.2854 60.3441 25.8806V27.4726L57.94 27.4845V25.8997C57.9401 25.2385 58.4808 24.698 59.1461 24.6947ZM59.1446 64.463C58.6883 63.8163 58.3583 63.0849 58.1741 62.3161C58.4779 62.382 58.7857 62.4163 59.0936 62.4163C59.4374 62.4163 59.781 62.3736 60.1194 62.291C59.9396 63.0715 59.6101 63.8073 59.1446 64.463ZM65.0374 46.0251C65.0374 46.9543 63.5388 47.0275 63.5388 46.0422C63.5388 46.0422 63.5405 36.7546 63.5415 35.9032C63.5422 35.3541 63.0857 34.9206 62.5525 34.9206L54.9117 34.9586C53.9641 34.9586 53.9862 33.4758 54.9214 33.4712L64.2929 33.4248C64.7461 33.4634 64.9942 33.7085 65.0372 34.1598V46.0251H65.0374Z" fill="#0A7F2E"/>
</svg>
