<svg width="67" height="49" viewBox="0 0 67 49" fill="none" xmlns="http://www.w3.org/2000/svg">
<path d="M62.0928 0.356445H58.6563C58.1141 0.356445 57.6748 0.79574 57.6748 1.33789C57.6748 1.88004 58.1141 2.31934 58.6563 2.31934H62.0928C63.7162 2.31934 65.0371 3.64023 65.0371 5.26367V9.77832H1.96289V5.26367C1.96289 3.64023 3.28365 2.31934 4.90723 2.31934H54.3471C54.8892 2.31934 55.3285 1.88004 55.3285 1.33789C55.3285 0.79574 54.8892 0.356445 54.3471 0.356445H4.90723C2.20132 0.356445 0 2.55776 0 5.26367V16.0833C0 16.6254 0.439426 17.0647 0.981445 17.0647C1.52346 17.0647 1.96289 16.6254 1.96289 16.0833V11.7412H65.0371V37.045C65.0371 37.5871 65.4764 38.0264 66.0186 38.0264C66.5607 38.0264 67 37.5871 67 37.045V5.26367C67 2.55776 64.7987 0.356445 62.0928 0.356445Z" fill="#0A7F2E"/>
<path d="M66.0186 40.2024C65.4764 40.2024 65.0371 40.6417 65.0371 41.1839V43.7364C65.0371 45.3598 63.7162 46.6807 62.0928 46.6807H4.90723C3.28365 46.6807 1.96289 45.3598 1.96289 43.7364V20.2952C1.96289 19.753 1.52346 19.3137 0.981445 19.3137C0.439426 19.3137 0 19.753 0 20.2952V43.7364C0 46.4423 2.20132 48.6436 4.90723 48.6436H62.0928C64.7987 48.6436 67 46.4423 67 43.7364V41.1839C67 40.6418 66.5607 40.2024 66.0186 40.2024Z" fill="#0A7F2E"/>
<path d="M14.1953 21.6809C13.812 21.2978 13.1906 21.2978 12.8074 21.6809L6.90957 27.5788C6.72545 27.7629 6.62207 28.0124 6.62207 28.2728C6.62207 28.5332 6.72545 28.7827 6.90957 28.9669L12.7294 34.7867C12.921 34.9783 13.1722 35.0741 13.4234 35.0741C13.6745 35.0741 13.9257 34.9783 14.1173 34.7867C14.5006 34.4033 14.5006 33.782 14.1173 33.3987L8.99141 28.273L14.1953 23.0691C14.5787 22.6857 14.5787 22.0643 14.1953 21.6809Z" fill="#0A7F2E"/>
<path d="M27.3948 34.7865C27.5863 34.9781 27.8376 35.0739 28.0887 35.0739C28.3398 35.0739 28.5911 34.9781 28.7826 34.7865L34.6026 28.9667C34.7866 28.7825 34.89 28.533 34.89 28.2726C34.89 28.0122 34.7866 27.7628 34.6026 27.5785L28.7047 21.6807C28.3214 21.2975 27.6999 21.2975 27.3168 21.6807C26.9335 22.0641 26.9335 22.6854 27.3168 23.0687L32.5208 28.2726L27.3949 33.3983C27.0115 33.7819 27.0115 34.4032 27.3948 34.7865Z" fill="#0A7F2E"/>
<path d="M17.2725 38.4017C17.6683 38.4017 18.0414 38.1604 18.1902 37.7682L25.1642 19.3958C25.3566 18.889 25.1017 18.3222 24.595 18.1299C24.0883 17.9374 23.5214 18.1924 23.3292 18.6991L16.3552 37.0718C16.1628 37.5785 16.4177 38.1452 16.9244 38.3376C17.039 38.3811 17.1567 38.4017 17.2725 38.4017Z" fill="#0A7F2E"/>
<path d="M4.31934 6.09741C4.31934 7.72085 5.6401 9.04175 7.26367 9.04175C8.88724 9.04175 10.208 7.72085 10.208 6.09741C10.208 4.47397 8.88724 3.15308 7.26367 3.15308C5.6401 3.15308 4.31934 4.47397 4.31934 6.09741ZM8.24512 6.09741C8.24512 6.63865 7.80491 7.07886 7.26367 7.07886C6.72244 7.07886 6.28223 6.63865 6.28223 6.09741C6.28223 5.55618 6.72244 5.11597 7.26367 5.11597C7.80491 5.11597 8.24512 5.55618 8.24512 6.09741Z" fill="#0A7F2E"/>
<path d="M11.9297 6.09741C11.9297 7.72085 13.2505 9.04175 14.874 9.04175C16.4976 9.04175 17.8184 7.72085 17.8184 6.09741C17.8184 4.47397 16.4976 3.15308 14.874 3.15308C13.2505 3.15308 11.9297 4.47397 11.9297 6.09741ZM15.8555 6.09741C15.8555 6.63865 15.4153 7.07886 14.874 7.07886C14.3328 7.07886 13.8926 6.63865 13.8926 6.09741C13.8926 5.55618 14.3328 5.11597 14.874 5.11597C15.4153 5.11597 15.8555 5.55618 15.8555 6.09741Z" fill="#0A7F2E"/>
<path d="M19.541 6.09741C19.541 7.72085 20.8618 9.04175 22.4854 9.04175C24.1089 9.04175 25.4297 7.72085 25.4297 6.09741C25.4297 4.47397 24.1089 3.15308 22.4854 3.15308C20.8618 3.15308 19.541 4.47397 19.541 6.09741ZM23.4668 6.09741C23.4668 6.63865 23.0266 7.07886 22.4854 7.07886C21.9441 7.07886 21.5039 6.63865 21.5039 6.09741C21.5039 5.55618 21.9441 5.11597 22.4854 5.11597C23.0266 5.11597 23.4668 5.55618 23.4668 6.09741Z" fill="#0A7F2E"/>
<path d="M43.9033 22.7161H50.0537C51.6772 22.7161 52.998 21.3952 52.998 19.7717C52.998 18.1483 51.6772 16.8274 50.0537 16.8274H43.9033C42.2799 16.8274 40.959 18.1483 40.959 19.7717C40.959 21.3952 42.2799 22.7161 43.9033 22.7161ZM43.9033 18.7903H50.0537C50.5949 18.7903 51.0352 19.2305 51.0352 19.7717C51.0352 20.313 50.5949 20.7532 50.0537 20.7532H43.9033C43.3621 20.7532 42.9219 20.313 42.9219 19.7717C42.9219 19.2305 43.3621 18.7903 43.9033 18.7903Z" fill="#0A7F2E"/>
<path d="M43.9033 30.5676H60.1299C61.7533 30.5676 63.0742 29.2467 63.0742 27.6233C63.0742 25.9998 61.7533 24.679 60.1299 24.679H43.9033C42.2799 24.679 40.959 25.9998 40.959 27.6233C40.959 29.2467 42.2799 30.5676 43.9033 30.5676ZM43.9033 26.6418H60.1299C60.6711 26.6418 61.1113 27.0821 61.1113 27.6233C61.1113 28.1645 60.6711 28.6047 60.1299 28.6047H43.9033C43.3621 28.6047 42.9219 28.1645 42.9219 27.6233C42.9219 27.0821 43.3621 26.6418 43.9033 26.6418Z" fill="#0A7F2E"/>
<path d="M43.9033 38.4192H55.3097C56.9331 38.4192 58.254 37.0983 58.254 35.4749C58.254 33.8514 56.9331 32.5305 55.3097 32.5305H43.9033C42.2799 32.5305 40.959 33.8514 40.959 35.4749C40.959 37.0983 42.2799 38.4192 43.9033 38.4192ZM43.9033 34.4934H55.3097C55.8509 34.4934 56.2911 34.9336 56.2911 35.4749C56.2911 36.0161 55.8509 36.4563 55.3097 36.4563H43.9033C43.3621 36.4563 42.9219 36.0161 42.9219 35.4749C42.9219 34.9336 43.3621 34.4934 43.9033 34.4934Z" fill="#0A7F2E"/>
</svg>
