<svg width="12" height="12" viewBox="0 0 12 12" fill="none" xmlns="http://www.w3.org/2000/svg">
<path d="M8.33203 3.66669C9.26029 3.66669 10.1505 4.03544 10.8069 4.69181C11.4633 5.34819 11.832 6.23843 11.832 7.16669V11.25H9.4987V7.16669C9.4987 6.85727 9.37578 6.56052 9.15699 6.34173C8.9382 6.12294 8.64145 6.00002 8.33203 6.00002C8.02261 6.00002 7.72587 6.12294 7.50707 6.34173C7.28828 6.56052 7.16536 6.85727 7.16536 7.16669V11.25H4.83203V7.16669C4.83203 6.23843 5.20078 5.34819 5.85716 4.69181C6.51354 4.03544 7.40377 3.66669 8.33203 3.66669Z" fill="#101010"/>
<path d="M0.166016 4.25H2.49935V11.25H0.166016V4.25Z" fill="#101010"/>
<path d="M1.33268 2.50002C1.97701 2.50002 2.49935 1.97769 2.49935 1.33335C2.49935 0.689021 1.97701 0.166687 1.33268 0.166687C0.68835 0.166687 0.166016 0.689021 0.166016 1.33335C0.166016 1.97769 0.68835 2.50002 1.33268 2.50002Z" fill="#101010"/>
</svg>
