<svg width="20" height="20" viewBox="0 0 20 20" fill="none" xmlns="http://www.w3.org/2000/svg">
<path d="M9.99875 0.208252C4.4775 0.208252 0 4.70325 0 10.2483C0 14.6833 2.865 18.4458 6.84 19.7745C7.34 19.867 7.5225 19.557 7.5225 19.2908C7.5225 19.052 7.51375 18.4208 7.50875 17.5833C4.7275 18.1895 4.14 16.237 4.14 16.237C3.68625 15.077 3.03 14.7683 3.03 14.7683C2.12125 14.1458 3.0975 14.1583 3.0975 14.1583C4.10125 14.2295 4.62875 15.1933 4.62875 15.1933C5.52125 16.727 6.97 16.2845 7.54 16.027C7.63 15.3783 7.88875 14.9358 8.175 14.6845C5.955 14.4308 3.62 13.5695 3.62 9.72325C3.62 8.627 4.01 7.73075 4.65 7.02825C4.54625 6.7745 4.20375 5.75325 4.7475 4.372C4.7475 4.372 5.5875 4.102 7.4975 5.40075C8.295 5.17825 9.15 5.067 10.0013 5.06325C10.85 5.06825 11.7062 5.17825 12.505 5.402C14.4137 4.10325 15.2525 4.37325 15.2525 4.37325C15.7975 5.75575 15.455 6.77575 15.3525 7.0295C15.9937 7.732 16.38 8.62825 16.38 9.7245C16.38 13.5808 14.0425 14.4295 11.815 14.6783C12.1737 14.9883 12.4937 15.6008 12.4937 16.537C12.4937 17.8795 12.4812 18.962 12.4812 19.2908C12.4812 19.5595 12.6613 19.872 13.1687 19.7733C17.1375 18.4433 20 14.682 20 10.2483C20 4.70325 15.5225 0.208252 9.99875 0.208252Z" fill="white"/>
</svg>
