<svg width="60" height="60" viewBox="0 0 60 60" fill="none" xmlns="http://www.w3.org/2000/svg">
<g clip-path="url(#clip0)">
<path d="M22.258 17.4194H20.9458C22.9238 15.8216 24.1936 13.38 24.1936 10.6452V7.5038C24.1936 3.3668 20.8268 0 16.6896 0H14.278C10.141 0 6.7742 3.3668 6.7742 7.5038V10.645C6.7742 13.3798 8.0438 15.8214 10.022 17.4192H8.7098C3.9068 17.4194 0 21.327 0 26.129V35.8064C0 39.0086 2.6042 41.6128 5.8064 41.6128V60H25.1612V41.613C28.3634 41.613 30.9676 39.0088 30.9676 35.8066V26.1292C30.9678 21.327 27.061 17.4194 22.258 17.4194ZM8.7096 7.5038C8.7096 4.4342 11.2074 1.9354 14.278 1.9354H16.6896C19.7602 1.9354 22.258 4.4342 22.258 7.5038V7.8774C21.7326 7.4342 21.2592 6.9194 20.8616 6.3222C20.2432 5.3932 19.2078 4.8386 18.09 4.8386H12.8768C11.76 4.8386 10.7236 5.3932 10.0722 6.3724C9.6938 6.9404 9.2292 7.4436 8.7096 7.8802V7.5038ZM8.7096 10.6452V10.23C9.8932 9.5322 10.9238 8.5848 11.7164 7.3946C11.9758 7.0066 12.4094 6.7742 12.8776 6.7742H18.0908C18.5582 6.7742 18.9928 7.0064 19.285 7.4458C20.0486 8.5906 21.0754 9.5332 22.258 10.23V10.6452C22.258 14.3806 19.2184 17.4194 15.4838 17.4194C11.7492 17.4194 8.7096 14.3806 8.7096 10.6452ZM19.1168 19.3548C18.5826 20.4784 17.1638 21.2902 15.4838 21.2902C13.8038 21.2902 12.385 20.4782 11.8508 19.3548H19.1168ZM5.8064 39.6774C3.6716 39.6774 1.9354 37.9412 1.9354 35.8064V28.0644H5.8064V39.6774ZM14.5162 58.0646H7.742V56.1292H14.5162V58.0646ZM23.2258 58.0646H16.4516V56.1292H23.2258V58.0646ZM23.226 54.1936H16.4516V43.5484H14.5162V54.1936H7.742V44.4184C9.9474 43.9684 11.613 42.0146 11.613 39.6774H19.355C19.355 42.0136 21.0204 43.9684 23.226 44.4184V54.1936ZM23.2258 30.9678V37.742H7.742V30.9678H23.2258ZM7.742 29.0322V27.0968H23.2258V29.0322H7.742ZM23.2258 39.6774V42.4026C22.1022 42.002 21.2904 40.9374 21.2904 39.6774H23.2258ZM9.6774 39.6774C9.6774 40.9374 8.8654 42.002 7.742 42.4026V39.6774H9.6774ZM29.0322 35.8064C29.0322 37.9412 27.2962 39.6774 25.1612 39.6774V28.0644H29.0322V35.8064ZM25.1612 26.129V24.1936H23.2258V25.1614H7.742V24.1936H5.8066V26.129H1.9354C1.9354 22.3936 4.975 19.3548 8.7096 19.3548H9.7944C10.3344 21.5602 12.6792 23.2258 15.4838 23.2258C18.2884 23.2258 20.6332 21.5604 21.1732 19.3548H22.258C25.9926 19.3548 29.0322 22.3936 29.0322 26.129H25.1612Z" fill="#0A7F2E"/>
<path d="M35.8067 29.0323H41.6131V30.9677H38.7099V32.9031H41.6131H51.2905H54.1937V30.9677H51.2905V29.0323H57.0969C58.6975 29.0323 60.0001 27.7297 60.0001 26.1291V12.5807C60.0003 10.9801 58.6977 9.67749 57.0971 9.67749H35.8067C34.2061 9.67749 32.9035 10.9801 32.9035 12.5807V26.1291C32.9035 27.7297 34.2061 29.0323 35.8067 29.0323ZM49.3551 30.9679H43.5487V29.0325H49.3551V30.9679ZM34.8391 12.5807C34.8391 12.0475 35.2725 11.6131 35.8067 11.6131H57.0971C57.6313 11.6131 58.0649 12.0477 58.0649 12.5809V23.2261H34.8391V12.5807ZM34.8391 25.1613H58.0649V26.1291C58.0649 26.6623 57.6313 27.0969 57.0971 27.0969H51.2907H41.6133H35.8069C35.2727 27.0969 34.8391 26.6623 34.8391 26.1291V25.1613Z" fill="#0A7F2E"/>
<path d="M32.9035 34.8386V46.4516H60.0003V34.8386H32.9035ZM58.0649 44.5162H34.8391V36.7742H58.0649V44.5162Z" fill="#0A7F2E"/>
<path d="M37.7416 37.7419H35.8062V39.6773H37.7416V37.7419Z" fill="#0A7F2E"/>
<path d="M41.613 37.7419H39.6776V39.6773H41.613V37.7419Z" fill="#0A7F2E"/>
<path d="M45.4837 37.7419H43.5483V39.6773H45.4837V37.7419Z" fill="#0A7F2E"/>
<path d="M49.3551 37.7419H47.4197V39.6773H49.3551V37.7419Z" fill="#0A7F2E"/>
<path d="M53.2257 37.7419H51.2903V39.6773H53.2257V37.7419Z" fill="#0A7F2E"/>
<path d="M57.0969 37.7419H55.1615V39.6773H57.0969V37.7419Z" fill="#0A7F2E"/>
<path d="M37.7416 41.613H35.8062V43.5484H37.7416V41.613Z" fill="#0A7F2E"/>
<path d="M53.226 41.613H39.6776V43.5484H53.226V41.613Z" fill="#0A7F2E"/>
<path d="M57.0969 41.613H55.1615V43.5484H57.0969V41.613Z" fill="#0A7F2E"/>
<path d="M42.8644 13.832L39.277 17.4194L42.8644 21.0068L44.2328 19.6384L42.0138 17.4194L44.2328 15.2004L42.8644 13.832Z" fill="#0A7F2E"/>
<path d="M48.671 15.2004L50.89 17.4194L48.671 19.6384L50.0394 21.0068L53.6268 17.4194L50.0394 13.832L48.671 15.2004Z" fill="#0A7F2E"/>
</g>
<defs>
<clipPath id="clip0">
<rect width="60" height="60" fill="white"/>
</clipPath>
</defs>
</svg>
