<svg width="60" height="60" viewBox="0 0 60 60" fill="none" xmlns="http://www.w3.org/2000/svg">
<path d="M25.1613 22.258C25.6958 22.258 26.129 21.8247 26.129 21.2903C26.129 20.7558 25.6958 20.3225 25.1613 20.3225C24.6268 20.3225 24.1935 20.7558 24.1935 21.2903C24.1935 21.8247 24.6268 22.258 25.1613 22.258Z" fill="#0A7F2E"/>
<path d="M34.8387 22.258C35.3732 22.258 35.8065 21.8247 35.8065 21.2903C35.8065 20.7558 35.3732 20.3225 34.8387 20.3225C34.3042 20.3225 33.871 20.7558 33.871 21.2903C33.871 21.8247 34.3042 22.258 34.8387 22.258Z" fill="#0A7F2E"/>
<path d="M31.9355 26.1292C31.9355 27.1966 31.0674 28.0646 30 28.0646C28.9326 28.0646 28.0645 27.1966 28.0645 26.1292H26.129C26.129 28.264 27.8652 30.0001 30 30.0001C32.1348 30.0001 33.871 28.264 33.871 26.1292H31.9355Z" fill="#0A7F2E"/>
<path d="M46.2619 37.5939L36.7742 35.0623V32.3981C38.43 31.0287 39.6561 29.1648 40.2474 27.0387C42.6445 26.7532 44.5161 24.7306 44.5161 22.2581V14.5161C44.5161 6.51194 38.0042 0 30 0C21.9958 0 15.4839 6.51194 15.4839 14.5161V22.2581C15.4839 24.7306 17.3555 26.7532 19.7526 27.0387C20.3439 29.1648 21.57 31.0287 23.2258 32.3981V35.0623L13.738 37.5929C10.7777 38.3826 8.70966 41.0739 8.70966 44.1377V60H51.2903V44.1377C51.2903 41.0729 49.2222 38.3826 46.2619 37.5939ZM40.6045 24.9958C40.6248 24.7297 40.6451 24.4645 40.6451 24.1935V19.5329C41.7687 19.9335 42.5806 20.9981 42.5806 22.2581C42.5806 23.5326 41.7493 24.6068 40.6045 24.9958ZM17.4193 22.2581C17.4193 20.9981 18.2313 19.9335 19.3548 19.5329V24.1935C19.3548 24.4645 19.3751 24.7297 19.3955 24.9958C18.2506 24.6068 17.4193 23.5326 17.4193 22.2581ZM19.3558 12.5806V17.5171C18.6368 17.6642 17.9855 17.9835 17.4203 18.4113V14.5161C17.4193 7.57935 23.0632 1.93548 30 1.93548C36.9368 1.93548 42.5806 7.57935 42.5806 14.5161V18.4123C42.0155 17.9845 41.3642 17.6642 40.6451 17.5181V12.5806H38.7097V16.4158C36.0813 16.2474 33.5545 15.3997 31.35 13.9297L27.4868 11.3545L28.7526 16.4177C25.9539 16.2116 23.3468 15.0571 21.2913 13.1235V12.5806H19.3558ZM21.2903 24.1935V15.631C23.7077 17.4116 26.61 18.3871 29.668 18.3871H31.2406L30.5768 15.7365C33.029 17.2984 35.8171 18.1887 38.7097 18.3523V24.1935C38.7097 28.9955 34.8029 32.9032 30 32.9032C25.198 32.9032 21.2903 28.9955 21.2903 24.1935ZM36.0416 36.871L36.7742 37.0664V43.7371L31.6471 40.5329L36.0416 36.871ZM30 39.3852L25.1613 35.3526V33.6629C26.6148 34.409 28.2571 34.8387 30 34.8387C31.7429 34.8387 33.3851 34.409 34.8387 33.6639V35.3526L30 39.3852ZM23.2258 37.0664L23.9584 36.871L28.3529 40.5329L23.2258 43.7371V37.0664ZM10.6451 44.1377C10.6451 42.0948 11.9409 40.2987 13.8329 39.6077C15.3668 43.3461 16.2348 47.2655 16.4119 51.2903H10.6451V44.1377ZM16.4516 58.0645H10.6451V53.2258H16.4516V58.0645ZM25.3093 58.0645H18.3871V52.8542C18.3871 48.0997 17.4764 43.4681 15.7026 39.0726L21.2903 37.5823V47.2306L25.5551 44.5645L27.058 47.5713L25.3093 58.0645ZM27.2709 58.0645L28.8842 48.3871H31.1158L32.729 58.0645H27.2709ZM31.3374 46.4516H28.6626L27.2042 43.5339L30 41.7861L32.7958 43.5339L31.3374 46.4516ZM41.6129 58.0645H34.6906L32.9419 47.5713L34.4448 44.5645L38.7097 47.2306V37.5823L44.2974 39.0726C42.5226 43.4681 41.6129 48.0997 41.6129 52.8542V58.0645ZM49.3548 58.0645H43.5484V53.2258H49.3548V58.0645ZM49.3548 51.2903H43.5871C43.7651 47.2655 44.6332 43.3461 46.1661 39.6077C48.059 40.2987 49.3548 42.0948 49.3548 44.1377V51.2903Z" fill="#0A7F2E"/>
</svg>
