<svg width="60" height="60" viewBox="0 0 60 60" fill="none" xmlns="http://www.w3.org/2000/svg">
<g clip-path="url(#clip0)">
<path d="M0 0V42.5806H16.4516V58.0645H3.87097V60H56.129V58.0645H43.5484V42.5806H60V0H0ZM18.3871 42.5806H20.3226V58.0645H18.3871V42.5806ZM37.7419 42.5806V58.0645H22.2581V42.5806H37.7419ZM41.6129 58.0645H39.6774V42.5806H41.6129V58.0645ZM58.0645 40.6452H1.93548V1.93548H58.0645V40.6452Z" fill="#0A7F2E"/>
<path d="M0 58.0645H1.93548V59.9999H0V58.0645Z" fill="#0A7F2E"/>
<path d="M58.0646 58.0645H60.0001V59.9999H58.0646V58.0645Z" fill="#0A7F2E"/>
<path d="M6.7742 19.3547C8.37466 19.3547 9.67742 18.052 9.67742 16.4515C9.67742 15.9511 9.53897 15.4866 9.31452 15.0755L14.373 9.45474C14.7155 9.59697 15.0898 9.6773 15.4839 9.6773C15.7121 9.6773 15.9328 9.64422 16.1459 9.59414L21.907 18.5543C21.5266 19.0462 21.2903 19.6548 21.2903 20.3225C21.2903 21.9229 22.5931 23.2257 24.1936 23.2257C25.794 23.2257 27.0968 21.9229 27.0968 20.3225C27.0968 20.0361 27.0424 19.7649 26.9649 19.5036L32.9207 15.1724C32.9179 15.2758 32.9032 15.3803 32.9032 15.4838C32.9032 21.8875 38.1124 27.0967 44.5161 27.0967C50.9199 27.0967 56.129 21.8875 56.129 15.4838C56.129 9.08002 50.9199 3.87085 44.5161 3.87085C40.3172 3.87085 36.511 6.09978 34.4408 9.71794C33.0289 9.91357 31.9355 11.1162 31.9355 12.5805C31.9355 12.8669 31.9898 13.1381 32.0683 13.3994L25.8356 17.931C25.3683 17.6097 24.8031 17.4192 24.1936 17.4192C23.9653 17.4192 23.7446 17.4523 23.5315 17.5024L17.7704 8.54228C18.1508 8.05038 18.3871 7.44176 18.3871 6.77408C18.3871 5.17362 17.0843 3.87085 15.4839 3.87085C13.8834 3.87085 12.5806 5.17362 12.5806 6.77408C12.5806 7.27449 12.7191 7.73898 12.9436 8.15008L7.88417 13.7708C7.54253 13.6286 7.16687 13.5483 6.7742 13.5483C5.17374 13.5483 3.87097 14.851 3.87097 16.4515C3.87097 18.052 5.17374 19.3547 6.7742 19.3547ZM45.4839 5.85548C46.6945 5.97644 47.8357 6.32895 48.8729 6.85535L45.4839 10.2443V5.85548ZM45.4839 25.112V16.4515H54.1444C53.6894 21.0161 50.0485 24.657 45.4839 25.112ZM49.7555 14.516L53.1455 11.1261C53.6719 12.1642 54.0244 13.3054 54.1453 14.516H49.7555ZM52.0761 9.45852L47.0186 14.516H45.4839V12.9812L50.5414 7.92374C51.1084 8.37643 51.6235 8.89148 52.0761 9.45852ZM43.5484 5.87296V25.112C38.6653 24.6249 34.8387 20.4926 34.8387 15.4838C36.4392 15.4838 37.7419 14.181 37.7419 12.5805C37.7419 11.574 37.2259 10.6866 36.4463 10.1659C38.0505 7.72717 40.6423 6.16168 43.5484 5.87296ZM34.8387 11.6128C35.3727 11.6128 35.8064 12.0475 35.8064 12.5805C35.8064 13.1135 35.3727 13.5483 34.8387 13.5483C34.3048 13.5483 33.871 13.1135 33.871 12.5805C33.871 12.0475 34.3048 11.6128 34.8387 11.6128ZM25.1613 20.3225C25.1613 20.8555 24.7275 21.2902 24.1936 21.2902C23.6596 21.2902 23.2258 20.8555 23.2258 20.3225C23.2258 19.7894 23.6596 19.3547 24.1936 19.3547C24.7275 19.3547 25.1613 19.7894 25.1613 20.3225ZM15.4839 5.80633C16.0178 5.80633 16.4516 6.24106 16.4516 6.77408C16.4516 7.30709 16.0178 7.74182 15.4839 7.74182C14.9499 7.74182 14.5161 7.30709 14.5161 6.77408C14.5161 6.24106 14.9499 5.80633 15.4839 5.80633ZM6.7742 15.4838C7.30816 15.4838 7.74194 15.9185 7.74194 16.4515C7.74194 16.9845 7.30816 17.4192 6.7742 17.4192C6.24024 17.4192 5.80646 16.9845 5.80646 16.4515C5.80646 15.9185 6.24024 15.4838 6.7742 15.4838Z" fill="#0A7F2E"/>
<path d="M3.87097 36.7742H5.80646V38.7097H3.87097V36.7742Z" fill="#0A7F2E"/>
<path d="M7.74194 36.7742H27.0968V38.7097H7.74194V36.7742Z" fill="#0A7F2E"/>
<path d="M3.87097 32.9033H5.80646V34.8388H3.87097V32.9033Z" fill="#0A7F2E"/>
<path d="M7.74194 32.9033H27.0968V34.8388H7.74194V32.9033Z" fill="#0A7F2E"/>
<path d="M3.87097 29.0322H5.80646V30.9677H3.87097V29.0322Z" fill="#0A7F2E"/>
<path d="M7.74194 29.0322H27.0968V30.9677H7.74194V29.0322Z" fill="#0A7F2E"/>
<path d="M3.87097 25.1614H5.80646V27.0969H3.87097V25.1614Z" fill="#0A7F2E"/>
<path d="M7.74194 25.1614H27.0968V27.0969H7.74194V25.1614Z" fill="#0A7F2E"/>
</g>
<defs>
<clipPath id="clip0">
<rect width="60" height="60" fill="white"/>
</clipPath>
</defs>
</svg>
