<svg width="60" height="60" viewBox="0 0 60 60" fill="none" xmlns="http://www.w3.org/2000/svg">
<g clip-path="url(#clip0)">
<path d="M58.0662 58.0645H60.0017V59.9999H58.0662V58.0645Z" fill="#0A7F2E"/>
<path d="M0 58.0645H1.93548V59.9999H0V58.0645Z" fill="#0A7F2E"/>
<path d="M60 42.5806C60 34.7262 54.7715 28.0754 47.614 25.9093C48.0889 25.3404 48.3871 24.6184 48.3871 23.8212C48.3871 22.4731 47.5791 21.2795 46.3278 20.7786L29.0072 13.8503C28.5522 13.6684 28.0801 13.5366 27.6047 13.4586L23.2258 12.7285V12.058C24.4104 10.9944 25.1613 9.45675 25.1613 7.74194V5.80645C25.1613 2.60411 22.5572 0 19.3548 0C16.1525 0 13.5484 2.60411 13.5484 5.80645V7.74194C13.5484 9.4558 14.2992 10.9934 15.4839 12.058V12.8514L8.75882 15.0931C7.57182 15.4886 6.77419 16.5948 6.77419 17.846V33.3871C6.77419 33.9088 6.90272 34.3974 7.11394 34.8387H1.93548C0.868038 34.8387 0 35.7067 0 36.7742V44.5161C0 45.5836 0.868038 46.4516 1.93548 46.4516H11.6129V58.0645H3.87097V60H56.129V58.0645H50.5248C56.1418 55.1698 60 49.3227 60 42.5806ZM58.0645 42.5806C58.0645 51.1178 51.1178 58.0645 42.5806 58.0645C34.0434 58.0645 27.0968 51.1178 27.0968 42.5806C27.0968 34.0434 34.0434 27.0968 42.5806 27.0968C51.1178 27.0968 58.0645 34.0434 58.0645 42.5806ZM27.0968 34.6374V21.2903H28.8569L39.8206 25.4013C34.2669 26.2916 29.587 29.8034 27.0968 34.6374ZM15.4839 5.80645C15.4839 3.67156 17.2199 1.93548 19.3548 1.93548C21.4897 1.93548 23.2258 3.67156 23.2258 5.80645V7.74194C23.2258 9.87683 21.4897 11.6129 19.3548 11.6129C17.2199 11.6129 15.4839 9.87683 15.4839 7.74194V5.80645ZM12.7711 36.7742L8.9776 39.3027C8.2414 39.7927 7.24058 39.7927 6.50532 39.3027L2.7128 36.7742H12.7711ZM1.93548 38.5821L5.43268 40.9131C6.11927 41.371 6.91737 41.6129 7.74194 41.6129C8.5665 41.6129 9.3646 41.371 10.0521 40.9131L13.5484 38.5821L13.5493 44.5161H1.93548V38.5821ZM13.5484 46.4516C14.6158 46.4516 15.4839 45.5836 15.4839 44.5161V36.7742C15.4839 35.7067 14.6158 34.8387 13.5484 34.8387V19.3548H11.6129V33.3871C11.6129 34.1876 10.9618 34.8387 10.1613 34.8387C9.36082 34.8387 8.70968 34.1876 8.70968 33.3871V17.846C8.70968 17.4288 8.97571 17.0602 9.37169 16.9279L17.4194 14.2463V13.2096C18.0261 13.4255 18.6753 13.5484 19.3548 13.5484C20.0343 13.5484 20.6836 13.4246 21.2903 13.2096V14.3682L27.2872 15.3676C27.626 15.4248 27.9629 15.5179 28.2871 15.6483L45.6077 22.5765C46.1208 22.7807 46.4516 23.2702 46.4516 23.8212C46.4516 24.5602 45.8496 25.1613 45.1115 25.1613H44.9353C44.7746 25.1613 44.6158 25.1334 44.4646 25.0753L29.2076 19.3548H25.1613V58.0645H20.3226V31.9355H18.3871V58.0645H13.5484V46.4516ZM27.0968 58.0645V50.5239C28.7624 53.756 31.4044 56.3988 34.6365 58.0645H27.0968Z" fill="#0A7F2E"/>
<path d="M41.6115 35.8064V43.5483H46.4502V41.6128H43.5469V35.8064H41.6115Z" fill="#0A7F2E"/>
<path d="M33.7697 32.2993L35.0299 33.7684C36.8888 32.1746 39.1948 31.2153 41.6113 31.0112V33.8709H43.5468V31.0169C49.1779 31.4847 53.675 35.9817 54.1428 41.6129H51.2887V43.5484H54.1485C53.9443 45.9639 52.986 48.2708 51.3912 50.1288L52.8613 51.39C54.9669 48.9328 56.1274 45.8052 56.1274 42.5806C56.1274 35.1094 50.0502 29.0322 42.579 29.0322C39.3535 29.0322 36.2259 30.1928 33.7697 32.2993Z" fill="#0A7F2E"/>
<path d="M43.5492 54.1501V51.2903H41.6137V54.1444C35.9826 53.6766 31.4855 49.1795 31.0177 43.5484H33.8718V41.6129H31.012C31.2162 39.1973 32.1745 36.8904 33.7693 35.0324L32.2992 33.7712C30.1936 36.2284 29.0331 39.3561 29.0331 42.5806C29.0331 50.0518 35.1103 56.129 42.5815 56.129C45.807 56.129 48.9346 54.9685 51.3909 52.8619L50.1306 51.3928C48.2717 52.9876 45.9648 53.9469 43.5492 54.1501Z" fill="#0A7F2E"/>
</g>
<defs>
<clipPath id="clip0">
<rect width="60" height="60" fill="white"/>
</clipPath>
</defs>
</svg>
