<svg width="60" height="60" viewBox="0 0 60 60" fill="none" xmlns="http://www.w3.org/2000/svg">
<path d="M24.1935 17.4194C14.0544 17.4194 5.8064 25.6674 5.8064 35.8065C5.8064 45.9456 14.0544 54.1936 24.1935 54.1936C34.3326 54.1936 42.5806 45.9456 42.5806 35.8065C42.5806 25.6674 34.3326 17.4194 24.1935 17.4194ZM24.1935 52.2581C15.1219 52.2581 7.74188 44.8782 7.74188 35.8065C7.74188 26.7349 15.1219 19.3549 24.1935 19.3549C33.2651 19.3549 40.6451 26.7349 40.6451 35.8065C40.6451 44.8782 33.2651 52.2581 24.1935 52.2581Z" fill="#0A7F2E"/>
<path d="M15.2107 47.2116C15.7607 47.6449 16.34 48.038 16.9354 48.3815L17.9022 46.7055C17.3881 46.4082 16.8863 46.0685 16.41 45.6919L15.2107 47.2116Z" fill="#0A7F2E"/>
<path d="M33.089 44.7018C29.3352 48.4546 23.5935 49.4479 18.8016 47.1774L17.9718 48.9262C19.9512 49.8647 22.0696 50.3206 24.1742 50.3206C27.9493 50.3206 31.6771 48.8516 34.4574 46.0712C34.7594 45.7692 35.0438 45.4578 35.3132 45.1384L33.8313 43.8928C33.5979 44.1716 33.3503 44.4414 33.089 44.7018Z" fill="#0A7F2E"/>
<path d="M19.3548 38.7096C19.3548 36.5748 17.6188 34.8387 15.4839 34.8387C14.4164 34.8387 13.5484 33.9706 13.5484 32.9032C13.5484 31.8357 14.4164 30.9677 15.4839 30.9677C16.5513 30.9677 17.4194 31.8357 17.4194 32.9032H19.3548C19.3548 30.7683 17.6188 29.0322 15.4839 29.0322C13.349 29.0322 11.6129 30.7683 11.6129 32.9032C11.6129 35.0381 13.349 36.7742 15.4839 36.7742C16.5513 36.7742 17.4194 37.6422 17.4194 38.7096C17.4194 39.7771 16.5513 40.6451 15.4839 40.6451C14.4164 40.6451 13.5484 39.7771 13.5484 38.7096H11.6129C11.6129 40.8445 13.349 42.5806 15.4839 42.5806C17.6188 42.5806 19.3548 40.8445 19.3548 38.7096Z" fill="#0A7F2E"/>
<path d="M27.0967 40.6451H23.2258V36.7742H27.0967V34.8387H23.2258V30.9677H27.0967V29.0322H21.2903V42.5806H27.0967V40.6451Z" fill="#0A7F2E"/>
<path d="M32.9032 29.0322C30.7683 29.0322 29.0322 30.7683 29.0322 32.9032V38.7096C29.0322 40.8445 30.7683 42.5806 32.9032 42.5806C35.0381 42.5806 36.7742 40.8445 36.7742 38.7096V32.9032C36.7742 30.7683 35.0381 29.0322 32.9032 29.0322ZM34.8387 38.7096C34.8387 39.7771 33.9706 40.6451 32.9032 40.6451C31.8357 40.6451 30.9677 39.7771 30.9677 38.7096V32.9032C30.9677 31.8357 31.8357 30.9677 32.9032 30.9677C33.9706 30.9677 34.8387 31.8357 34.8387 32.9032V38.7096Z" fill="#0A7F2E"/>
<path d="M54.0078 12.6331C53.1252 8.13603 49.1795 4.83871 44.5161 4.83871C43.203 4.83871 41.9092 5.11372 40.7118 5.62547C39.1751 2.3102 35.8239 0 31.9355 0C26.5992 0 22.2581 4.34114 22.2581 9.67742C22.2581 10.3323 22.3318 10.9792 22.4603 11.6129H20.6099L19.7527 13.9982C16.9393 14.5662 14.3082 15.6573 11.9139 17.245L9.62024 16.1653L4.55236 21.2322L5.63303 23.5268C4.04439 25.9221 2.95331 28.5522 2.38533 31.3647L0 32.2228V39.3901L2.38533 40.2482C2.95331 43.0598 4.04439 45.6908 5.63303 48.0861L4.55236 50.3807L9.62024 55.4476L11.9139 54.3679C14.3082 55.9566 16.9393 57.0476 19.7527 57.6147L20.6099 60H27.7772L28.6344 57.6147C31.4478 57.0467 34.0789 55.9556 36.4732 54.3679L38.7669 55.4476L43.8347 50.3807L42.7541 48.0861C44.3427 45.6908 45.4338 43.0607 46.0018 40.2482L48.3871 39.3901V32.2228L46.0018 31.3647C45.6318 29.5346 45.0184 27.7904 44.2123 26.129H53.2258C56.9612 26.129 60 23.0892 60 19.3548C60 15.8992 57.3987 13.0395 54.0078 12.6331ZM46.4516 33.5837V38.0292L44.2973 38.8037L44.1995 39.3561C43.6849 42.2825 42.5575 45.0028 40.8493 47.4425L40.527 47.9023L41.5028 49.9743L38.3586 53.1176L36.2903 52.1418L35.8306 52.4631C33.3918 54.1713 30.6705 55.2988 27.7441 55.8143L27.1918 55.9121L26.4163 58.0645H21.9708L21.1963 55.9112L20.6439 55.8134C17.7166 55.2979 14.9962 54.1704 12.5575 52.4622L12.0968 52.1418L10.0257 53.1176L6.8824 49.9743L7.85818 47.9023L7.53591 47.4425C5.82772 45.0028 4.70026 42.2825 4.18567 39.3561L4.08786 38.8037L1.93548 38.0292V33.5837L4.08975 32.8092L4.18756 32.2568C4.70215 29.3304 5.82961 26.6101 7.5378 24.1704L7.86007 23.7106L6.8824 21.6386L10.0266 18.4953L12.0977 19.4711L12.5575 19.1498C14.9962 17.4416 17.7175 16.3141 20.6439 15.7986L21.1963 15.7008L21.9708 13.5474H26.4163L27.1908 15.7008L27.7432 15.7986C30.6705 16.3141 33.3909 17.4416 35.8296 19.1498L36.2903 19.4711L38.3614 18.4953L41.5056 21.6386L40.5299 23.7106L40.8521 24.1704C42.5603 26.6101 43.6878 29.3304 44.2024 32.2568L44.3002 32.8092L46.4516 33.5837ZM53.2258 24.1935H43.1515C43.0163 23.9729 42.8982 23.7446 42.7541 23.5278L43.8347 21.2331L38.7669 16.1662L36.4732 17.2459C34.0789 15.6573 31.4478 14.5662 28.6344 13.9992L27.7772 11.6129H24.4374C24.2758 10.984 24.1935 10.3357 24.1935 9.67742C24.1935 5.40858 27.6666 1.93548 31.9355 1.93548C36.2043 1.93548 39.6774 5.40858 39.6774 9.67742H41.6129C41.6129 8.91475 41.5151 8.17666 41.3478 7.46409C42.3387 7.01896 43.418 6.77419 44.5161 6.77419C48.4674 6.77419 51.7742 9.73365 52.208 13.6566L52.3587 14.5161H53.2258C55.8937 14.5161 58.0645 16.6869 58.0645 19.3548C58.0645 22.0227 55.8937 24.1935 53.2258 24.1935Z" fill="#0A7F2E"/>
<path d="M26.129 9.6773H28.0645C28.0645 7.54241 29.8006 5.80633 31.9355 5.80633V3.87085C28.7331 3.87085 26.129 6.47496 26.129 9.6773Z" fill="#0A7F2E"/>
<path d="M44.5161 8.70972V10.6452C46.651 10.6452 48.3871 12.3813 48.3871 14.5162H50.3226C50.3226 11.3138 47.7184 8.70972 44.5161 8.70972Z" fill="#0A7F2E"/>
</svg>
