<svg width="60" height="60" viewBox="0 0 60 60" fill="none" xmlns="http://www.w3.org/2000/svg">
<path d="M56.7862 41.2294L45 34.1569V28.125H41.25H37.5H30.9375V21.5625V17.8125V4.6875H30C28.5694 4.6875 27.18 5.19656 26.0887 6.12L23.9625 7.91906C21.2259 10.2347 19.0575 13.0669 17.535 16.2084L11.6381 10.3125H0.9375V12.1875H10.8619L16.7278 18.0534C15.6009 20.9466 15 24.0553 15 27.2428V34.1569L3.21375 41.2294C1.81031 42.0703 0.9375 43.6116 0.9375 45.2484V51.5625H15V53.4375H17.0184L17.9559 59.0625H42.0431L42.9806 53.4375H45V51.5625H59.0625V45.2484C59.0625 43.6116 58.1897 42.0703 56.7862 41.2294ZM39.3281 30C38.8566 34.7306 34.8534 38.4375 30 38.4375C24.8306 38.4375 20.625 34.2319 20.625 29.0625C20.625 24.2091 24.3319 20.2059 29.0625 19.7344V21.6281C25.3687 22.0922 22.5 25.2459 22.5 29.0634C22.5 33.1987 25.8647 36.5634 30 36.5634C33.8175 36.5634 36.9712 33.6947 37.4353 30.0009H39.3281V30ZM35.5472 30C35.0991 32.6569 32.7825 34.6875 30 34.6875C26.8978 34.6875 24.375 32.1647 24.375 29.0625C24.375 26.28 26.4056 23.9634 29.0625 23.5153V30H35.5472ZM2.8125 49.6875V45.2484C2.8125 44.2659 3.33656 43.3425 4.17844 42.8372L15 36.3431V45.9375H4.6875V47.8125H15V49.6875H2.8125ZM40.4559 57.1875H19.5441L18.9197 53.4375H41.0822L40.4559 57.1875ZM43.125 51.5625H16.875V27.2428C16.875 20.3344 19.8994 13.8131 25.1728 9.35156L27.3009 7.5525C27.8119 7.11937 28.4175 6.81844 29.0634 6.67031V17.8603C23.2969 18.3394 18.75 23.175 18.75 29.0625C18.75 35.2659 23.7966 40.3125 30 40.3125C35.8875 40.3125 40.7231 35.7656 41.2022 30H43.125V51.5625ZM57.1875 49.6875H45V47.8125H55.3125V45.9375H45V36.3431L55.8216 42.8363C56.6634 43.3416 57.1875 44.2659 57.1875 45.2484V49.6875Z" fill="#0A7F2E"/>
<path d="M48.3619 0.9375L42.4772 6.82219C41.6522 5.88094 40.7578 4.99125 39.7875 4.17L37.6613 2.37094C36.57 1.44656 35.1806 0.9375 33.75 0.9375H32.8125V14.0625V17.8125V26.25H41.25H45H48.75V23.4928C48.75 17.9428 46.9397 12.6253 43.6697 8.28187L49.1381 2.8125H59.0625V0.9375H48.3619ZM34.6875 24.375V19.7653C37.0397 20.1619 38.9006 22.0228 39.2972 24.375H34.6875ZM41.1853 24.375C40.7606 20.9888 38.0738 18.3028 34.6875 17.8772V15.9834C39.1097 16.425 42.6366 19.9519 43.0781 24.3741H41.1853V24.375ZM46.875 24.375H44.9522C44.4994 18.9197 40.1428 14.5631 34.6875 14.1103V2.91938C35.3325 3.0675 35.9391 3.36844 36.4509 3.80156L38.5781 5.60063C43.8506 10.0622 46.875 16.5834 46.875 23.4928V24.375Z" fill="#0A7F2E"/>
<path d="M57.1875 4.6875H59.0625V6.5625H57.1875V4.6875Z" fill="#0A7F2E"/>
<path d="M49.6875 4.6875H55.3125V6.5625H49.6875V4.6875Z" fill="#0A7F2E"/>
<path d="M0.9375 14.0625H6.5625V15.9375H0.9375V14.0625Z" fill="#0A7F2E"/>
<path d="M8.4375 14.0625H10.3125V15.9375H8.4375V14.0625Z" fill="#0A7F2E"/>
<path d="M36.0717 40.6922L36.9435 42.3516C37.551 42.0328 38.1417 41.6681 38.6995 41.2678L37.6063 39.7444C37.1179 40.095 36.6013 40.4128 36.0717 40.6922Z" fill="#0A7F2E"/>
<path d="M24.933 43.1792C25.5808 43.4136 26.2492 43.603 26.9186 43.7436L27.303 41.9089C26.7189 41.7861 26.1358 41.6202 25.5677 41.4167L24.933 43.1792Z" fill="#0A7F2E"/>
<path d="M32.6849 41.9109L33.0693 43.7456C33.7406 43.6049 34.409 43.4156 35.0549 43.184L34.4212 41.4187C33.8559 41.6221 33.2718 41.7871 32.6849 41.9109Z" fill="#0A7F2E"/>
<path d="M29.0899 42.1555L28.9614 44.0268C29.3036 44.0493 29.6495 44.0615 30.0002 44.0624C30.3452 44.0624 30.6864 44.0502 31.0258 44.0277L30.8955 42.1565C30.2964 42.1986 29.6833 42.1977 29.0899 42.1555Z" fill="#0A7F2E"/>
<path d="M21.2904 41.2614C21.8501 41.6636 22.4407 42.0283 23.0445 42.3461L23.9182 40.6867C23.3904 40.4083 22.8738 40.0886 22.3835 39.7371L21.2904 41.2614Z" fill="#0A7F2E"/>
</svg>
